%TF.GenerationSoftware,KiCad,Pcbnew,(6.0.0)*%
%TF.CreationDate,2022-10-14T23:46:23+01:00*%
%TF.ProjectId,MIDIPresetController,4d494449-5072-4657-9365-74436f6e7472,rev?*%
%TF.SameCoordinates,Original*%
%TF.FileFunction,Copper,L1,Top*%
%TF.FilePolarity,Positive*%
%FSLAX46Y46*%
G04 Gerber Fmt 4.6, Leading zero omitted, Abs format (unit mm)*
G04 Created by KiCad (PCBNEW (6.0.0)) date 2022-10-14 23:46:23*
%MOMM*%
%LPD*%
G01*
G04 APERTURE LIST*
G04 Aperture macros list*
%AMRoundRect*
0 Rectangle with rounded corners*
0 $1 Rounding radius*
0 $2 $3 $4 $5 $6 $7 $8 $9 X,Y pos of 4 corners*
0 Add a 4 corners polygon primitive as box body*
4,1,4,$2,$3,$4,$5,$6,$7,$8,$9,$2,$3,0*
0 Add four circle primitives for the rounded corners*
1,1,$1+$1,$2,$3*
1,1,$1+$1,$4,$5*
1,1,$1+$1,$6,$7*
1,1,$1+$1,$8,$9*
0 Add four rect primitives between the rounded corners*
20,1,$1+$1,$2,$3,$4,$5,0*
20,1,$1+$1,$4,$5,$6,$7,0*
20,1,$1+$1,$6,$7,$8,$9,0*
20,1,$1+$1,$8,$9,$2,$3,0*%
G04 Aperture macros list end*
%TA.AperFunction,SMDPad,CuDef*%
%ADD10RoundRect,0.250000X0.350000X0.450000X-0.350000X0.450000X-0.350000X-0.450000X0.350000X-0.450000X0*%
%TD*%
%TA.AperFunction,ComponentPad*%
%ADD11R,1.800000X1.800000*%
%TD*%
%TA.AperFunction,ComponentPad*%
%ADD12C,1.800000*%
%TD*%
%TA.AperFunction,ComponentPad*%
%ADD13R,1.700000X1.700000*%
%TD*%
%TA.AperFunction,ComponentPad*%
%ADD14O,1.700000X1.700000*%
%TD*%
%TA.AperFunction,SMDPad,CuDef*%
%ADD15RoundRect,0.250000X-0.450000X0.350000X-0.450000X-0.350000X0.450000X-0.350000X0.450000X0.350000X0*%
%TD*%
%TA.AperFunction,SMDPad,CuDef*%
%ADD16RoundRect,1.500000X1.500000X-1.500000X1.500000X1.500000X-1.500000X1.500000X-1.500000X-1.500000X0*%
%TD*%
%TA.AperFunction,SMDPad,CuDef*%
%ADD17C,14.000000*%
%TD*%
%TA.AperFunction,SMDPad,CuDef*%
%ADD18R,1.560000X0.650000*%
%TD*%
%TA.AperFunction,SMDPad,CuDef*%
%ADD19RoundRect,0.100000X-0.100000X0.637500X-0.100000X-0.637500X0.100000X-0.637500X0.100000X0.637500X0*%
%TD*%
%TA.AperFunction,SMDPad,CuDef*%
%ADD20RoundRect,0.250000X0.450000X-0.350000X0.450000X0.350000X-0.450000X0.350000X-0.450000X-0.350000X0*%
%TD*%
%TA.AperFunction,SMDPad,CuDef*%
%ADD21RoundRect,0.250000X0.337500X0.475000X-0.337500X0.475000X-0.337500X-0.475000X0.337500X-0.475000X0*%
%TD*%
%TA.AperFunction,ComponentPad*%
%ADD22C,2.000000*%
%TD*%
%TA.AperFunction,SMDPad,CuDef*%
%ADD23R,0.740000X2.400000*%
%TD*%
%TA.AperFunction,SMDPad,CuDef*%
%ADD24C,0.500000*%
%TD*%
%TA.AperFunction,ComponentPad*%
%ADD25R,1.600000X1.600000*%
%TD*%
%TA.AperFunction,ComponentPad*%
%ADD26O,1.600000X1.600000*%
%TD*%
%TA.AperFunction,ViaPad*%
%ADD27C,0.800000*%
%TD*%
%TA.AperFunction,Conductor*%
%ADD28C,0.400000*%
%TD*%
%TA.AperFunction,Conductor*%
%ADD29C,2.000000*%
%TD*%
%TA.AperFunction,Conductor*%
%ADD30C,0.500000*%
%TD*%
%TA.AperFunction,Conductor*%
%ADD31C,1.000000*%
%TD*%
G04 APERTURE END LIST*
%TO.C,NT1*%
G36*
X133336446Y-111974044D02*
G01*
X132336446Y-111974044D01*
X132336446Y-111474044D01*
X133336446Y-111474044D01*
X133336446Y-111974044D01*
G37*
%TD*%
D10*
%TO.P,R9,1*%
%TO.N,/Microcontroller/LPWR_MON_LED*%
X133080000Y-102616000D03*
%TO.P,R9,2*%
%TO.N,Net-(D1-Pad2)*%
X131080000Y-102616000D03*
%TD*%
D11*
%TO.P,D1,1,K*%
%TO.N,GND*%
X124455000Y-102616000D03*
D12*
%TO.P,D1,2,A*%
%TO.N,Net-(D1-Pad2)*%
X126995000Y-102616000D03*
%TD*%
D13*
%TO.P,J4,1,Pin_1*%
%TO.N,GND*%
X132772000Y-128910000D03*
D14*
%TO.P,J4,2,Pin_2*%
%TO.N,/Microcontroller/EXT_DOWN_PRESET_SW*%
X132772000Y-126370000D03*
%TD*%
D15*
%TO.P,R7,1*%
%TO.N,/Microcontroller/EXT_MIDI_CH_BIT3*%
X151892000Y-88281000D03*
%TO.P,R7,2*%
%TO.N,GND*%
X151892000Y-90281000D03*
%TD*%
D16*
%TO.P,BT1,1,+*%
%TO.N,Net-(BT1-Pad1)*%
X133146800Y-66287029D03*
X133146800Y-92703029D03*
D17*
%TO.P,BT1,2,-*%
%TO.N,GND*%
X133146800Y-79495029D03*
%TD*%
D18*
%TO.P,U1,1*%
%TO.N,N/C*%
X130122446Y-112674044D03*
%TO.P,U1,2*%
%TO.N,/MIDI_Output/MIDI_TX*%
X130122446Y-111724044D03*
%TO.P,U1,3,GND*%
%TO.N,GND*%
X130122446Y-110774044D03*
%TO.P,U1,4*%
%TO.N,Net-(R1-Pad1)*%
X127422446Y-110774044D03*
%TO.P,U1,5,VCC*%
%TO.N,+3V3*%
X127422446Y-112674044D03*
%TD*%
D19*
%TO.P,U2,1,PB9*%
%TO.N,/Microcontroller/BOOT0*%
X141650000Y-104833500D03*
%TO.P,U2,2,PC14*%
%TO.N,/Microcontroller/EXT_MIDI_CH_BIT2*%
X141000000Y-104833500D03*
%TO.P,U2,3,PC15*%
%TO.N,/Microcontroller/EXT_MIDI_CH_BIT3*%
X140350000Y-104833500D03*
%TO.P,U2,4,NRST*%
%TO.N,/Microcontroller/NRST*%
X139700000Y-104833500D03*
%TO.P,U2,5,PA0*%
%TO.N,/Microcontroller/EXT_MIDI_CH_BIT4*%
X139050000Y-104833500D03*
%TO.P,U2,6,PA1*%
%TO.N,/Microcontroller/LPUART1_TX*%
X138400000Y-104833500D03*
%TO.P,U2,7,PA4*%
%TO.N,/Microcontroller/EXT_MIDI_CH_BIT1*%
X137750000Y-104833500D03*
%TO.P,U2,8,PA7*%
%TO.N,/Microcontroller/LPWR_MON_LED*%
X137750000Y-110558500D03*
%TO.P,U2,9,VSS*%
%TO.N,GND*%
X138400000Y-110558500D03*
%TO.P,U2,10,VDD*%
%TO.N,+3V3*%
X139050000Y-110558500D03*
%TO.P,U2,11,PA9*%
%TO.N,/Microcontroller/EXT_DOWN_PRESET_SW*%
X139700000Y-110558500D03*
%TO.P,U2,12,PA10*%
%TO.N,/Microcontroller/EXT_UP_PRESET_SW*%
X140350000Y-110558500D03*
%TO.P,U2,13,PA13*%
%TO.N,/Microcontroller/SWDIO*%
X141000000Y-110558500D03*
%TO.P,U2,14,PA14*%
%TO.N,/Microcontroller/SWCLK*%
X141650000Y-110558500D03*
%TD*%
D15*
%TO.P,R4,1*%
%TO.N,/Microcontroller/EXT_MIDI_CH_BIT2*%
X155194000Y-88281000D03*
%TO.P,R4,2*%
%TO.N,GND*%
X155194000Y-90281000D03*
%TD*%
D13*
%TO.P,J5,1,Pin_1*%
%TO.N,GND*%
X150555000Y-126725388D03*
D14*
%TO.P,J5,2,Pin_2*%
%TO.N,/Microcontroller/EXT_UP_PRESET_SW*%
X150555000Y-129265388D03*
%TD*%
D20*
%TO.P,R6,1*%
%TO.N,/Microcontroller/EXT_UP_PRESET_SW*%
X147253000Y-129265388D03*
%TO.P,R6,2*%
%TO.N,GND*%
X147253000Y-127265388D03*
%TD*%
D15*
%TO.P,R5,1*%
%TO.N,/Microcontroller/EXT_DOWN_PRESET_SW*%
X136017000Y-126381000D03*
%TO.P,R5,2*%
%TO.N,GND*%
X136017000Y-128381000D03*
%TD*%
D13*
%TO.P,J2,1,Pin_1*%
%TO.N,GND*%
X132842000Y-122047000D03*
D14*
%TO.P,J2,2,Pin_2*%
%TO.N,Net-(J2-Pad2)*%
X132842000Y-119507000D03*
%TO.P,J2,3,Pin_3*%
%TO.N,Net-(J2-Pad3)*%
X132842000Y-116967000D03*
%TD*%
D15*
%TO.P,R3,1*%
%TO.N,/Microcontroller/EXT_MIDI_CH_BIT1*%
X158496000Y-88281000D03*
%TO.P,R3,2*%
%TO.N,GND*%
X158496000Y-90281000D03*
%TD*%
D21*
%TO.P,C1,1*%
%TO.N,/Microcontroller/NRST*%
X158441300Y-113741200D03*
%TO.P,C1,2*%
%TO.N,GND*%
X156366300Y-113741200D03*
%TD*%
D15*
%TO.P,R1,1*%
%TO.N,Net-(R1-Pad1)*%
X124200446Y-110724044D03*
%TO.P,R1,2*%
%TO.N,Net-(J2-Pad2)*%
X124200446Y-112724044D03*
%TD*%
D22*
%TO.P,SW1,1,A*%
%TO.N,/Microcontroller/NRST*%
X159653800Y-116358600D03*
X159653800Y-122858600D03*
%TO.P,SW1,2,B*%
%TO.N,GND*%
X155153800Y-122858600D03*
X155153800Y-116358600D03*
%TD*%
D23*
%TO.P,J3,1,Pin_1*%
%TO.N,+3V3*%
X147015200Y-121965000D03*
%TO.P,J3,2,Pin_2*%
%TO.N,/Microcontroller/SWDIO*%
X147015200Y-118065000D03*
%TO.P,J3,3,Pin_3*%
%TO.N,GND*%
X148285200Y-121965000D03*
%TO.P,J3,4,Pin_4*%
%TO.N,/Microcontroller/SWCLK*%
X148285200Y-118065000D03*
%TO.P,J3,5,Pin_5*%
%TO.N,GND*%
X149555200Y-121965000D03*
%TO.P,J3,6,Pin_6*%
%TO.N,unconnected-(J3-Pad6)*%
X149555200Y-118065000D03*
%TO.P,J3,7,Pin_7*%
%TO.N,unconnected-(J3-Pad7)*%
X150825200Y-121965000D03*
%TO.P,J3,8,Pin_8*%
%TO.N,unconnected-(J3-Pad8)*%
X150825200Y-118065000D03*
%TO.P,J3,9,Pin_9*%
%TO.N,GND*%
X152095200Y-121965000D03*
%TO.P,J3,10,Pin_10*%
%TO.N,/Microcontroller/NRST*%
X152095200Y-118065000D03*
%TD*%
D24*
%TO.P,NT1,1,1*%
%TO.N,/Microcontroller/LPUART1_TX*%
X133336446Y-111724044D03*
%TO.P,NT1,2,2*%
%TO.N,/MIDI_Output/MIDI_TX*%
X132336446Y-111724044D03*
%TD*%
D13*
%TO.P,JP1,1,A*%
%TO.N,GND*%
X150051791Y-106103500D03*
D14*
%TO.P,JP1,2,C*%
%TO.N,/Microcontroller/BOOT0*%
X150051791Y-108643500D03*
%TO.P,JP1,3,B*%
%TO.N,+3V3*%
X150051791Y-111183500D03*
%TD*%
D15*
%TO.P,R8,1*%
%TO.N,/Microcontroller/EXT_MIDI_CH_BIT4*%
X148590000Y-88281000D03*
%TO.P,R8,2*%
%TO.N,GND*%
X148590000Y-90281000D03*
%TD*%
D25*
%TO.P,SW2,1*%
%TO.N,GND*%
X158496000Y-77216000D03*
D26*
%TO.P,SW2,2*%
X155956000Y-77216000D03*
%TO.P,SW2,3*%
X153416000Y-77216000D03*
%TO.P,SW2,4*%
X150876000Y-77216000D03*
%TO.P,SW2,5*%
%TO.N,/Microcontroller/EXT_MIDI_CH_BIT4*%
X150876000Y-84836000D03*
%TO.P,SW2,6*%
%TO.N,/Microcontroller/EXT_MIDI_CH_BIT3*%
X153416000Y-84836000D03*
%TO.P,SW2,7*%
%TO.N,/Microcontroller/EXT_MIDI_CH_BIT2*%
X155956000Y-84836000D03*
%TO.P,SW2,8*%
%TO.N,/Microcontroller/EXT_MIDI_CH_BIT1*%
X158496000Y-84836000D03*
%TD*%
D13*
%TO.P,J1,1,Pin_1*%
%TO.N,Net-(BT1-Pad1)*%
X142133400Y-92021544D03*
D14*
%TO.P,J1,2,Pin_2*%
%TO.N,+3V3*%
X144673400Y-92021544D03*
%TD*%
D27*
%TO.N,+3V3*%
X145288000Y-121666000D03*
%TO.N,GND*%
X149860000Y-79756000D03*
X152400000Y-82296000D03*
X154940000Y-79756000D03*
X157480000Y-82296000D03*
X160020000Y-79756000D03*
X160020000Y-72136000D03*
X160020000Y-67056000D03*
X157480000Y-69596000D03*
X152400000Y-69596000D03*
X147320000Y-74676000D03*
X147320000Y-82296000D03*
X137160000Y-87376000D03*
X139700000Y-84836000D03*
X139700000Y-74676000D03*
X139700000Y-69596000D03*
X137160000Y-72136000D03*
X124460000Y-64516000D03*
X127000000Y-67056000D03*
X124460000Y-69596000D03*
X127000000Y-72136000D03*
X124460000Y-74676000D03*
X124460000Y-79756000D03*
X124460000Y-84836000D03*
X127000000Y-89916000D03*
X160020000Y-110236000D03*
X160020000Y-105156000D03*
X154940000Y-105156000D03*
X157480000Y-107696000D03*
X154940000Y-110236000D03*
X144780000Y-110236000D03*
X147320000Y-112776000D03*
X132080000Y-115316000D03*
X129540000Y-117856000D03*
X129540000Y-128016000D03*
X129540000Y-122936000D03*
X134620000Y-120396000D03*
X134620000Y-125476000D03*
X137160000Y-122936000D03*
X144780000Y-120396000D03*
X142240000Y-117856000D03*
X142240000Y-122936000D03*
X144780000Y-125476000D03*
X144780000Y-130556000D03*
X139700000Y-130556000D03*
X142240000Y-128016000D03*
X139700000Y-125476000D03*
X157271000Y-118065000D03*
X154940000Y-120396000D03*
X157480000Y-122936000D03*
X160020000Y-130556000D03*
X160020000Y-125476000D03*
X154940000Y-130556000D03*
X157480000Y-128016000D03*
X152400000Y-128016000D03*
X154940000Y-125476000D03*
X160020000Y-100076000D03*
X160020000Y-94996000D03*
X157480000Y-97536000D03*
X154940000Y-100076000D03*
X147320000Y-107696000D03*
X144780000Y-105156000D03*
X147320000Y-102616000D03*
X142240000Y-94996000D03*
X137160000Y-100076000D03*
X139700000Y-97536000D03*
X137160000Y-94996000D03*
X137160000Y-115316000D03*
X134620000Y-112776000D03*
X132080000Y-110236000D03*
X134620000Y-107696000D03*
X132080000Y-105156000D03*
X127000000Y-105156000D03*
X134620000Y-97536000D03*
X132080000Y-100076000D03*
X129540000Y-97536000D03*
X127000000Y-94996000D03*
X124460000Y-92456000D03*
X124460000Y-97536000D03*
X129540000Y-107696000D03*
X124460000Y-107696000D03*
X127000000Y-115316000D03*
X127000000Y-125476000D03*
X127000000Y-130556000D03*
X124460000Y-128016000D03*
X124460000Y-122936000D03*
X127000000Y-120396000D03*
X124460000Y-117856000D03*
%TO.N,/Microcontroller/LPWR_MON_LED*%
X137160000Y-112141000D03*
%TO.N,+3V3*%
X136144000Y-120650000D03*
X139700000Y-108966000D03*
%TO.N,/Microcontroller/LPWR_MON_LED*%
X134620000Y-102616000D03*
%TO.N,GND*%
X155194000Y-91948000D03*
X158496000Y-91948000D03*
X148590000Y-91948000D03*
X151892000Y-91948000D03*
%TO.N,/Microcontroller/EXT_MIDI_CH_BIT1*%
X147574000Y-94361000D03*
X158115000Y-94361000D03*
%TD*%
D28*
%TO.N,GND*%
X138400000Y-110558500D02*
X138400000Y-114076000D01*
X138400000Y-114076000D02*
X137160000Y-115316000D01*
%TO.N,+3V3*%
X145587000Y-121965000D02*
X145288000Y-121666000D01*
X147015200Y-121965000D02*
X145587000Y-121965000D01*
%TO.N,/Microcontroller/NRST*%
X151765000Y-115316000D02*
X152095200Y-115646200D01*
X152095200Y-115646200D02*
X152095200Y-118065000D01*
X144780000Y-115316000D02*
X151765000Y-115316000D01*
X142494000Y-109220000D02*
X142494000Y-113030000D01*
X139700000Y-106426000D02*
X142494000Y-109220000D01*
X142494000Y-113030000D02*
X144780000Y-115316000D01*
X139700000Y-104833500D02*
X139700000Y-106426000D01*
%TO.N,/Microcontroller/SWCLK*%
X144526000Y-116078000D02*
X141650000Y-113202000D01*
X148285200Y-118065000D02*
X148285200Y-116078000D01*
X148285200Y-116078000D02*
X144526000Y-116078000D01*
X141650000Y-113202000D02*
X141650000Y-110558500D01*
%TO.N,+3V3*%
X136144000Y-115570000D02*
X136144000Y-118431213D01*
X127889000Y-114300000D02*
X134874000Y-114300000D01*
X134874000Y-114300000D02*
X136144000Y-115570000D01*
X127422446Y-113833446D02*
X127889000Y-114300000D01*
X127422446Y-112674044D02*
X127422446Y-113833446D01*
%TO.N,/Microcontroller/NRST*%
X155149000Y-118065000D02*
X157367800Y-120283800D01*
X152095200Y-118065000D02*
X155149000Y-118065000D01*
X159653800Y-120283800D02*
X159653800Y-122858600D01*
X157367800Y-120283800D02*
X159653800Y-120283800D01*
X159653800Y-118065000D02*
X159653800Y-120283800D01*
%TO.N,/Microcontroller/EXT_MIDI_CH_BIT2*%
X156845000Y-94996000D02*
X156845000Y-88900000D01*
X143764000Y-100076000D02*
X151765000Y-100076000D01*
X151765000Y-100076000D02*
X156845000Y-94996000D01*
X156226000Y-88281000D02*
X155194000Y-88281000D01*
X141000000Y-102840000D02*
X143764000Y-100076000D01*
X156845000Y-88900000D02*
X156226000Y-88281000D01*
X141000000Y-104833500D02*
X141000000Y-102840000D01*
%TO.N,/Microcontroller/EXT_MIDI_CH_BIT4*%
X150241000Y-89027000D02*
X149495000Y-88281000D01*
X150241000Y-94615000D02*
X150241000Y-89027000D01*
X149495000Y-88281000D02*
X148590000Y-88281000D01*
X148590000Y-96266000D02*
X150241000Y-94615000D01*
X139050000Y-101742000D02*
X144526000Y-96266000D01*
X139050000Y-104833500D02*
X139050000Y-101742000D01*
X144526000Y-96266000D02*
X148590000Y-96266000D01*
%TO.N,/Microcontroller/EXT_MIDI_CH_BIT1*%
X137750000Y-101772000D02*
X137750000Y-104833500D01*
X145161000Y-94361000D02*
X137750000Y-101772000D01*
X147574000Y-94361000D02*
X145161000Y-94361000D01*
%TO.N,/Microcontroller/EXT_MIDI_CH_BIT3*%
X153543000Y-88773000D02*
X153051000Y-88281000D01*
X153543000Y-95377000D02*
X153543000Y-88773000D01*
X153051000Y-88281000D02*
X151892000Y-88281000D01*
X144145000Y-98171000D02*
X150749000Y-98171000D01*
X140350000Y-101966000D02*
X144145000Y-98171000D01*
X150749000Y-98171000D02*
X153543000Y-95377000D01*
X140350000Y-104833500D02*
X140350000Y-101966000D01*
%TO.N,+3V3*%
X138489787Y-118431213D02*
X139050000Y-117871000D01*
X139050000Y-117871000D02*
X139050000Y-110558500D01*
X136144000Y-118431213D02*
X138489787Y-118431213D01*
%TO.N,/Microcontroller/LPWR_MON_LED*%
X137750000Y-111551000D02*
X137160000Y-112141000D01*
X137750000Y-110558500D02*
X137750000Y-111551000D01*
%TO.N,+3V3*%
X136144000Y-120650000D02*
X136144000Y-118431213D01*
%TO.N,/Microcontroller/LPUART1_TX*%
X134401956Y-111724044D02*
X133336446Y-111724044D01*
X138400000Y-107726000D02*
X134401956Y-111724044D01*
X138400000Y-104833500D02*
X138400000Y-107726000D01*
%TO.N,+3V3*%
X139050000Y-109616000D02*
X139700000Y-108966000D01*
X139050000Y-110558500D02*
X139050000Y-109616000D01*
%TO.N,/Microcontroller/SWDIO*%
X144354000Y-118065000D02*
X147015200Y-118065000D01*
X141000000Y-114711000D02*
X144354000Y-118065000D01*
X141000000Y-110558500D02*
X141000000Y-114711000D01*
%TO.N,/Microcontroller/EXT_UP_PRESET_SW*%
X147253000Y-129265388D02*
X150555000Y-129265388D01*
X145394388Y-129265388D02*
X140350000Y-124221000D01*
X147253000Y-129265388D02*
X145394388Y-129265388D01*
X140350000Y-124221000D02*
X140350000Y-110558500D01*
%TO.N,/Microcontroller/EXT_DOWN_PRESET_SW*%
X132783000Y-126381000D02*
X132772000Y-126370000D01*
X136017000Y-126381000D02*
X132783000Y-126381000D01*
X139700000Y-110558500D02*
X139700000Y-122698000D01*
X139700000Y-122698000D02*
X136017000Y-126381000D01*
%TO.N,/Microcontroller/BOOT0*%
X141650000Y-106471000D02*
X143822500Y-108643500D01*
X141650000Y-104833500D02*
X141650000Y-106471000D01*
X143822500Y-108643500D02*
X150051791Y-108643500D01*
%TO.N,/Microcontroller/LPWR_MON_LED*%
X134620000Y-102616000D02*
X133080000Y-102616000D01*
%TO.N,Net-(D1-Pad2)*%
X131080000Y-102616000D02*
X127000000Y-102616000D01*
%TO.N,/Microcontroller/NRST*%
X159653800Y-114953700D02*
X158441300Y-113741200D01*
X159653800Y-116358600D02*
X159653800Y-114953700D01*
X159653800Y-118065000D02*
X159653800Y-116358600D01*
D29*
%TO.N,Net-(BT1-Pad1)*%
X141444944Y-92710000D02*
X142133400Y-92021544D01*
X143764000Y-70358000D02*
X139693029Y-66287029D01*
X139693029Y-66287029D02*
X133146800Y-66287029D01*
X142133400Y-92021544D02*
X142133400Y-87990600D01*
X133153771Y-92710000D02*
X141444944Y-92710000D01*
X142133400Y-87990600D02*
X143764000Y-86360000D01*
X133146800Y-92703029D02*
X133153771Y-92710000D01*
X143764000Y-86360000D02*
X143764000Y-70358000D01*
D28*
%TO.N,GND*%
X148590000Y-90281000D02*
X148590000Y-91948000D01*
X158496000Y-90281000D02*
X158496000Y-91948000D01*
X155194000Y-90281000D02*
X155194000Y-91948000D01*
X151892000Y-90281000D02*
X151892000Y-91948000D01*
D30*
%TO.N,Net-(J2-Pad2)*%
X124206000Y-112729598D02*
X124206000Y-114147600D01*
X124206000Y-114147600D02*
X129565400Y-119507000D01*
X129565400Y-119507000D02*
X132842000Y-119507000D01*
X124200446Y-112724044D02*
X124206000Y-112729598D01*
D28*
%TO.N,/MIDI_Output/MIDI_TX*%
X130122446Y-111724044D02*
X132336446Y-111724044D01*
D30*
%TO.N,Net-(R1-Pad1)*%
X127372446Y-110724044D02*
X127422446Y-110774044D01*
X124200446Y-110724044D02*
X127372446Y-110724044D01*
D28*
%TO.N,/Microcontroller/EXT_MIDI_CH_BIT1*%
X160020000Y-88646000D02*
X159655000Y-88281000D01*
X158115000Y-94361000D02*
X160020000Y-92456000D01*
X159655000Y-88281000D02*
X158496000Y-88281000D01*
X160020000Y-92456000D02*
X160020000Y-88646000D01*
D31*
X158496000Y-84836000D02*
X158496000Y-88281000D01*
%TO.N,/Microcontroller/EXT_MIDI_CH_BIT2*%
X155194000Y-86995000D02*
X155194000Y-88281000D01*
X155956000Y-86233000D02*
X155194000Y-86995000D01*
X155956000Y-84836000D02*
X155956000Y-86233000D01*
%TO.N,/Microcontroller/EXT_MIDI_CH_BIT3*%
X153416000Y-85852000D02*
X151892000Y-87376000D01*
X151892000Y-87376000D02*
X151892000Y-88281000D01*
X153416000Y-84836000D02*
X153416000Y-85852000D01*
%TO.N,/Microcontroller/EXT_MIDI_CH_BIT4*%
X150876000Y-84836000D02*
X149479000Y-84836000D01*
X149479000Y-84836000D02*
X148590000Y-85725000D01*
X148590000Y-85725000D02*
X148590000Y-88281000D01*
%TD*%
%TA.AperFunction,Conductor*%
%TO.N,GND*%
G36*
X161206721Y-62402402D02*
G01*
X161253214Y-62456058D01*
X161264600Y-62508400D01*
X161264600Y-115672068D01*
X161244598Y-115740189D01*
X161190942Y-115786682D01*
X161120668Y-115796786D01*
X161056088Y-115767292D01*
X161022191Y-115720286D01*
X161003935Y-115676211D01*
X161003933Y-115676207D01*
X161002040Y-115671637D01*
X160962570Y-115607228D01*
X160880559Y-115473398D01*
X160880555Y-115473392D01*
X160877976Y-115469184D01*
X160723769Y-115288631D01*
X160709998Y-115276869D01*
X160600339Y-115183212D01*
X160543216Y-115134424D01*
X160424403Y-115061615D01*
X160376772Y-115008967D01*
X160364530Y-114945612D01*
X160366009Y-114923924D01*
X160366009Y-114923920D01*
X160366525Y-114916348D01*
X160355538Y-114853397D01*
X160354576Y-114846875D01*
X160346902Y-114783458D01*
X160344219Y-114776357D01*
X160343578Y-114773748D01*
X160339115Y-114757438D01*
X160338350Y-114754902D01*
X160337043Y-114747416D01*
X160311356Y-114688900D01*
X160308865Y-114682796D01*
X160288973Y-114630152D01*
X160288972Y-114630151D01*
X160286287Y-114623044D01*
X160281983Y-114616781D01*
X160280746Y-114614415D01*
X160272501Y-114599603D01*
X160271168Y-114597349D01*
X160268115Y-114590395D01*
X160229213Y-114539698D01*
X160225341Y-114534368D01*
X160193461Y-114487980D01*
X160193456Y-114487975D01*
X160189157Y-114481719D01*
X160142629Y-114440264D01*
X160137354Y-114435284D01*
X159574205Y-113872135D01*
X159540179Y-113809823D01*
X159537300Y-113783040D01*
X159537300Y-113215800D01*
X159531567Y-113160543D01*
X159527038Y-113116892D01*
X159527037Y-113116888D01*
X159526326Y-113110034D01*
X159505673Y-113048128D01*
X159472668Y-112949202D01*
X159470350Y-112942254D01*
X159377278Y-112791852D01*
X159252103Y-112666895D01*
X159245872Y-112663054D01*
X159107768Y-112577925D01*
X159107766Y-112577924D01*
X159101538Y-112574085D01*
X159012634Y-112544597D01*
X158940189Y-112520568D01*
X158940187Y-112520568D01*
X158933661Y-112518403D01*
X158926825Y-112517703D01*
X158926822Y-112517702D01*
X158883769Y-112513291D01*
X158829200Y-112507700D01*
X158053400Y-112507700D01*
X158050154Y-112508037D01*
X158050150Y-112508037D01*
X157954492Y-112517962D01*
X157954488Y-112517963D01*
X157947634Y-112518674D01*
X157941098Y-112520855D01*
X157941096Y-112520855D01*
X157867967Y-112545253D01*
X157779854Y-112574650D01*
X157629452Y-112667722D01*
X157504495Y-112792897D01*
X157501698Y-112797435D01*
X157444447Y-112838024D01*
X157373524Y-112841254D01*
X157312113Y-112805628D01*
X157304738Y-112797132D01*
X157296702Y-112786993D01*
X157181971Y-112672461D01*
X157170560Y-112663449D01*
X157032557Y-112578384D01*
X157019376Y-112572237D01*
X156865090Y-112521062D01*
X156851714Y-112518195D01*
X156757362Y-112508528D01*
X156750945Y-112508200D01*
X156638415Y-112508200D01*
X156623176Y-112512675D01*
X156621971Y-112514065D01*
X156620300Y-112521748D01*
X156620300Y-114956084D01*
X156624775Y-114971323D01*
X156626165Y-114972528D01*
X156633848Y-114974199D01*
X156750895Y-114974199D01*
X156757414Y-114973862D01*
X156853006Y-114963943D01*
X156866400Y-114961051D01*
X157020584Y-114909612D01*
X157033762Y-114903439D01*
X157171607Y-114818137D01*
X157183008Y-114809101D01*
X157297538Y-114694372D01*
X157304594Y-114685438D01*
X157362512Y-114644377D01*
X157433435Y-114641147D01*
X157494846Y-114676774D01*
X157501646Y-114684607D01*
X157505322Y-114690548D01*
X157630497Y-114815505D01*
X157636727Y-114819345D01*
X157636728Y-114819346D01*
X157773152Y-114903439D01*
X157781062Y-114908315D01*
X157828122Y-114923924D01*
X157942411Y-114961832D01*
X157942413Y-114961832D01*
X157948939Y-114963997D01*
X157955775Y-114964697D01*
X157955778Y-114964698D01*
X157998831Y-114969109D01*
X158053400Y-114974700D01*
X158609859Y-114974700D01*
X158677980Y-114994702D01*
X158724473Y-115048358D01*
X158734577Y-115118632D01*
X158705083Y-115183212D01*
X158691689Y-115196511D01*
X158587592Y-115285418D01*
X158587587Y-115285423D01*
X158583831Y-115288631D01*
X158429624Y-115469184D01*
X158427045Y-115473392D01*
X158427041Y-115473398D01*
X158345030Y-115607228D01*
X158305560Y-115671637D01*
X158303667Y-115676207D01*
X158303665Y-115676211D01*
X158239302Y-115831598D01*
X158214695Y-115891006D01*
X158213540Y-115895818D01*
X158170364Y-116075660D01*
X158159265Y-116121889D01*
X158140635Y-116358600D01*
X158159265Y-116595311D01*
X158160419Y-116600118D01*
X158160420Y-116600124D01*
X158191937Y-116731399D01*
X158214695Y-116826194D01*
X158216588Y-116830765D01*
X158216589Y-116830767D01*
X158303572Y-117040763D01*
X158305560Y-117045563D01*
X158308146Y-117049783D01*
X158427041Y-117243802D01*
X158427045Y-117243808D01*
X158429624Y-117248016D01*
X158583831Y-117428569D01*
X158764384Y-117582776D01*
X158768597Y-117585358D01*
X158768607Y-117585365D01*
X158885135Y-117656774D01*
X158932766Y-117709421D01*
X158945300Y-117764206D01*
X158945300Y-119449300D01*
X158925298Y-119517421D01*
X158871642Y-119563914D01*
X158819300Y-119575300D01*
X157713460Y-119575300D01*
X157645339Y-119555298D01*
X157624365Y-119538395D01*
X155923683Y-117837713D01*
X155889657Y-117775401D01*
X155894722Y-117704586D01*
X155937269Y-117647750D01*
X155946942Y-117641186D01*
X156012246Y-117601167D01*
X156021707Y-117590710D01*
X156017924Y-117581934D01*
X154795722Y-116359732D01*
X155518208Y-116359732D01*
X155518339Y-116361565D01*
X155522590Y-116368180D01*
X156374090Y-117219680D01*
X156386470Y-117226440D01*
X156394120Y-117220713D01*
X156499005Y-117049558D01*
X156503487Y-117040763D01*
X156590534Y-116830612D01*
X156593583Y-116821227D01*
X156646685Y-116600046D01*
X156648228Y-116590299D01*
X156666075Y-116363530D01*
X156666075Y-116353670D01*
X156648228Y-116126901D01*
X156646685Y-116117154D01*
X156593583Y-115895973D01*
X156590534Y-115886588D01*
X156503487Y-115676437D01*
X156499005Y-115667642D01*
X156396368Y-115500155D01*
X156385910Y-115490693D01*
X156377134Y-115494476D01*
X155525822Y-116345788D01*
X155518208Y-116359732D01*
X154795722Y-116359732D01*
X153933510Y-115497520D01*
X153921130Y-115490760D01*
X153913480Y-115496487D01*
X153808595Y-115667642D01*
X153804113Y-115676437D01*
X153717066Y-115886588D01*
X153714017Y-115895973D01*
X153660915Y-116117154D01*
X153659372Y-116126901D01*
X153641525Y-116353670D01*
X153641525Y-116363530D01*
X153659372Y-116590299D01*
X153660915Y-116600046D01*
X153714017Y-116821227D01*
X153717066Y-116830612D01*
X153804113Y-117040763D01*
X153808595Y-117049558D01*
X153879133Y-117164665D01*
X153897672Y-117233198D01*
X153876216Y-117300875D01*
X153821577Y-117346208D01*
X153771701Y-117356500D01*
X153099700Y-117356500D01*
X153031579Y-117336498D01*
X152985086Y-117282842D01*
X152973700Y-117230500D01*
X152973700Y-116816866D01*
X152966945Y-116754684D01*
X152915815Y-116618295D01*
X152828874Y-116502290D01*
X152804026Y-116435784D01*
X152803700Y-116426725D01*
X152803700Y-115675112D01*
X152803992Y-115666542D01*
X152807409Y-115616424D01*
X152807409Y-115616420D01*
X152807925Y-115608848D01*
X152796939Y-115545903D01*
X152795977Y-115539382D01*
X152789215Y-115483504D01*
X152788302Y-115475958D01*
X152785616Y-115468850D01*
X152784979Y-115466256D01*
X152780518Y-115449950D01*
X152779748Y-115447399D01*
X152778442Y-115439916D01*
X152775390Y-115432963D01*
X152752761Y-115381412D01*
X152750269Y-115375305D01*
X152730373Y-115322652D01*
X152730373Y-115322651D01*
X152727687Y-115315544D01*
X152723384Y-115309283D01*
X152722147Y-115306917D01*
X152713920Y-115292137D01*
X152712569Y-115289852D01*
X152709515Y-115282895D01*
X152704895Y-115276875D01*
X152704892Y-115276869D01*
X152670621Y-115232209D01*
X152666741Y-115226868D01*
X152634861Y-115180480D01*
X152634856Y-115180475D01*
X152630557Y-115174219D01*
X152584029Y-115132764D01*
X152578754Y-115127784D01*
X152577460Y-115126490D01*
X154285893Y-115126490D01*
X154289676Y-115135266D01*
X155140988Y-115986578D01*
X155154932Y-115994192D01*
X155156765Y-115994061D01*
X155163380Y-115989810D01*
X156014880Y-115138310D01*
X156022494Y-115124366D01*
X156020693Y-115099186D01*
X156035784Y-115029812D01*
X156085986Y-114979609D01*
X156109188Y-114969998D01*
X156110629Y-114968335D01*
X156112300Y-114960652D01*
X156112300Y-114013315D01*
X156107825Y-113998076D01*
X156106435Y-113996871D01*
X156098752Y-113995200D01*
X155288916Y-113995200D01*
X155273677Y-113999675D01*
X155272472Y-114001065D01*
X155270801Y-114008748D01*
X155270801Y-114263295D01*
X155271138Y-114269814D01*
X155281057Y-114365406D01*
X155283949Y-114378800D01*
X155335388Y-114532984D01*
X155341559Y-114546158D01*
X155415346Y-114665394D01*
X155434184Y-114733846D01*
X155413023Y-114801616D01*
X155358583Y-114847187D01*
X155298317Y-114857310D01*
X155158731Y-114846325D01*
X155148870Y-114846325D01*
X154922101Y-114864172D01*
X154912354Y-114865715D01*
X154691173Y-114918817D01*
X154681788Y-114921866D01*
X154471637Y-115008913D01*
X154462842Y-115013395D01*
X154295355Y-115116032D01*
X154285893Y-115126490D01*
X152577460Y-115126490D01*
X152286450Y-114835480D01*
X152280596Y-114829215D01*
X152263049Y-114809101D01*
X152242561Y-114785615D01*
X152190280Y-114748871D01*
X152184986Y-114744939D01*
X152140693Y-114710209D01*
X152134718Y-114705524D01*
X152127802Y-114702401D01*
X152125516Y-114701017D01*
X152110835Y-114692643D01*
X152108475Y-114691378D01*
X152102261Y-114687010D01*
X152095182Y-114684250D01*
X152095180Y-114684249D01*
X152042725Y-114663798D01*
X152036656Y-114661247D01*
X151978427Y-114634955D01*
X151970960Y-114633571D01*
X151968405Y-114632770D01*
X151952152Y-114628141D01*
X151949572Y-114627478D01*
X151942491Y-114624718D01*
X151934960Y-114623727D01*
X151934958Y-114623726D01*
X151905339Y-114619827D01*
X151879139Y-114616378D01*
X151872641Y-114615348D01*
X151809814Y-114603704D01*
X151802234Y-114604141D01*
X151802233Y-114604141D01*
X151747608Y-114607291D01*
X151740354Y-114607500D01*
X145125660Y-114607500D01*
X145057539Y-114587498D01*
X145036565Y-114570595D01*
X143935055Y-113469085D01*
X155270800Y-113469085D01*
X155275275Y-113484324D01*
X155276665Y-113485529D01*
X155284348Y-113487200D01*
X156094185Y-113487200D01*
X156109424Y-113482725D01*
X156110629Y-113481335D01*
X156112300Y-113473652D01*
X156112300Y-112526316D01*
X156107825Y-112511077D01*
X156106435Y-112509872D01*
X156098752Y-112508201D01*
X155981705Y-112508201D01*
X155975186Y-112508538D01*
X155879594Y-112518457D01*
X155866200Y-112521349D01*
X155712016Y-112572788D01*
X155698838Y-112578961D01*
X155560993Y-112664263D01*
X155549592Y-112673299D01*
X155435061Y-112788029D01*
X155426049Y-112799440D01*
X155340984Y-112937443D01*
X155334837Y-112950624D01*
X155283662Y-113104910D01*
X155280795Y-113118286D01*
X155271128Y-113212638D01*
X155270800Y-113219055D01*
X155270800Y-113469085D01*
X143935055Y-113469085D01*
X143239405Y-112773435D01*
X143205379Y-112711123D01*
X143202500Y-112684340D01*
X143202500Y-109316641D01*
X143222502Y-109248520D01*
X143276158Y-109202027D01*
X143346432Y-109191923D01*
X143406244Y-109217486D01*
X143452782Y-109253976D01*
X143459698Y-109257098D01*
X143461984Y-109258483D01*
X143476665Y-109266857D01*
X143479025Y-109268122D01*
X143485239Y-109272490D01*
X143492318Y-109275250D01*
X143492320Y-109275251D01*
X143544775Y-109295702D01*
X143550844Y-109298253D01*
X143609073Y-109324545D01*
X143616540Y-109325929D01*
X143619095Y-109326730D01*
X143635348Y-109331359D01*
X143637928Y-109332022D01*
X143645009Y-109334782D01*
X143652540Y-109335773D01*
X143652542Y-109335774D01*
X143682161Y-109339673D01*
X143708361Y-109343122D01*
X143714859Y-109344152D01*
X143777686Y-109355796D01*
X143785266Y-109355359D01*
X143785267Y-109355359D01*
X143839892Y-109352209D01*
X143847146Y-109352000D01*
X148822025Y-109352000D01*
X148890146Y-109372002D01*
X148929458Y-109412165D01*
X148951778Y-109448588D01*
X149098041Y-109617438D01*
X149269917Y-109760132D01*
X149303763Y-109779910D01*
X149343236Y-109802976D01*
X149391960Y-109854614D01*
X149405031Y-109924397D01*
X149378300Y-109990169D01*
X149337846Y-110023527D01*
X149325398Y-110030007D01*
X149321265Y-110033110D01*
X149321262Y-110033112D01*
X149150891Y-110161030D01*
X149146756Y-110164135D01*
X149116883Y-110195395D01*
X148997382Y-110320446D01*
X148992420Y-110325638D01*
X148989506Y-110329910D01*
X148989505Y-110329911D01*
X148978058Y-110346692D01*
X148866534Y-110510180D01*
X148772479Y-110712805D01*
X148712780Y-110928070D01*
X148689042Y-111150195D01*
X148689339Y-111155348D01*
X148689339Y-111155351D01*
X148700317Y-111345749D01*
X148701901Y-111373215D01*
X148703038Y-111378261D01*
X148703039Y-111378267D01*
X148722910Y-111466439D01*
X148751013Y-111591139D01*
X148789252Y-111685311D01*
X148823415Y-111769444D01*
X148835057Y-111798116D01*
X148865196Y-111847299D01*
X148946762Y-111980402D01*
X148951778Y-111988588D01*
X149098041Y-112157438D01*
X149269917Y-112300132D01*
X149462791Y-112412838D01*
X149467616Y-112414680D01*
X149467617Y-112414681D01*
X149495211Y-112425218D01*
X149671483Y-112492530D01*
X149676551Y-112493561D01*
X149676554Y-112493562D01*
X149750115Y-112508528D01*
X149890388Y-112537067D01*
X149895563Y-112537257D01*
X149895565Y-112537257D01*
X150108464Y-112545064D01*
X150108468Y-112545064D01*
X150113628Y-112545253D01*
X150118748Y-112544597D01*
X150118750Y-112544597D01*
X150330079Y-112517525D01*
X150330080Y-112517525D01*
X150335207Y-112516868D01*
X150349580Y-112512556D01*
X150544220Y-112454161D01*
X150544225Y-112454159D01*
X150549175Y-112452674D01*
X150749785Y-112354396D01*
X150931651Y-112224673D01*
X150937773Y-112218573D01*
X151086226Y-112070637D01*
X151089887Y-112066989D01*
X151096165Y-112058253D01*
X151217226Y-111889777D01*
X151220244Y-111885577D01*
X151274615Y-111775566D01*
X151316927Y-111689953D01*
X151316928Y-111689951D01*
X151319221Y-111685311D01*
X151373178Y-111507718D01*
X151382656Y-111476523D01*
X151382656Y-111476521D01*
X151384161Y-111471569D01*
X151413320Y-111250090D01*
X151414947Y-111183500D01*
X151396643Y-110960861D01*
X151342222Y-110744202D01*
X151253145Y-110539340D01*
X151163591Y-110400910D01*
X151134613Y-110356117D01*
X151134611Y-110356114D01*
X151131805Y-110351777D01*
X150981461Y-110186551D01*
X150977410Y-110183352D01*
X150977406Y-110183348D01*
X150810205Y-110051300D01*
X150810201Y-110051298D01*
X150806150Y-110048098D01*
X150764844Y-110025296D01*
X150714875Y-109974864D01*
X150700103Y-109905421D01*
X150725219Y-109839016D01*
X150752571Y-109812409D01*
X150810767Y-109770898D01*
X150931651Y-109684673D01*
X151089887Y-109526989D01*
X151220244Y-109345577D01*
X151224537Y-109336892D01*
X151316927Y-109149953D01*
X151316928Y-109149951D01*
X151319221Y-109145311D01*
X151359202Y-109013717D01*
X151382656Y-108936523D01*
X151382656Y-108936521D01*
X151384161Y-108931569D01*
X151413320Y-108710090D01*
X151414947Y-108643500D01*
X151396643Y-108420861D01*
X151342222Y-108204202D01*
X151253145Y-107999340D01*
X151207891Y-107929388D01*
X151134613Y-107816117D01*
X151134611Y-107816114D01*
X151131805Y-107811777D01*
X151128331Y-107807959D01*
X151128324Y-107807950D01*
X150984226Y-107649588D01*
X150953174Y-107585742D01*
X150961570Y-107515244D01*
X151006747Y-107460476D01*
X151033191Y-107446807D01*
X151139843Y-107406825D01*
X151155440Y-107398286D01*
X151257515Y-107321785D01*
X151270076Y-107309224D01*
X151346577Y-107207149D01*
X151355115Y-107191554D01*
X151400269Y-107071106D01*
X151403896Y-107055851D01*
X151409422Y-107004986D01*
X151409791Y-106998172D01*
X151409791Y-106375615D01*
X151405316Y-106360376D01*
X151403926Y-106359171D01*
X151396243Y-106357500D01*
X148711907Y-106357500D01*
X148696668Y-106361975D01*
X148695463Y-106363365D01*
X148693792Y-106371048D01*
X148693792Y-106998169D01*
X148694162Y-107004990D01*
X148699686Y-107055852D01*
X148703312Y-107071104D01*
X148748467Y-107191554D01*
X148757005Y-107207149D01*
X148833506Y-107309224D01*
X148846067Y-107321785D01*
X148948142Y-107398286D01*
X148963737Y-107406824D01*
X149072618Y-107447642D01*
X149129382Y-107490284D01*
X149154082Y-107556845D01*
X149138874Y-107626194D01*
X149119482Y-107652675D01*
X148995991Y-107781901D01*
X148992420Y-107785638D01*
X148989506Y-107789910D01*
X148989505Y-107789911D01*
X148928048Y-107880004D01*
X148873137Y-107925007D01*
X148823960Y-107935000D01*
X144168160Y-107935000D01*
X144100039Y-107914998D01*
X144079065Y-107898095D01*
X142395405Y-106214435D01*
X142361379Y-106152123D01*
X142358500Y-106125340D01*
X142358500Y-105831385D01*
X148693791Y-105831385D01*
X148698266Y-105846624D01*
X148699656Y-105847829D01*
X148707339Y-105849500D01*
X149779676Y-105849500D01*
X149794915Y-105845025D01*
X149796120Y-105843635D01*
X149797791Y-105835952D01*
X149797791Y-105831385D01*
X150305791Y-105831385D01*
X150310266Y-105846624D01*
X150311656Y-105847829D01*
X150319339Y-105849500D01*
X151391675Y-105849500D01*
X151406914Y-105845025D01*
X151408119Y-105843635D01*
X151409790Y-105835952D01*
X151409790Y-105208831D01*
X151409420Y-105202010D01*
X151403896Y-105151148D01*
X151400270Y-105135896D01*
X151355115Y-105015446D01*
X151346577Y-104999851D01*
X151270076Y-104897776D01*
X151257515Y-104885215D01*
X151155440Y-104808714D01*
X151139845Y-104800176D01*
X151019397Y-104755022D01*
X151004142Y-104751395D01*
X150953277Y-104745869D01*
X150946463Y-104745500D01*
X150323906Y-104745500D01*
X150308667Y-104749975D01*
X150307462Y-104751365D01*
X150305791Y-104759048D01*
X150305791Y-105831385D01*
X149797791Y-105831385D01*
X149797791Y-104763616D01*
X149793316Y-104748377D01*
X149791926Y-104747172D01*
X149784243Y-104745501D01*
X149157122Y-104745501D01*
X149150301Y-104745871D01*
X149099439Y-104751395D01*
X149084187Y-104755021D01*
X148963737Y-104800176D01*
X148948142Y-104808714D01*
X148846067Y-104885215D01*
X148833506Y-104897776D01*
X148757005Y-104999851D01*
X148748467Y-105015446D01*
X148703313Y-105135894D01*
X148699686Y-105151149D01*
X148694160Y-105202014D01*
X148693791Y-105208828D01*
X148693791Y-105831385D01*
X142358500Y-105831385D01*
X142358500Y-104790497D01*
X142358499Y-104790493D01*
X142358499Y-104156116D01*
X142342838Y-104037150D01*
X142299851Y-103933369D01*
X142284684Y-103896752D01*
X142284683Y-103896750D01*
X142281524Y-103889124D01*
X142190442Y-103770425D01*
X142189014Y-103768564D01*
X142189013Y-103768563D01*
X142183987Y-103762013D01*
X142177437Y-103756987D01*
X142177434Y-103756984D01*
X142092549Y-103691850D01*
X142056875Y-103664476D01*
X141908850Y-103603162D01*
X141818052Y-103591208D01*
X141753127Y-103562487D01*
X141714035Y-103503222D01*
X141708500Y-103466287D01*
X141708500Y-103185660D01*
X141728502Y-103117539D01*
X141745405Y-103096565D01*
X144020566Y-100821405D01*
X144082878Y-100787379D01*
X144109661Y-100784500D01*
X151736088Y-100784500D01*
X151744658Y-100784792D01*
X151794776Y-100788209D01*
X151794780Y-100788209D01*
X151802352Y-100788725D01*
X151809829Y-100787420D01*
X151809830Y-100787420D01*
X151836308Y-100782799D01*
X151865303Y-100777738D01*
X151871821Y-100776777D01*
X151935242Y-100769102D01*
X151942343Y-100766419D01*
X151944952Y-100765778D01*
X151961262Y-100761315D01*
X151963798Y-100760550D01*
X151971284Y-100759243D01*
X152029800Y-100733556D01*
X152035904Y-100731065D01*
X152088548Y-100711173D01*
X152088549Y-100711172D01*
X152095656Y-100708487D01*
X152101919Y-100704183D01*
X152104285Y-100702946D01*
X152119097Y-100694701D01*
X152121351Y-100693368D01*
X152128305Y-100690315D01*
X152179002Y-100651413D01*
X152184332Y-100647541D01*
X152230720Y-100615661D01*
X152230725Y-100615656D01*
X152236981Y-100611357D01*
X152278436Y-100564829D01*
X152283416Y-100559554D01*
X157325520Y-95517450D01*
X157331785Y-95511596D01*
X157355226Y-95491147D01*
X157375385Y-95473561D01*
X157412129Y-95421280D01*
X157416061Y-95415986D01*
X157450791Y-95371693D01*
X157455476Y-95365718D01*
X157458599Y-95358802D01*
X157459983Y-95356516D01*
X157468357Y-95341835D01*
X157469622Y-95339475D01*
X157473990Y-95333261D01*
X157497203Y-95273723D01*
X157499759Y-95267642D01*
X157516849Y-95229794D01*
X157518139Y-95226937D01*
X157564401Y-95173084D01*
X157632435Y-95152791D01*
X157684222Y-95163683D01*
X157826677Y-95227108D01*
X157826685Y-95227111D01*
X157832712Y-95229794D01*
X157926113Y-95249647D01*
X158013056Y-95268128D01*
X158013061Y-95268128D01*
X158019513Y-95269500D01*
X158210487Y-95269500D01*
X158216939Y-95268128D01*
X158216944Y-95268128D01*
X158303887Y-95249647D01*
X158397288Y-95229794D01*
X158403703Y-95226938D01*
X158565722Y-95154803D01*
X158565724Y-95154802D01*
X158571752Y-95152118D01*
X158601375Y-95130596D01*
X158685465Y-95069500D01*
X158726253Y-95039866D01*
X158770528Y-94990694D01*
X158849621Y-94902852D01*
X158849622Y-94902851D01*
X158854040Y-94897944D01*
X158919270Y-94784962D01*
X158946223Y-94738279D01*
X158946224Y-94738278D01*
X158949527Y-94732556D01*
X158993377Y-94597602D01*
X159006502Y-94557207D01*
X159006502Y-94557205D01*
X159008542Y-94550928D01*
X159013450Y-94504230D01*
X159040463Y-94438573D01*
X159049665Y-94428305D01*
X160500520Y-92977450D01*
X160506785Y-92971596D01*
X160544660Y-92938555D01*
X160550385Y-92933561D01*
X160587114Y-92881300D01*
X160591046Y-92876005D01*
X160625791Y-92831694D01*
X160630477Y-92825718D01*
X160633602Y-92818796D01*
X160634964Y-92816548D01*
X160643368Y-92801815D01*
X160644622Y-92799476D01*
X160648990Y-92793261D01*
X160651749Y-92786185D01*
X160651751Y-92786181D01*
X160672200Y-92733731D01*
X160674749Y-92727666D01*
X160701045Y-92669427D01*
X160702429Y-92661962D01*
X160703226Y-92659418D01*
X160707859Y-92643152D01*
X160708521Y-92640572D01*
X160711282Y-92633491D01*
X160719622Y-92570143D01*
X160720653Y-92563629D01*
X160732296Y-92500813D01*
X160728709Y-92438607D01*
X160728500Y-92431353D01*
X160728500Y-88674912D01*
X160728792Y-88666342D01*
X160732209Y-88616224D01*
X160732209Y-88616220D01*
X160732725Y-88608648D01*
X160721738Y-88545697D01*
X160720776Y-88539175D01*
X160714014Y-88483298D01*
X160713102Y-88475758D01*
X160710419Y-88468657D01*
X160709778Y-88466048D01*
X160705315Y-88449738D01*
X160704550Y-88447202D01*
X160703243Y-88439716D01*
X160677556Y-88381200D01*
X160675065Y-88375096D01*
X160655173Y-88322452D01*
X160655172Y-88322451D01*
X160652487Y-88315344D01*
X160648183Y-88309081D01*
X160646946Y-88306715D01*
X160638701Y-88291903D01*
X160637368Y-88289649D01*
X160634315Y-88282695D01*
X160595413Y-88231998D01*
X160591541Y-88226668D01*
X160559661Y-88180280D01*
X160559656Y-88180275D01*
X160555357Y-88174019D01*
X160529470Y-88150954D01*
X160508830Y-88132565D01*
X160503554Y-88127584D01*
X160176450Y-87800480D01*
X160170596Y-87794215D01*
X160149132Y-87769611D01*
X160132561Y-87750615D01*
X160080280Y-87713871D01*
X160074986Y-87709939D01*
X160030693Y-87675209D01*
X160024718Y-87670524D01*
X160017802Y-87667401D01*
X160015516Y-87666017D01*
X160000835Y-87657643D01*
X159998475Y-87656378D01*
X159992261Y-87652010D01*
X159985182Y-87649250D01*
X159985180Y-87649249D01*
X159932725Y-87628798D01*
X159926656Y-87626247D01*
X159868427Y-87599955D01*
X159860960Y-87598571D01*
X159858405Y-87597770D01*
X159842152Y-87593141D01*
X159839572Y-87592478D01*
X159832491Y-87589718D01*
X159824960Y-87588727D01*
X159824958Y-87588726D01*
X159795339Y-87584827D01*
X159769139Y-87581378D01*
X159762641Y-87580348D01*
X159699814Y-87568704D01*
X159692232Y-87569141D01*
X159692228Y-87569141D01*
X159691688Y-87569172D01*
X159691303Y-87569083D01*
X159684649Y-87568664D01*
X159684719Y-87567555D01*
X159622529Y-87553123D01*
X159577297Y-87509687D01*
X159544478Y-87456652D01*
X159539295Y-87451478D01*
X159534751Y-87445745D01*
X159536424Y-87444419D01*
X159507402Y-87391375D01*
X159504500Y-87364489D01*
X159504500Y-85716740D01*
X159527287Y-85644469D01*
X159547156Y-85616093D01*
X159633523Y-85492749D01*
X159635846Y-85487767D01*
X159635849Y-85487762D01*
X159727961Y-85290225D01*
X159727961Y-85290224D01*
X159730284Y-85285243D01*
X159741270Y-85244245D01*
X159788119Y-85069402D01*
X159788119Y-85069400D01*
X159789543Y-85064087D01*
X159809498Y-84836000D01*
X159789543Y-84607913D01*
X159730284Y-84386757D01*
X159651805Y-84218457D01*
X159635849Y-84184238D01*
X159635846Y-84184233D01*
X159633523Y-84179251D01*
X159502198Y-83991700D01*
X159340300Y-83829802D01*
X159335792Y-83826645D01*
X159335789Y-83826643D01*
X159257611Y-83771902D01*
X159152749Y-83698477D01*
X159147767Y-83696154D01*
X159147762Y-83696151D01*
X158950225Y-83604039D01*
X158950224Y-83604039D01*
X158945243Y-83601716D01*
X158939935Y-83600294D01*
X158939933Y-83600293D01*
X158729402Y-83543881D01*
X158729400Y-83543881D01*
X158724087Y-83542457D01*
X158496000Y-83522502D01*
X158267913Y-83542457D01*
X158262600Y-83543881D01*
X158262598Y-83543881D01*
X158052067Y-83600293D01*
X158052065Y-83600294D01*
X158046757Y-83601716D01*
X158041776Y-83604039D01*
X158041775Y-83604039D01*
X157844238Y-83696151D01*
X157844233Y-83696154D01*
X157839251Y-83698477D01*
X157734389Y-83771902D01*
X157656211Y-83826643D01*
X157656208Y-83826645D01*
X157651700Y-83829802D01*
X157489802Y-83991700D01*
X157358477Y-84179251D01*
X157356154Y-84184233D01*
X157356151Y-84184238D01*
X157340195Y-84218457D01*
X157293278Y-84271742D01*
X157225001Y-84291203D01*
X157157041Y-84270661D01*
X157111805Y-84218457D01*
X157095849Y-84184238D01*
X157095846Y-84184233D01*
X157093523Y-84179251D01*
X156962198Y-83991700D01*
X156800300Y-83829802D01*
X156795792Y-83826645D01*
X156795789Y-83826643D01*
X156717611Y-83771902D01*
X156612749Y-83698477D01*
X156607767Y-83696154D01*
X156607762Y-83696151D01*
X156410225Y-83604039D01*
X156410224Y-83604039D01*
X156405243Y-83601716D01*
X156399935Y-83600294D01*
X156399933Y-83600293D01*
X156189402Y-83543881D01*
X156189400Y-83543881D01*
X156184087Y-83542457D01*
X155956000Y-83522502D01*
X155727913Y-83542457D01*
X155722600Y-83543881D01*
X155722598Y-83543881D01*
X155512067Y-83600293D01*
X155512065Y-83600294D01*
X155506757Y-83601716D01*
X155501776Y-83604039D01*
X155501775Y-83604039D01*
X155304238Y-83696151D01*
X155304233Y-83696154D01*
X155299251Y-83698477D01*
X155194389Y-83771902D01*
X155116211Y-83826643D01*
X155116208Y-83826645D01*
X155111700Y-83829802D01*
X154949802Y-83991700D01*
X154818477Y-84179251D01*
X154816154Y-84184233D01*
X154816151Y-84184238D01*
X154800195Y-84218457D01*
X154753278Y-84271742D01*
X154685001Y-84291203D01*
X154617041Y-84270661D01*
X154571805Y-84218457D01*
X154555849Y-84184238D01*
X154555846Y-84184233D01*
X154553523Y-84179251D01*
X154422198Y-83991700D01*
X154260300Y-83829802D01*
X154255792Y-83826645D01*
X154255789Y-83826643D01*
X154177611Y-83771902D01*
X154072749Y-83698477D01*
X154067767Y-83696154D01*
X154067762Y-83696151D01*
X153870225Y-83604039D01*
X153870224Y-83604039D01*
X153865243Y-83601716D01*
X153859935Y-83600294D01*
X153859933Y-83600293D01*
X153649402Y-83543881D01*
X153649400Y-83543881D01*
X153644087Y-83542457D01*
X153416000Y-83522502D01*
X153187913Y-83542457D01*
X153182600Y-83543881D01*
X153182598Y-83543881D01*
X152972067Y-83600293D01*
X152972065Y-83600294D01*
X152966757Y-83601716D01*
X152961776Y-83604039D01*
X152961775Y-83604039D01*
X152764238Y-83696151D01*
X152764233Y-83696154D01*
X152759251Y-83698477D01*
X152654389Y-83771902D01*
X152576211Y-83826643D01*
X152576208Y-83826645D01*
X152571700Y-83829802D01*
X152409802Y-83991700D01*
X152278477Y-84179251D01*
X152276154Y-84184233D01*
X152276151Y-84184238D01*
X152260195Y-84218457D01*
X152213278Y-84271742D01*
X152145001Y-84291203D01*
X152077041Y-84270661D01*
X152031805Y-84218457D01*
X152015849Y-84184238D01*
X152015846Y-84184233D01*
X152013523Y-84179251D01*
X151882198Y-83991700D01*
X151720300Y-83829802D01*
X151715792Y-83826645D01*
X151715789Y-83826643D01*
X151637611Y-83771902D01*
X151532749Y-83698477D01*
X151527767Y-83696154D01*
X151527762Y-83696151D01*
X151330225Y-83604039D01*
X151330224Y-83604039D01*
X151325243Y-83601716D01*
X151319935Y-83600294D01*
X151319933Y-83600293D01*
X151109402Y-83543881D01*
X151109400Y-83543881D01*
X151104087Y-83542457D01*
X150876000Y-83522502D01*
X150647913Y-83542457D01*
X150642600Y-83543881D01*
X150642598Y-83543881D01*
X150432067Y-83600293D01*
X150432065Y-83600294D01*
X150426757Y-83601716D01*
X150421776Y-83604039D01*
X150421775Y-83604039D01*
X150224238Y-83696151D01*
X150224233Y-83696154D01*
X150219251Y-83698477D01*
X150076708Y-83798287D01*
X150067531Y-83804713D01*
X149995260Y-83827500D01*
X149540843Y-83827500D01*
X149527236Y-83826763D01*
X149495738Y-83823341D01*
X149495733Y-83823341D01*
X149489612Y-83822676D01*
X149463362Y-83824973D01*
X149439612Y-83827050D01*
X149434786Y-83827379D01*
X149432314Y-83827500D01*
X149429231Y-83827500D01*
X149417262Y-83828674D01*
X149386494Y-83831690D01*
X149385181Y-83831812D01*
X149340916Y-83835685D01*
X149292587Y-83839913D01*
X149287468Y-83841400D01*
X149282167Y-83841920D01*
X149193166Y-83868791D01*
X149192033Y-83869126D01*
X149108586Y-83893370D01*
X149108582Y-83893372D01*
X149102664Y-83895091D01*
X149097932Y-83897544D01*
X149092831Y-83899084D01*
X149087388Y-83901978D01*
X149010740Y-83942731D01*
X149009574Y-83943343D01*
X148932547Y-83983271D01*
X148927074Y-83986108D01*
X148922911Y-83989431D01*
X148918204Y-83991934D01*
X148846082Y-84050755D01*
X148845226Y-84051446D01*
X148806027Y-84082738D01*
X148803523Y-84085242D01*
X148802805Y-84085884D01*
X148798472Y-84089585D01*
X148764938Y-84116935D01*
X148735709Y-84152267D01*
X148727728Y-84161037D01*
X147920617Y-84968149D01*
X147910473Y-84977251D01*
X147880975Y-85000968D01*
X147877008Y-85005696D01*
X147848709Y-85039421D01*
X147845528Y-85043069D01*
X147843885Y-85044881D01*
X147841691Y-85047075D01*
X147814358Y-85080349D01*
X147813696Y-85081147D01*
X147753846Y-85152474D01*
X147751278Y-85157144D01*
X147747897Y-85161261D01*
X147719114Y-85214942D01*
X147704023Y-85243086D01*
X147703394Y-85244245D01*
X147661538Y-85320381D01*
X147661535Y-85320389D01*
X147658567Y-85325787D01*
X147656955Y-85330869D01*
X147654438Y-85335563D01*
X147627238Y-85424531D01*
X147626918Y-85425559D01*
X147598765Y-85514306D01*
X147598171Y-85519602D01*
X147596613Y-85524698D01*
X147588635Y-85603242D01*
X147587218Y-85617187D01*
X147587089Y-85618393D01*
X147581500Y-85668227D01*
X147581500Y-85671754D01*
X147581445Y-85672739D01*
X147580998Y-85678419D01*
X147576626Y-85721462D01*
X147577206Y-85727593D01*
X147580941Y-85767109D01*
X147581500Y-85778967D01*
X147581500Y-87364694D01*
X147561498Y-87432815D01*
X147550317Y-87446702D01*
X147550404Y-87446771D01*
X147545866Y-87452517D01*
X147540695Y-87457697D01*
X147536855Y-87463927D01*
X147536854Y-87463928D01*
X147453006Y-87599955D01*
X147447885Y-87608262D01*
X147441923Y-87626237D01*
X147398771Y-87756338D01*
X147392203Y-87776139D01*
X147381500Y-87880600D01*
X147381500Y-88681400D01*
X147392474Y-88787166D01*
X147448450Y-88954946D01*
X147541522Y-89105348D01*
X147546704Y-89110521D01*
X147628463Y-89192138D01*
X147662542Y-89254421D01*
X147657539Y-89325241D01*
X147628618Y-89370329D01*
X147546261Y-89452829D01*
X147537249Y-89464240D01*
X147452184Y-89602243D01*
X147446037Y-89615424D01*
X147394862Y-89769710D01*
X147391995Y-89783086D01*
X147382328Y-89877438D01*
X147382000Y-89883855D01*
X147382000Y-90008885D01*
X147386475Y-90024124D01*
X147387865Y-90025329D01*
X147395548Y-90027000D01*
X148718000Y-90027000D01*
X148786121Y-90047002D01*
X148832614Y-90100658D01*
X148844000Y-90153000D01*
X148844000Y-91370884D01*
X148848475Y-91386123D01*
X148849865Y-91387328D01*
X148857548Y-91388999D01*
X149087095Y-91388999D01*
X149093614Y-91388662D01*
X149189206Y-91378743D01*
X149202600Y-91375851D01*
X149363732Y-91322094D01*
X149364503Y-91324404D01*
X149423214Y-91315376D01*
X149488079Y-91344238D01*
X149527044Y-91403586D01*
X149532500Y-91440263D01*
X149532500Y-94269339D01*
X149512498Y-94337460D01*
X149495595Y-94358434D01*
X148333435Y-95520595D01*
X148271123Y-95554620D01*
X148244340Y-95557500D01*
X145270660Y-95557500D01*
X145202539Y-95537498D01*
X145156046Y-95483842D01*
X145145942Y-95413568D01*
X145175436Y-95348988D01*
X145181565Y-95342405D01*
X145417565Y-95106405D01*
X145479877Y-95072379D01*
X145506660Y-95069500D01*
X146962595Y-95069500D01*
X147030716Y-95089502D01*
X147036656Y-95093564D01*
X147117248Y-95152118D01*
X147123276Y-95154802D01*
X147123278Y-95154803D01*
X147285297Y-95226938D01*
X147291712Y-95229794D01*
X147385113Y-95249647D01*
X147472056Y-95268128D01*
X147472061Y-95268128D01*
X147478513Y-95269500D01*
X147669487Y-95269500D01*
X147675939Y-95268128D01*
X147675944Y-95268128D01*
X147762887Y-95249647D01*
X147856288Y-95229794D01*
X147862703Y-95226938D01*
X148024722Y-95154803D01*
X148024724Y-95154802D01*
X148030752Y-95152118D01*
X148060375Y-95130596D01*
X148144465Y-95069500D01*
X148185253Y-95039866D01*
X148229528Y-94990694D01*
X148308621Y-94902852D01*
X148308622Y-94902851D01*
X148313040Y-94897944D01*
X148378270Y-94784962D01*
X148405223Y-94738279D01*
X148405224Y-94738278D01*
X148408527Y-94732556D01*
X148467542Y-94550928D01*
X148487504Y-94361000D01*
X148485030Y-94337460D01*
X148468232Y-94177635D01*
X148468232Y-94177633D01*
X148467542Y-94171072D01*
X148408527Y-93989444D01*
X148313040Y-93824056D01*
X148253017Y-93757393D01*
X148189675Y-93687045D01*
X148189674Y-93687044D01*
X148185253Y-93682134D01*
X148030752Y-93569882D01*
X148024724Y-93567198D01*
X148024722Y-93567197D01*
X147862319Y-93494891D01*
X147862318Y-93494891D01*
X147856288Y-93492206D01*
X147762887Y-93472353D01*
X147675944Y-93453872D01*
X147675939Y-93453872D01*
X147669487Y-93452500D01*
X147478513Y-93452500D01*
X147472061Y-93453872D01*
X147472056Y-93453872D01*
X147385112Y-93472353D01*
X147291712Y-93492206D01*
X147285682Y-93494891D01*
X147285681Y-93494891D01*
X147123278Y-93567197D01*
X147123276Y-93567198D01*
X147117248Y-93569882D01*
X147111907Y-93573762D01*
X147111906Y-93573763D01*
X147036656Y-93628436D01*
X146969789Y-93652294D01*
X146962595Y-93652500D01*
X145189927Y-93652500D01*
X145181358Y-93652208D01*
X145131225Y-93648790D01*
X145131221Y-93648790D01*
X145123648Y-93648274D01*
X145060681Y-93659264D01*
X145054169Y-93660224D01*
X144990758Y-93667898D01*
X144983657Y-93670581D01*
X144981048Y-93671222D01*
X144964715Y-93675691D01*
X144962195Y-93676452D01*
X144954717Y-93677757D01*
X144947765Y-93680809D01*
X144947764Y-93680809D01*
X144896204Y-93703441D01*
X144890099Y-93705932D01*
X144837456Y-93725825D01*
X144837452Y-93725827D01*
X144830344Y-93728513D01*
X144824083Y-93732816D01*
X144821717Y-93734053D01*
X144806937Y-93742280D01*
X144804652Y-93743631D01*
X144797695Y-93746685D01*
X144791675Y-93751305D01*
X144791669Y-93751308D01*
X144760542Y-93775194D01*
X144746998Y-93785587D01*
X144741668Y-93789459D01*
X144695280Y-93821339D01*
X144695275Y-93821344D01*
X144689019Y-93825643D01*
X144683968Y-93831313D01*
X144683966Y-93831314D01*
X144647565Y-93872170D01*
X144642584Y-93877446D01*
X137269480Y-101250550D01*
X137263215Y-101256404D01*
X137219615Y-101294439D01*
X137215248Y-101300653D01*
X137182872Y-101346719D01*
X137178939Y-101352014D01*
X137139524Y-101402282D01*
X137136401Y-101409198D01*
X137135017Y-101411484D01*
X137126643Y-101426165D01*
X137125378Y-101428525D01*
X137121010Y-101434739D01*
X137118250Y-101441818D01*
X137118249Y-101441820D01*
X137097798Y-101494275D01*
X137095247Y-101500344D01*
X137068955Y-101558573D01*
X137067571Y-101566040D01*
X137066770Y-101568595D01*
X137062141Y-101584848D01*
X137061478Y-101587428D01*
X137058718Y-101594509D01*
X137057727Y-101602040D01*
X137057726Y-101602042D01*
X137050379Y-101657852D01*
X137049348Y-101664359D01*
X137037704Y-101727186D01*
X137038141Y-101734766D01*
X137038141Y-101734767D01*
X137041291Y-101789392D01*
X137041500Y-101796646D01*
X137041500Y-104876503D01*
X137041501Y-104876507D01*
X137041501Y-105510884D01*
X137057162Y-105629850D01*
X137118476Y-105777876D01*
X137123502Y-105784426D01*
X137172154Y-105847829D01*
X137216013Y-105904987D01*
X137222563Y-105910013D01*
X137222566Y-105910016D01*
X137279569Y-105953756D01*
X137343125Y-106002524D01*
X137491150Y-106063838D01*
X137581948Y-106075792D01*
X137646873Y-106104513D01*
X137685965Y-106163778D01*
X137691500Y-106200713D01*
X137691500Y-107380340D01*
X137671498Y-107448461D01*
X137654595Y-107469435D01*
X134145391Y-110978639D01*
X134083079Y-111012665D01*
X134056296Y-111015544D01*
X133629767Y-111015544D01*
X133587500Y-111008243D01*
X133510746Y-110980912D01*
X133468432Y-110975867D01*
X133438194Y-110972261D01*
X133427036Y-110969945D01*
X133420901Y-110969028D01*
X133412305Y-110966457D01*
X133403331Y-110966402D01*
X133395383Y-110966353D01*
X133381241Y-110965469D01*
X133348771Y-110961598D01*
X133348770Y-110961598D01*
X133341775Y-110960764D01*
X133334772Y-110961500D01*
X133334769Y-110961500D01*
X133301410Y-110965006D01*
X133287473Y-110965694D01*
X133270731Y-110965592D01*
X133270730Y-110965592D01*
X133266794Y-110965568D01*
X133265450Y-110965952D01*
X133264105Y-110966044D01*
X132393544Y-110966044D01*
X132378626Y-110965158D01*
X132370871Y-110964233D01*
X132341775Y-110960764D01*
X132334772Y-110961500D01*
X132334769Y-110961500D01*
X132301410Y-110965006D01*
X132287473Y-110965694D01*
X132279661Y-110965647D01*
X132266794Y-110965568D01*
X132258164Y-110968035D01*
X132254692Y-110968510D01*
X132238864Y-110971580D01*
X132172539Y-110978551D01*
X132165868Y-110980822D01*
X132083618Y-111008822D01*
X132043013Y-111015544D01*
X131280678Y-111015544D01*
X131212557Y-110995542D01*
X131205113Y-110990370D01*
X131156338Y-110953815D01*
X131156336Y-110953814D01*
X131149151Y-110948429D01*
X131012762Y-110897299D01*
X130950580Y-110890544D01*
X129994446Y-110890544D01*
X129926325Y-110870542D01*
X129879832Y-110816886D01*
X129868446Y-110764544D01*
X129868446Y-110501929D01*
X130376446Y-110501929D01*
X130380921Y-110517168D01*
X130382311Y-110518373D01*
X130389994Y-110520044D01*
X131392330Y-110520044D01*
X131407569Y-110515569D01*
X131408774Y-110514179D01*
X131410445Y-110506496D01*
X131410445Y-110404375D01*
X131410075Y-110397554D01*
X131404551Y-110346692D01*
X131400925Y-110331440D01*
X131355770Y-110210990D01*
X131347232Y-110195395D01*
X131270731Y-110093320D01*
X131258170Y-110080759D01*
X131156095Y-110004258D01*
X131140500Y-109995720D01*
X131020052Y-109950566D01*
X131004797Y-109946939D01*
X130953932Y-109941413D01*
X130947118Y-109941044D01*
X130394561Y-109941044D01*
X130379322Y-109945519D01*
X130378117Y-109946909D01*
X130376446Y-109954592D01*
X130376446Y-110501929D01*
X129868446Y-110501929D01*
X129868446Y-109959160D01*
X129863971Y-109943921D01*
X129862581Y-109942716D01*
X129854898Y-109941045D01*
X129297777Y-109941045D01*
X129290956Y-109941415D01*
X129240094Y-109946939D01*
X129224842Y-109950565D01*
X129104392Y-109995720D01*
X129088797Y-110004258D01*
X128986722Y-110080759D01*
X128974161Y-110093320D01*
X128897660Y-110195395D01*
X128884812Y-110218862D01*
X128882557Y-110217627D01*
X128848054Y-110263558D01*
X128781492Y-110288258D01*
X128712143Y-110273051D01*
X128662025Y-110222765D01*
X128658164Y-110214310D01*
X128656213Y-110210746D01*
X128653061Y-110202339D01*
X128565707Y-110085783D01*
X128449151Y-109998429D01*
X128312762Y-109947299D01*
X128250580Y-109940544D01*
X126594312Y-109940544D01*
X126532130Y-109947299D01*
X126504850Y-109957526D01*
X126460620Y-109965544D01*
X125359874Y-109965544D01*
X125291753Y-109945542D01*
X125257951Y-109911156D01*
X125257321Y-109911656D01*
X125252778Y-109905924D01*
X125248924Y-109899696D01*
X125123749Y-109774739D01*
X125117518Y-109770898D01*
X124979414Y-109685769D01*
X124979412Y-109685768D01*
X124973184Y-109681929D01*
X124812700Y-109628699D01*
X124811835Y-109628412D01*
X124811833Y-109628412D01*
X124805307Y-109626247D01*
X124798471Y-109625547D01*
X124798468Y-109625546D01*
X124751559Y-109620740D01*
X124700846Y-109615544D01*
X123700046Y-109615544D01*
X123696800Y-109615881D01*
X123696796Y-109615881D01*
X123601138Y-109625806D01*
X123601134Y-109625807D01*
X123594280Y-109626518D01*
X123587744Y-109628699D01*
X123587742Y-109628699D01*
X123455640Y-109672772D01*
X123426500Y-109682494D01*
X123276098Y-109775566D01*
X123151141Y-109900741D01*
X123147301Y-109906971D01*
X123147300Y-109906972D01*
X123072933Y-110027618D01*
X123058331Y-110051306D01*
X123056027Y-110058253D01*
X123020908Y-110164135D01*
X123002649Y-110219183D01*
X122991946Y-110323644D01*
X122991946Y-111124444D01*
X122992283Y-111127690D01*
X122992283Y-111127694D01*
X123000757Y-111209360D01*
X123002920Y-111230210D01*
X123005101Y-111236746D01*
X123005101Y-111236748D01*
X123016473Y-111270833D01*
X123058896Y-111397990D01*
X123151968Y-111548392D01*
X123204457Y-111600789D01*
X123238555Y-111634828D01*
X123272634Y-111697110D01*
X123267631Y-111767930D01*
X123238710Y-111813019D01*
X123166279Y-111885577D01*
X123151141Y-111900741D01*
X123147301Y-111906971D01*
X123147300Y-111906972D01*
X123069248Y-112033596D01*
X123058331Y-112051306D01*
X123054521Y-112062792D01*
X123006492Y-112207598D01*
X123002649Y-112219183D01*
X123001949Y-112226019D01*
X123001948Y-112226022D01*
X122999109Y-112253730D01*
X122991946Y-112323644D01*
X122991946Y-113124444D01*
X122992283Y-113127690D01*
X122992283Y-113127694D01*
X123001764Y-113219066D01*
X123002920Y-113230210D01*
X123005101Y-113236746D01*
X123005101Y-113236748D01*
X123048786Y-113367686D01*
X123058896Y-113397990D01*
X123151968Y-113548392D01*
X123277143Y-113673349D01*
X123283373Y-113677189D01*
X123283374Y-113677190D01*
X123387616Y-113741446D01*
X123435110Y-113794219D01*
X123447500Y-113848706D01*
X123447500Y-114080530D01*
X123446067Y-114099480D01*
X123442801Y-114120949D01*
X123443394Y-114128241D01*
X123443394Y-114128244D01*
X123447085Y-114173618D01*
X123447500Y-114183833D01*
X123447500Y-114191893D01*
X123448769Y-114202774D01*
X123450789Y-114220107D01*
X123451222Y-114224482D01*
X123453524Y-114252778D01*
X123457140Y-114297237D01*
X123459396Y-114304201D01*
X123460587Y-114310160D01*
X123461971Y-114316015D01*
X123462818Y-114323281D01*
X123487735Y-114391927D01*
X123489152Y-114396055D01*
X123501861Y-114435284D01*
X123511649Y-114465499D01*
X123515445Y-114471754D01*
X123517951Y-114477228D01*
X123520670Y-114482658D01*
X123523167Y-114489537D01*
X123527180Y-114495657D01*
X123527180Y-114495658D01*
X123563186Y-114550576D01*
X123565523Y-114554280D01*
X123603405Y-114616707D01*
X123607121Y-114620915D01*
X123607122Y-114620916D01*
X123610803Y-114625084D01*
X123610776Y-114625108D01*
X123613429Y-114628100D01*
X123616132Y-114631333D01*
X123620144Y-114637452D01*
X123625456Y-114642484D01*
X123676383Y-114690728D01*
X123678825Y-114693106D01*
X128981630Y-119995911D01*
X128994016Y-120010323D01*
X129002549Y-120021918D01*
X129002554Y-120021923D01*
X129006892Y-120027818D01*
X129012470Y-120032557D01*
X129012473Y-120032560D01*
X129047168Y-120062035D01*
X129054684Y-120068965D01*
X129060379Y-120074660D01*
X129063261Y-120076940D01*
X129082651Y-120092281D01*
X129086055Y-120095072D01*
X129136103Y-120137591D01*
X129141685Y-120142333D01*
X129148201Y-120145661D01*
X129153250Y-120149028D01*
X129158379Y-120152195D01*
X129164116Y-120156734D01*
X129230275Y-120187655D01*
X129234169Y-120189558D01*
X129299208Y-120222769D01*
X129306316Y-120224508D01*
X129311959Y-120226607D01*
X129317722Y-120228524D01*
X129324350Y-120231622D01*
X129331512Y-120233112D01*
X129331513Y-120233112D01*
X129395812Y-120246486D01*
X129400096Y-120247456D01*
X129471010Y-120264808D01*
X129476612Y-120265156D01*
X129476615Y-120265156D01*
X129482164Y-120265500D01*
X129482162Y-120265536D01*
X129486155Y-120265775D01*
X129490347Y-120266149D01*
X129497515Y-120267640D01*
X129574920Y-120265546D01*
X129578328Y-120265500D01*
X131644491Y-120265500D01*
X131712612Y-120285502D01*
X131741402Y-120312595D01*
X131741987Y-120312088D01*
X131888250Y-120480938D01*
X131892225Y-120484238D01*
X131892231Y-120484244D01*
X131897425Y-120488556D01*
X131937059Y-120547460D01*
X131938555Y-120618441D01*
X131901439Y-120678962D01*
X131861168Y-120703480D01*
X131753946Y-120743676D01*
X131738351Y-120752214D01*
X131636276Y-120828715D01*
X131623715Y-120841276D01*
X131547214Y-120943351D01*
X131538676Y-120958946D01*
X131493522Y-121079394D01*
X131489895Y-121094649D01*
X131484369Y-121145514D01*
X131484000Y-121152328D01*
X131484000Y-121774885D01*
X131488475Y-121790124D01*
X131489865Y-121791329D01*
X131497548Y-121793000D01*
X134181884Y-121793000D01*
X134197123Y-121788525D01*
X134198328Y-121787135D01*
X134199999Y-121779452D01*
X134199999Y-121152331D01*
X134199629Y-121145510D01*
X134194105Y-121094648D01*
X134190479Y-121079396D01*
X134145324Y-120958946D01*
X134136786Y-120943351D01*
X134060285Y-120841276D01*
X134047724Y-120828715D01*
X133945649Y-120752214D01*
X133930054Y-120743676D01*
X133819813Y-120702348D01*
X133763049Y-120659706D01*
X133738349Y-120593145D01*
X133753557Y-120523796D01*
X133775104Y-120495115D01*
X133876430Y-120394144D01*
X133876440Y-120394132D01*
X133880096Y-120390489D01*
X133930594Y-120320214D01*
X134007435Y-120213277D01*
X134010453Y-120209077D01*
X134015041Y-120199795D01*
X134107136Y-120013453D01*
X134107137Y-120013451D01*
X134109430Y-120008811D01*
X134174370Y-119795069D01*
X134203529Y-119573590D01*
X134203611Y-119570240D01*
X134205074Y-119510365D01*
X134205074Y-119510361D01*
X134205156Y-119507000D01*
X134186852Y-119284361D01*
X134132431Y-119067702D01*
X134043354Y-118862840D01*
X133974419Y-118756282D01*
X133924822Y-118679617D01*
X133924820Y-118679614D01*
X133922014Y-118675277D01*
X133771670Y-118510051D01*
X133767619Y-118506852D01*
X133767615Y-118506848D01*
X133600414Y-118374800D01*
X133600410Y-118374798D01*
X133596359Y-118371598D01*
X133555053Y-118348796D01*
X133505084Y-118298364D01*
X133490312Y-118228921D01*
X133515428Y-118162516D01*
X133542780Y-118135909D01*
X133586603Y-118104650D01*
X133721860Y-118008173D01*
X133880096Y-117850489D01*
X133889277Y-117837713D01*
X134007435Y-117673277D01*
X134010453Y-117669077D01*
X134016534Y-117656774D01*
X134107136Y-117473453D01*
X134107137Y-117473451D01*
X134109430Y-117468811D01*
X134174370Y-117255069D01*
X134203529Y-117033590D01*
X134205156Y-116967000D01*
X134186852Y-116744361D01*
X134132431Y-116527702D01*
X134043354Y-116322840D01*
X133984357Y-116231645D01*
X133924822Y-116139617D01*
X133924820Y-116139614D01*
X133922014Y-116135277D01*
X133771670Y-115970051D01*
X133767619Y-115966852D01*
X133767615Y-115966848D01*
X133600414Y-115834800D01*
X133600410Y-115834798D01*
X133596359Y-115831598D01*
X133587246Y-115826567D01*
X133514993Y-115786682D01*
X133400789Y-115723638D01*
X133395920Y-115721914D01*
X133395916Y-115721912D01*
X133195087Y-115650795D01*
X133195083Y-115650794D01*
X133190212Y-115649069D01*
X133185119Y-115648162D01*
X133185116Y-115648161D01*
X132975373Y-115610800D01*
X132975367Y-115610799D01*
X132970284Y-115609894D01*
X132896452Y-115608992D01*
X132752081Y-115607228D01*
X132752079Y-115607228D01*
X132746911Y-115607165D01*
X132526091Y-115640955D01*
X132313756Y-115710357D01*
X132115607Y-115813507D01*
X132111474Y-115816610D01*
X132111471Y-115816612D01*
X132005772Y-115895973D01*
X131936965Y-115947635D01*
X131933393Y-115951373D01*
X131808201Y-116082379D01*
X131782629Y-116109138D01*
X131656743Y-116293680D01*
X131562688Y-116496305D01*
X131502989Y-116711570D01*
X131479251Y-116933695D01*
X131479548Y-116938848D01*
X131479548Y-116938851D01*
X131485011Y-117033590D01*
X131492110Y-117156715D01*
X131493247Y-117161761D01*
X131493248Y-117161767D01*
X131506300Y-117219680D01*
X131541222Y-117374639D01*
X131625266Y-117581616D01*
X131741987Y-117772088D01*
X131888250Y-117940938D01*
X132060126Y-118083632D01*
X132130595Y-118124811D01*
X132133445Y-118126476D01*
X132182169Y-118178114D01*
X132195240Y-118247897D01*
X132168509Y-118313669D01*
X132128055Y-118347027D01*
X132115607Y-118353507D01*
X132111474Y-118356610D01*
X132111471Y-118356612D01*
X132022903Y-118423111D01*
X131936965Y-118487635D01*
X131911894Y-118513870D01*
X131798898Y-118632114D01*
X131782629Y-118649138D01*
X131752363Y-118693507D01*
X131697455Y-118738507D01*
X131648277Y-118748500D01*
X129931771Y-118748500D01*
X129863650Y-118728498D01*
X129842676Y-118711595D01*
X125038894Y-113907813D01*
X125004868Y-113845501D01*
X125009933Y-113774686D01*
X125052480Y-113717850D01*
X125061672Y-113711584D01*
X125124794Y-113672522D01*
X125152028Y-113645241D01*
X125244580Y-113552527D01*
X125249751Y-113547347D01*
X125274385Y-113507383D01*
X125338721Y-113403012D01*
X125338722Y-113403010D01*
X125342561Y-113396782D01*
X125398243Y-113228905D01*
X125408946Y-113124444D01*
X125408946Y-112323644D01*
X125406942Y-112304327D01*
X125398684Y-112224736D01*
X125398683Y-112224732D01*
X125397972Y-112217878D01*
X125394543Y-112207598D01*
X125344314Y-112057046D01*
X125341996Y-112050098D01*
X125248924Y-111899696D01*
X125162337Y-111813260D01*
X125128258Y-111750978D01*
X125133261Y-111680158D01*
X125162182Y-111635069D01*
X125243544Y-111553565D01*
X125249751Y-111547347D01*
X125253592Y-111541116D01*
X125258129Y-111535371D01*
X125259459Y-111536421D01*
X125305553Y-111494936D01*
X125360043Y-111482544D01*
X126264214Y-111482544D01*
X126332335Y-111502546D01*
X126339779Y-111507718D01*
X126388554Y-111544273D01*
X126388556Y-111544274D01*
X126395741Y-111549659D01*
X126532130Y-111600789D01*
X126539436Y-111601583D01*
X126600870Y-111636679D01*
X126633690Y-111699634D01*
X126627264Y-111770339D01*
X126583632Y-111826346D01*
X126539506Y-111846498D01*
X126532130Y-111847299D01*
X126395741Y-111898429D01*
X126279185Y-111985783D01*
X126191831Y-112102339D01*
X126140701Y-112238728D01*
X126133946Y-112300910D01*
X126133946Y-113047178D01*
X126140701Y-113109360D01*
X126191831Y-113245749D01*
X126279185Y-113362305D01*
X126395741Y-113449659D01*
X126532130Y-113500789D01*
X126594312Y-113507544D01*
X126595212Y-113507544D01*
X126661696Y-113531038D01*
X126705221Y-113587128D01*
X126713946Y-113633199D01*
X126713946Y-113804534D01*
X126713654Y-113813104D01*
X126711446Y-113845501D01*
X126709721Y-113870798D01*
X126711026Y-113878275D01*
X126711026Y-113878276D01*
X126720707Y-113933745D01*
X126721669Y-113940267D01*
X126729344Y-114003688D01*
X126732027Y-114010789D01*
X126732668Y-114013398D01*
X126737131Y-114029708D01*
X126737896Y-114032244D01*
X126739203Y-114039730D01*
X126742257Y-114046687D01*
X126764888Y-114098241D01*
X126767379Y-114104345D01*
X126789959Y-114164102D01*
X126794263Y-114170365D01*
X126795500Y-114172731D01*
X126803745Y-114187543D01*
X126805078Y-114189797D01*
X126808131Y-114196751D01*
X126829411Y-114224482D01*
X126847025Y-114247437D01*
X126850905Y-114252778D01*
X126882785Y-114299166D01*
X126882790Y-114299171D01*
X126887089Y-114305427D01*
X126892759Y-114310478D01*
X126892760Y-114310480D01*
X126933616Y-114346881D01*
X126938892Y-114351862D01*
X127367550Y-114780520D01*
X127373404Y-114786785D01*
X127411439Y-114830385D01*
X127463719Y-114867128D01*
X127469014Y-114871061D01*
X127519282Y-114910476D01*
X127526198Y-114913599D01*
X127528484Y-114914983D01*
X127543165Y-114923357D01*
X127545525Y-114924622D01*
X127551739Y-114928990D01*
X127558818Y-114931750D01*
X127558820Y-114931751D01*
X127611275Y-114952202D01*
X127617344Y-114954753D01*
X127675573Y-114981045D01*
X127683040Y-114982429D01*
X127685595Y-114983230D01*
X127701848Y-114987859D01*
X127704428Y-114988522D01*
X127711509Y-114991282D01*
X127719040Y-114992273D01*
X127719042Y-114992274D01*
X127748661Y-114996173D01*
X127774861Y-114999622D01*
X127781359Y-115000652D01*
X127844186Y-115012296D01*
X127851766Y-115011859D01*
X127851767Y-115011859D01*
X127906392Y-115008709D01*
X127913646Y-115008500D01*
X134528339Y-115008500D01*
X134596460Y-115028502D01*
X134617435Y-115045405D01*
X135398596Y-115826567D01*
X135432621Y-115888879D01*
X135435500Y-115915662D01*
X135435500Y-118422451D01*
X135435498Y-118423111D01*
X135435141Y-118491373D01*
X135435026Y-118513244D01*
X135435390Y-118514761D01*
X135435500Y-118516663D01*
X135435500Y-120031256D01*
X135415498Y-120099377D01*
X135411436Y-120105317D01*
X135409379Y-120108148D01*
X135404960Y-120113056D01*
X135401659Y-120118774D01*
X135401658Y-120118775D01*
X135316920Y-120265546D01*
X135309473Y-120278444D01*
X135250458Y-120460072D01*
X135249768Y-120466633D01*
X135249768Y-120466635D01*
X135243760Y-120523796D01*
X135230496Y-120650000D01*
X135231186Y-120656565D01*
X135245824Y-120795834D01*
X135250458Y-120839928D01*
X135309473Y-121021556D01*
X135312776Y-121027278D01*
X135312777Y-121027279D01*
X135342866Y-121079394D01*
X135404960Y-121186944D01*
X135532747Y-121328866D01*
X135687248Y-121441118D01*
X135693276Y-121443802D01*
X135693278Y-121443803D01*
X135855681Y-121516109D01*
X135861712Y-121518794D01*
X135955113Y-121538647D01*
X136042056Y-121557128D01*
X136042061Y-121557128D01*
X136048513Y-121558500D01*
X136239487Y-121558500D01*
X136245939Y-121557128D01*
X136245944Y-121557128D01*
X136332887Y-121538647D01*
X136426288Y-121518794D01*
X136432319Y-121516109D01*
X136594722Y-121443803D01*
X136594724Y-121443802D01*
X136600752Y-121441118D01*
X136755253Y-121328866D01*
X136883040Y-121186944D01*
X136945134Y-121079394D01*
X136975223Y-121027279D01*
X136975224Y-121027278D01*
X136978527Y-121021556D01*
X137037542Y-120839928D01*
X137042177Y-120795834D01*
X137056814Y-120656565D01*
X137057504Y-120650000D01*
X137044240Y-120523796D01*
X137038232Y-120466635D01*
X137038232Y-120466633D01*
X137037542Y-120460072D01*
X136978527Y-120278444D01*
X136971081Y-120265546D01*
X136886342Y-120118775D01*
X136886341Y-120118774D01*
X136883040Y-120113056D01*
X136878621Y-120108148D01*
X136876564Y-120105317D01*
X136852705Y-120038449D01*
X136852500Y-120031256D01*
X136852500Y-119265713D01*
X136872502Y-119197592D01*
X136926158Y-119151099D01*
X136978500Y-119139713D01*
X138460875Y-119139713D01*
X138469445Y-119140005D01*
X138519563Y-119143422D01*
X138519567Y-119143422D01*
X138527139Y-119143938D01*
X138534616Y-119142633D01*
X138534617Y-119142633D01*
X138561095Y-119138012D01*
X138590090Y-119132951D01*
X138596608Y-119131990D01*
X138660029Y-119124315D01*
X138667130Y-119121632D01*
X138669739Y-119120991D01*
X138686049Y-119116528D01*
X138688585Y-119115763D01*
X138696071Y-119114456D01*
X138754587Y-119088769D01*
X138760691Y-119086278D01*
X138772569Y-119081790D01*
X138820443Y-119063700D01*
X138821600Y-119066762D01*
X138876732Y-119055796D01*
X138942798Y-119081790D01*
X138984323Y-119139377D01*
X138991500Y-119181294D01*
X138991500Y-122352339D01*
X138971498Y-122420460D01*
X138954595Y-122441434D01*
X136160435Y-125235595D01*
X136098123Y-125269621D01*
X136071340Y-125272500D01*
X135516600Y-125272500D01*
X135513354Y-125272837D01*
X135513350Y-125272837D01*
X135417692Y-125282762D01*
X135417688Y-125282763D01*
X135410834Y-125283474D01*
X135404298Y-125285655D01*
X135404296Y-125285655D01*
X135272194Y-125329728D01*
X135243054Y-125339450D01*
X135092652Y-125432522D01*
X134967695Y-125557697D01*
X134963856Y-125563925D01*
X134963852Y-125563930D01*
X134933841Y-125612617D01*
X134881069Y-125660110D01*
X134826582Y-125672500D01*
X134007402Y-125672500D01*
X133939281Y-125652498D01*
X133901610Y-125614940D01*
X133854822Y-125542617D01*
X133854820Y-125542614D01*
X133852014Y-125538277D01*
X133701670Y-125373051D01*
X133697619Y-125369852D01*
X133697615Y-125369848D01*
X133530414Y-125237800D01*
X133530410Y-125237798D01*
X133526359Y-125234598D01*
X133330789Y-125126638D01*
X133325920Y-125124914D01*
X133325916Y-125124912D01*
X133125087Y-125053795D01*
X133125083Y-125053794D01*
X133120212Y-125052069D01*
X133115119Y-125051162D01*
X133115116Y-125051161D01*
X132905373Y-125013800D01*
X132905367Y-125013799D01*
X132900284Y-125012894D01*
X132826452Y-125011992D01*
X132682081Y-125010228D01*
X132682079Y-125010228D01*
X132676911Y-125010165D01*
X132456091Y-125043955D01*
X132243756Y-125113357D01*
X132045607Y-125216507D01*
X132041474Y-125219610D01*
X132041471Y-125219612D01*
X131971031Y-125272500D01*
X131866965Y-125350635D01*
X131850603Y-125367757D01*
X131717441Y-125507103D01*
X131712629Y-125512138D01*
X131586743Y-125696680D01*
X131492688Y-125899305D01*
X131432989Y-126114570D01*
X131409251Y-126336695D01*
X131409548Y-126341848D01*
X131409548Y-126341851D01*
X131415705Y-126448628D01*
X131422110Y-126559715D01*
X131423247Y-126564761D01*
X131423248Y-126564767D01*
X131430874Y-126598604D01*
X131471222Y-126777639D01*
X131555266Y-126984616D01*
X131671987Y-127175088D01*
X131818250Y-127343938D01*
X131822225Y-127347238D01*
X131822231Y-127347244D01*
X131827425Y-127351556D01*
X131867059Y-127410460D01*
X131868555Y-127481441D01*
X131831439Y-127541962D01*
X131791168Y-127566480D01*
X131683946Y-127606676D01*
X131668351Y-127615214D01*
X131566276Y-127691715D01*
X131553715Y-127704276D01*
X131477214Y-127806351D01*
X131468676Y-127821946D01*
X131423522Y-127942394D01*
X131419895Y-127957649D01*
X131414369Y-128008514D01*
X131414000Y-128015328D01*
X131414000Y-128637885D01*
X131418475Y-128653124D01*
X131419865Y-128654329D01*
X131427548Y-128656000D01*
X134111884Y-128656000D01*
X134127123Y-128651525D01*
X134128328Y-128650135D01*
X134129999Y-128642452D01*
X134129999Y-128015331D01*
X134129629Y-128008510D01*
X134124105Y-127957648D01*
X134120479Y-127942396D01*
X134075324Y-127821946D01*
X134066786Y-127806351D01*
X133990285Y-127704276D01*
X133977724Y-127691715D01*
X133875649Y-127615214D01*
X133860054Y-127606676D01*
X133749813Y-127565348D01*
X133693049Y-127522706D01*
X133668349Y-127456145D01*
X133683557Y-127386796D01*
X133705104Y-127358115D01*
X133806430Y-127257144D01*
X133806440Y-127257132D01*
X133810096Y-127253489D01*
X133845440Y-127204303D01*
X133890227Y-127141974D01*
X133946222Y-127098326D01*
X133992550Y-127089500D01*
X134826631Y-127089500D01*
X134894752Y-127109502D01*
X134933772Y-127149193D01*
X134968522Y-127205348D01*
X134973704Y-127210521D01*
X135055463Y-127292138D01*
X135089542Y-127354421D01*
X135084539Y-127425241D01*
X135055618Y-127470329D01*
X134973261Y-127552829D01*
X134964249Y-127564240D01*
X134879184Y-127702243D01*
X134873037Y-127715424D01*
X134821862Y-127869710D01*
X134818995Y-127883086D01*
X134809328Y-127977438D01*
X134809000Y-127983855D01*
X134809000Y-128108885D01*
X134813475Y-128124124D01*
X134814865Y-128125329D01*
X134822548Y-128127000D01*
X137206884Y-128127000D01*
X137222123Y-128122525D01*
X137223328Y-128121135D01*
X137224999Y-128113452D01*
X137224999Y-127983905D01*
X137224662Y-127977386D01*
X137214743Y-127881794D01*
X137211851Y-127868400D01*
X137160412Y-127714216D01*
X137154239Y-127701038D01*
X137068937Y-127563193D01*
X137059901Y-127551792D01*
X136978538Y-127470570D01*
X136944459Y-127408287D01*
X136949462Y-127337467D01*
X136978383Y-127292380D01*
X137061130Y-127209488D01*
X137061134Y-127209483D01*
X137066305Y-127204303D01*
X137081908Y-127178990D01*
X137155275Y-127059968D01*
X137155276Y-127059966D01*
X137159115Y-127053738D01*
X137214797Y-126885861D01*
X137225500Y-126781400D01*
X137225500Y-126226660D01*
X137245502Y-126158539D01*
X137262405Y-126137565D01*
X139426405Y-123973565D01*
X139488717Y-123939539D01*
X139559532Y-123944604D01*
X139616368Y-123987151D01*
X139641179Y-124053671D01*
X139641500Y-124062660D01*
X139641500Y-124192088D01*
X139641208Y-124200658D01*
X139637275Y-124258352D01*
X139638580Y-124265829D01*
X139638580Y-124265830D01*
X139648261Y-124321299D01*
X139649223Y-124327821D01*
X139656898Y-124391242D01*
X139659581Y-124398343D01*
X139660222Y-124400952D01*
X139664685Y-124417262D01*
X139665450Y-124419798D01*
X139666757Y-124427284D01*
X139669811Y-124434241D01*
X139692442Y-124485795D01*
X139694933Y-124491899D01*
X139717513Y-124551656D01*
X139721817Y-124557919D01*
X139723054Y-124560285D01*
X139731299Y-124575097D01*
X139732632Y-124577351D01*
X139735685Y-124584305D01*
X139740307Y-124590328D01*
X139774579Y-124634991D01*
X139778459Y-124640332D01*
X139810339Y-124686720D01*
X139810344Y-124686725D01*
X139814643Y-124692981D01*
X139820313Y-124698032D01*
X139820314Y-124698034D01*
X139861170Y-124734435D01*
X139866446Y-124739416D01*
X144872938Y-129745908D01*
X144878792Y-129752173D01*
X144916827Y-129795773D01*
X144939190Y-129811490D01*
X144969107Y-129832516D01*
X144974402Y-129836449D01*
X145024670Y-129875864D01*
X145031586Y-129878987D01*
X145033872Y-129880371D01*
X145048553Y-129888745D01*
X145050913Y-129890010D01*
X145057127Y-129894378D01*
X145064206Y-129897138D01*
X145064208Y-129897139D01*
X145116663Y-129917590D01*
X145122732Y-129920141D01*
X145180961Y-129946433D01*
X145188428Y-129947817D01*
X145190983Y-129948618D01*
X145207236Y-129953247D01*
X145209816Y-129953910D01*
X145216897Y-129956670D01*
X145224428Y-129957661D01*
X145224430Y-129957662D01*
X145254049Y-129961561D01*
X145280249Y-129965010D01*
X145286747Y-129966040D01*
X145349574Y-129977684D01*
X145357154Y-129977247D01*
X145357155Y-129977247D01*
X145411780Y-129974097D01*
X145419034Y-129973888D01*
X146062631Y-129973888D01*
X146130752Y-129993890D01*
X146169772Y-130033581D01*
X146204522Y-130089736D01*
X146329697Y-130214693D01*
X146335927Y-130218533D01*
X146335928Y-130218534D01*
X146473090Y-130303082D01*
X146480262Y-130307503D01*
X146560005Y-130333952D01*
X146641611Y-130361020D01*
X146641613Y-130361020D01*
X146648139Y-130363185D01*
X146654975Y-130363885D01*
X146654978Y-130363886D01*
X146698031Y-130368297D01*
X146752600Y-130373888D01*
X147753400Y-130373888D01*
X147756646Y-130373551D01*
X147756650Y-130373551D01*
X147852308Y-130363626D01*
X147852312Y-130363625D01*
X147859166Y-130362914D01*
X147865702Y-130360733D01*
X147865704Y-130360733D01*
X147997806Y-130316660D01*
X148026946Y-130306938D01*
X148177348Y-130213866D01*
X148302305Y-130088691D01*
X148306144Y-130082463D01*
X148306148Y-130082458D01*
X148336159Y-130033771D01*
X148388931Y-129986278D01*
X148443418Y-129973888D01*
X149325234Y-129973888D01*
X149393355Y-129993890D01*
X149432667Y-130034053D01*
X149454987Y-130070476D01*
X149601250Y-130239326D01*
X149773126Y-130382020D01*
X149966000Y-130494726D01*
X150174692Y-130574418D01*
X150179760Y-130575449D01*
X150179763Y-130575450D01*
X150287017Y-130597271D01*
X150393597Y-130618955D01*
X150398772Y-130619145D01*
X150398774Y-130619145D01*
X150611673Y-130626952D01*
X150611677Y-130626952D01*
X150616837Y-130627141D01*
X150621957Y-130626485D01*
X150621959Y-130626485D01*
X150833288Y-130599413D01*
X150833289Y-130599413D01*
X150838416Y-130598756D01*
X150843366Y-130597271D01*
X151047429Y-130536049D01*
X151047434Y-130536047D01*
X151052384Y-130534562D01*
X151252994Y-130436284D01*
X151434860Y-130306561D01*
X151487152Y-130254452D01*
X151589435Y-130152525D01*
X151593096Y-130148877D01*
X151723453Y-129967465D01*
X151732158Y-129949853D01*
X151820136Y-129771841D01*
X151820137Y-129771839D01*
X151822430Y-129767199D01*
X151887370Y-129553457D01*
X151916529Y-129331978D01*
X151916706Y-129324739D01*
X151918074Y-129268753D01*
X151918074Y-129268749D01*
X151918156Y-129265388D01*
X151899852Y-129042749D01*
X151845431Y-128826090D01*
X151756354Y-128621228D01*
X151675991Y-128497005D01*
X151637822Y-128438005D01*
X151637820Y-128438002D01*
X151635014Y-128433665D01*
X151631540Y-128429847D01*
X151631533Y-128429838D01*
X151487435Y-128271476D01*
X151456383Y-128207630D01*
X151464779Y-128137132D01*
X151509956Y-128082364D01*
X151536400Y-128068695D01*
X151643052Y-128028713D01*
X151658649Y-128020174D01*
X151760724Y-127943673D01*
X151773285Y-127931112D01*
X151849786Y-127829037D01*
X151858324Y-127813442D01*
X151903478Y-127692994D01*
X151907105Y-127677739D01*
X151912631Y-127626874D01*
X151913000Y-127620060D01*
X151913000Y-126997503D01*
X151908525Y-126982264D01*
X151907135Y-126981059D01*
X151899452Y-126979388D01*
X149215116Y-126979388D01*
X149199877Y-126983863D01*
X149198672Y-126985253D01*
X149197001Y-126992936D01*
X149197001Y-127620057D01*
X149197371Y-127626878D01*
X149202895Y-127677740D01*
X149206521Y-127692992D01*
X149251676Y-127813442D01*
X149260214Y-127829037D01*
X149336715Y-127931112D01*
X149349276Y-127943673D01*
X149451351Y-128020174D01*
X149466946Y-128028712D01*
X149575827Y-128069530D01*
X149632591Y-128112172D01*
X149657291Y-128178733D01*
X149642083Y-128248082D01*
X149622691Y-128274563D01*
X149499200Y-128403789D01*
X149495629Y-128407526D01*
X149434591Y-128497005D01*
X149431257Y-128501892D01*
X149376346Y-128546895D01*
X149327169Y-128556888D01*
X148443369Y-128556888D01*
X148375248Y-128536886D01*
X148336228Y-128497195D01*
X148301478Y-128441040D01*
X148294090Y-128433665D01*
X148214537Y-128354250D01*
X148180458Y-128291967D01*
X148185461Y-128221147D01*
X148214382Y-128176059D01*
X148296739Y-128093559D01*
X148305751Y-128082148D01*
X148390816Y-127944145D01*
X148396963Y-127930964D01*
X148448138Y-127776678D01*
X148451005Y-127763302D01*
X148460672Y-127668950D01*
X148461000Y-127662534D01*
X148461000Y-127537503D01*
X148456525Y-127522264D01*
X148455135Y-127521059D01*
X148447452Y-127519388D01*
X146063116Y-127519388D01*
X146047877Y-127523863D01*
X146046672Y-127525253D01*
X146045001Y-127532936D01*
X146045001Y-127662483D01*
X146045338Y-127669002D01*
X146055257Y-127764594D01*
X146058149Y-127777988D01*
X146109588Y-127932172D01*
X146115761Y-127945350D01*
X146201063Y-128083195D01*
X146210099Y-128094596D01*
X146291462Y-128175818D01*
X146325541Y-128238101D01*
X146320538Y-128308921D01*
X146291617Y-128354008D01*
X146208870Y-128436900D01*
X146208866Y-128436905D01*
X146203695Y-128442085D01*
X146199856Y-128448313D01*
X146199852Y-128448318D01*
X146169841Y-128497005D01*
X146117069Y-128544498D01*
X146062582Y-128556888D01*
X145740048Y-128556888D01*
X145671927Y-128536886D01*
X145650953Y-128519983D01*
X144124243Y-126993273D01*
X146045000Y-126993273D01*
X146049475Y-127008512D01*
X146050865Y-127009717D01*
X146058548Y-127011388D01*
X146980885Y-127011388D01*
X146996124Y-127006913D01*
X146997329Y-127005523D01*
X146999000Y-126997840D01*
X146999000Y-126993273D01*
X147507000Y-126993273D01*
X147511475Y-127008512D01*
X147512865Y-127009717D01*
X147520548Y-127011388D01*
X148442884Y-127011388D01*
X148458123Y-127006913D01*
X148459328Y-127005523D01*
X148460999Y-126997840D01*
X148460999Y-126868293D01*
X148460662Y-126861774D01*
X148450743Y-126766182D01*
X148447851Y-126752788D01*
X148396412Y-126598604D01*
X148390239Y-126585426D01*
X148308459Y-126453273D01*
X149197000Y-126453273D01*
X149201475Y-126468512D01*
X149202865Y-126469717D01*
X149210548Y-126471388D01*
X150282885Y-126471388D01*
X150298124Y-126466913D01*
X150299329Y-126465523D01*
X150301000Y-126457840D01*
X150301000Y-126453273D01*
X150809000Y-126453273D01*
X150813475Y-126468512D01*
X150814865Y-126469717D01*
X150822548Y-126471388D01*
X151894884Y-126471388D01*
X151910123Y-126466913D01*
X151911328Y-126465523D01*
X151912999Y-126457840D01*
X151912999Y-125830719D01*
X151912629Y-125823898D01*
X151907105Y-125773036D01*
X151903479Y-125757784D01*
X151858324Y-125637334D01*
X151849786Y-125621739D01*
X151773285Y-125519664D01*
X151760724Y-125507103D01*
X151658649Y-125430602D01*
X151643054Y-125422064D01*
X151522606Y-125376910D01*
X151507351Y-125373283D01*
X151456486Y-125367757D01*
X151449672Y-125367388D01*
X150827115Y-125367388D01*
X150811876Y-125371863D01*
X150810671Y-125373253D01*
X150809000Y-125380936D01*
X150809000Y-126453273D01*
X150301000Y-126453273D01*
X150301000Y-125385504D01*
X150296525Y-125370265D01*
X150295135Y-125369060D01*
X150287452Y-125367389D01*
X149660331Y-125367389D01*
X149653510Y-125367759D01*
X149602648Y-125373283D01*
X149587396Y-125376909D01*
X149466946Y-125422064D01*
X149451351Y-125430602D01*
X149349276Y-125507103D01*
X149336715Y-125519664D01*
X149260214Y-125621739D01*
X149251676Y-125637334D01*
X149206522Y-125757782D01*
X149202895Y-125773037D01*
X149197369Y-125823902D01*
X149197000Y-125830716D01*
X149197000Y-126453273D01*
X148308459Y-126453273D01*
X148304937Y-126447581D01*
X148295901Y-126436180D01*
X148181171Y-126321649D01*
X148169760Y-126312637D01*
X148031757Y-126227572D01*
X148018576Y-126221425D01*
X147864290Y-126170250D01*
X147850914Y-126167383D01*
X147756562Y-126157716D01*
X147750145Y-126157388D01*
X147525115Y-126157388D01*
X147509876Y-126161863D01*
X147508671Y-126163253D01*
X147507000Y-126170936D01*
X147507000Y-126993273D01*
X146999000Y-126993273D01*
X146999000Y-126175504D01*
X146994525Y-126160265D01*
X146993135Y-126159060D01*
X146985452Y-126157389D01*
X146755905Y-126157389D01*
X146749386Y-126157726D01*
X146653794Y-126167645D01*
X146640400Y-126170537D01*
X146486216Y-126221976D01*
X146473038Y-126228149D01*
X146335193Y-126313451D01*
X146323792Y-126322487D01*
X146209261Y-126437217D01*
X146200249Y-126448628D01*
X146115184Y-126586631D01*
X146109037Y-126599812D01*
X146057862Y-126754098D01*
X146054995Y-126767474D01*
X146045328Y-126861826D01*
X146045000Y-126868243D01*
X146045000Y-126993273D01*
X144124243Y-126993273D01*
X141222240Y-124091270D01*
X154285960Y-124091270D01*
X154291687Y-124098920D01*
X154462842Y-124203805D01*
X154471637Y-124208287D01*
X154681788Y-124295334D01*
X154691173Y-124298383D01*
X154912354Y-124351485D01*
X154922101Y-124353028D01*
X155148870Y-124370875D01*
X155158730Y-124370875D01*
X155385499Y-124353028D01*
X155395246Y-124351485D01*
X155616427Y-124298383D01*
X155625812Y-124295334D01*
X155835963Y-124208287D01*
X155844758Y-124203805D01*
X156012245Y-124101168D01*
X156021707Y-124090710D01*
X156017924Y-124081934D01*
X155166612Y-123230622D01*
X155152668Y-123223008D01*
X155150835Y-123223139D01*
X155144220Y-123227390D01*
X154292720Y-124078890D01*
X154285960Y-124091270D01*
X141222240Y-124091270D01*
X141095405Y-123964435D01*
X141061379Y-123902123D01*
X141058500Y-123875340D01*
X141058500Y-121666000D01*
X144374496Y-121666000D01*
X144394458Y-121855928D01*
X144453473Y-122037556D01*
X144548960Y-122202944D01*
X144553378Y-122207851D01*
X144553379Y-122207852D01*
X144653561Y-122319115D01*
X144676747Y-122344866D01*
X144831248Y-122457118D01*
X144837276Y-122459802D01*
X144837278Y-122459803D01*
X144999681Y-122532109D01*
X145005712Y-122534794D01*
X145192513Y-122574500D01*
X145196201Y-122574500D01*
X145241062Y-122588302D01*
X145243527Y-122589624D01*
X145249739Y-122593990D01*
X145256811Y-122596747D01*
X145256816Y-122596750D01*
X145309275Y-122617202D01*
X145315344Y-122619753D01*
X145373573Y-122646045D01*
X145381040Y-122647429D01*
X145383595Y-122648230D01*
X145399848Y-122652859D01*
X145402428Y-122653521D01*
X145409509Y-122656282D01*
X145417042Y-122657274D01*
X145417043Y-122657274D01*
X145449699Y-122661573D01*
X145472857Y-122664622D01*
X145479355Y-122665650D01*
X145542187Y-122677296D01*
X145549767Y-122676859D01*
X145549768Y-122676859D01*
X145604393Y-122673709D01*
X145611647Y-122673500D01*
X146010700Y-122673500D01*
X146078821Y-122693502D01*
X146125314Y-122747158D01*
X146136700Y-122799500D01*
X146136700Y-123213134D01*
X146143455Y-123275316D01*
X146194585Y-123411705D01*
X146281939Y-123528261D01*
X146398495Y-123615615D01*
X146534884Y-123666745D01*
X146597066Y-123673500D01*
X147433334Y-123673500D01*
X147495516Y-123666745D01*
X147502912Y-123663973D01*
X147502918Y-123663971D01*
X147606683Y-123625071D01*
X147677490Y-123619888D01*
X147695141Y-123625071D01*
X147797591Y-123663478D01*
X147812849Y-123667105D01*
X147863714Y-123672631D01*
X147870528Y-123673000D01*
X148013085Y-123673000D01*
X148028324Y-123668525D01*
X148029529Y-123667135D01*
X148031200Y-123659452D01*
X148031200Y-123654884D01*
X148539200Y-123654884D01*
X148543675Y-123670123D01*
X148545065Y-123671328D01*
X148552748Y-123672999D01*
X148699869Y-123672999D01*
X148706690Y-123672629D01*
X148757552Y-123667105D01*
X148772806Y-123663478D01*
X148875971Y-123624804D01*
X148946778Y-123619621D01*
X148964429Y-123624804D01*
X149067591Y-123663478D01*
X149082849Y-123667105D01*
X149133714Y-123672631D01*
X149140528Y-123673000D01*
X149283085Y-123673000D01*
X149298324Y-123668525D01*
X149299529Y-123667135D01*
X149301200Y-123659452D01*
X149301200Y-123654884D01*
X149809200Y-123654884D01*
X149813675Y-123670123D01*
X149815065Y-123671328D01*
X149822748Y-123672999D01*
X149969869Y-123672999D01*
X149976690Y-123672629D01*
X150027552Y-123667105D01*
X150042807Y-123663478D01*
X150145259Y-123625071D01*
X150216066Y-123619888D01*
X150233717Y-123625071D01*
X150337482Y-123663971D01*
X150337488Y-123663973D01*
X150344884Y-123666745D01*
X150407066Y-123673500D01*
X151243334Y-123673500D01*
X151305516Y-123666745D01*
X151312912Y-123663973D01*
X151312918Y-123663971D01*
X151416683Y-123625071D01*
X151487490Y-123619888D01*
X151505141Y-123625071D01*
X151607591Y-123663478D01*
X151622849Y-123667105D01*
X151673714Y-123672631D01*
X151680528Y-123673000D01*
X151823085Y-123673000D01*
X151838324Y-123668525D01*
X151839529Y-123667135D01*
X151841200Y-123659452D01*
X151841200Y-123654884D01*
X152349200Y-123654884D01*
X152353675Y-123670123D01*
X152355065Y-123671328D01*
X152362748Y-123672999D01*
X152509869Y-123672999D01*
X152516690Y-123672629D01*
X152567552Y-123667105D01*
X152582804Y-123663479D01*
X152703254Y-123618324D01*
X152718849Y-123609786D01*
X152820924Y-123533285D01*
X152833485Y-123520724D01*
X152909986Y-123418649D01*
X152918524Y-123403054D01*
X152963678Y-123282606D01*
X152967305Y-123267351D01*
X152972831Y-123216486D01*
X152973200Y-123209672D01*
X152973200Y-122863530D01*
X153641525Y-122863530D01*
X153659372Y-123090299D01*
X153660915Y-123100046D01*
X153714017Y-123321227D01*
X153717066Y-123330612D01*
X153804113Y-123540763D01*
X153808595Y-123549558D01*
X153911232Y-123717045D01*
X153921690Y-123726507D01*
X153930466Y-123722724D01*
X154781778Y-122871412D01*
X154788156Y-122859732D01*
X155518208Y-122859732D01*
X155518339Y-122861565D01*
X155522590Y-122868180D01*
X156374090Y-123719680D01*
X156386470Y-123726440D01*
X156394120Y-123720713D01*
X156499005Y-123549558D01*
X156503487Y-123540763D01*
X156590534Y-123330612D01*
X156593583Y-123321227D01*
X156646685Y-123100046D01*
X156648228Y-123090299D01*
X156666075Y-122863530D01*
X156666075Y-122853670D01*
X156648228Y-122626901D01*
X156646685Y-122617154D01*
X156593583Y-122395973D01*
X156590534Y-122386588D01*
X156503487Y-122176437D01*
X156499005Y-122167642D01*
X156396368Y-122000155D01*
X156385910Y-121990693D01*
X156377134Y-121994476D01*
X155525822Y-122845788D01*
X155518208Y-122859732D01*
X154788156Y-122859732D01*
X154789392Y-122857468D01*
X154789261Y-122855635D01*
X154785010Y-122849020D01*
X153933510Y-121997520D01*
X153921130Y-121990760D01*
X153913480Y-121996487D01*
X153808595Y-122167642D01*
X153804113Y-122176437D01*
X153717066Y-122386588D01*
X153714017Y-122395973D01*
X153660915Y-122617154D01*
X153659372Y-122626901D01*
X153641525Y-122853670D01*
X153641525Y-122863530D01*
X152973200Y-122863530D01*
X152973200Y-122237115D01*
X152968725Y-122221876D01*
X152967335Y-122220671D01*
X152959652Y-122219000D01*
X152367315Y-122219000D01*
X152352076Y-122223475D01*
X152350871Y-122224865D01*
X152349200Y-122232548D01*
X152349200Y-123654884D01*
X151841200Y-123654884D01*
X151841200Y-121692885D01*
X152349200Y-121692885D01*
X152353675Y-121708124D01*
X152355065Y-121709329D01*
X152362748Y-121711000D01*
X152955084Y-121711000D01*
X152970323Y-121706525D01*
X152971528Y-121705135D01*
X152973199Y-121697452D01*
X152973199Y-121626490D01*
X154285893Y-121626490D01*
X154289676Y-121635266D01*
X155140988Y-122486578D01*
X155154932Y-122494192D01*
X155156765Y-122494061D01*
X155163380Y-122489810D01*
X156014880Y-121638310D01*
X156021640Y-121625930D01*
X156015913Y-121618280D01*
X155844758Y-121513395D01*
X155835963Y-121508913D01*
X155625812Y-121421866D01*
X155616427Y-121418817D01*
X155395246Y-121365715D01*
X155385499Y-121364172D01*
X155158730Y-121346325D01*
X155148870Y-121346325D01*
X154922101Y-121364172D01*
X154912354Y-121365715D01*
X154691173Y-121418817D01*
X154681788Y-121421866D01*
X154471637Y-121508913D01*
X154462842Y-121513395D01*
X154295355Y-121616032D01*
X154285893Y-121626490D01*
X152973199Y-121626490D01*
X152973199Y-120720331D01*
X152972829Y-120713510D01*
X152967305Y-120662648D01*
X152963679Y-120647396D01*
X152918524Y-120526946D01*
X152909986Y-120511351D01*
X152833485Y-120409276D01*
X152820924Y-120396715D01*
X152718849Y-120320214D01*
X152703254Y-120311676D01*
X152582806Y-120266522D01*
X152567551Y-120262895D01*
X152516686Y-120257369D01*
X152509872Y-120257000D01*
X152367315Y-120257000D01*
X152352076Y-120261475D01*
X152350871Y-120262865D01*
X152349200Y-120270548D01*
X152349200Y-121692885D01*
X151841200Y-121692885D01*
X151841200Y-120275116D01*
X151836725Y-120259877D01*
X151835335Y-120258672D01*
X151827652Y-120257001D01*
X151680531Y-120257001D01*
X151673710Y-120257371D01*
X151622848Y-120262895D01*
X151607593Y-120266522D01*
X151505141Y-120304929D01*
X151434334Y-120310112D01*
X151416683Y-120304929D01*
X151312918Y-120266029D01*
X151312912Y-120266027D01*
X151305516Y-120263255D01*
X151243334Y-120256500D01*
X150407066Y-120256500D01*
X150344884Y-120263255D01*
X150337488Y-120266027D01*
X150337482Y-120266029D01*
X150233717Y-120304929D01*
X150162910Y-120310112D01*
X150145259Y-120304929D01*
X150042809Y-120266522D01*
X150027551Y-120262895D01*
X149976686Y-120257369D01*
X149969872Y-120257000D01*
X149827315Y-120257000D01*
X149812076Y-120261475D01*
X149810871Y-120262865D01*
X149809200Y-120270548D01*
X149809200Y-123654884D01*
X149301200Y-123654884D01*
X149301200Y-122237115D01*
X149296725Y-122221876D01*
X149295335Y-122220671D01*
X149287652Y-122219000D01*
X148557315Y-122219000D01*
X148542076Y-122223475D01*
X148540871Y-122224865D01*
X148539200Y-122232548D01*
X148539200Y-123654884D01*
X148031200Y-123654884D01*
X148031200Y-121692885D01*
X148539200Y-121692885D01*
X148543675Y-121708124D01*
X148545065Y-121709329D01*
X148552748Y-121711000D01*
X149283085Y-121711000D01*
X149298324Y-121706525D01*
X149299529Y-121705135D01*
X149301200Y-121697452D01*
X149301200Y-120275116D01*
X149296725Y-120259877D01*
X149295335Y-120258672D01*
X149287652Y-120257001D01*
X149140531Y-120257001D01*
X149133710Y-120257371D01*
X149082848Y-120262895D01*
X149067594Y-120266522D01*
X148964429Y-120305196D01*
X148893622Y-120310379D01*
X148875971Y-120305196D01*
X148772809Y-120266522D01*
X148757551Y-120262895D01*
X148706686Y-120257369D01*
X148699872Y-120257000D01*
X148557315Y-120257000D01*
X148542076Y-120261475D01*
X148540871Y-120262865D01*
X148539200Y-120270548D01*
X148539200Y-121692885D01*
X148031200Y-121692885D01*
X148031200Y-120275116D01*
X148026725Y-120259877D01*
X148025335Y-120258672D01*
X148017652Y-120257001D01*
X147870531Y-120257001D01*
X147863710Y-120257371D01*
X147812848Y-120262895D01*
X147797593Y-120266522D01*
X147695141Y-120304929D01*
X147624334Y-120310112D01*
X147606683Y-120304929D01*
X147502918Y-120266029D01*
X147502912Y-120266027D01*
X147495516Y-120263255D01*
X147433334Y-120256500D01*
X146597066Y-120256500D01*
X146534884Y-120263255D01*
X146398495Y-120314385D01*
X146281939Y-120401739D01*
X146194585Y-120518295D01*
X146143455Y-120654684D01*
X146136700Y-120716866D01*
X146136700Y-120922605D01*
X146116698Y-120990726D01*
X146063042Y-121037219D01*
X145992768Y-121047323D01*
X145928188Y-121017829D01*
X145917071Y-121006922D01*
X145899253Y-120987134D01*
X145789175Y-120907157D01*
X145750094Y-120878763D01*
X145750093Y-120878762D01*
X145744752Y-120874882D01*
X145738724Y-120872198D01*
X145738722Y-120872197D01*
X145576319Y-120799891D01*
X145576318Y-120799891D01*
X145570288Y-120797206D01*
X145471341Y-120776174D01*
X145389944Y-120758872D01*
X145389939Y-120758872D01*
X145383487Y-120757500D01*
X145192513Y-120757500D01*
X145186061Y-120758872D01*
X145186056Y-120758872D01*
X145104659Y-120776174D01*
X145005712Y-120797206D01*
X144999682Y-120799891D01*
X144999681Y-120799891D01*
X144837278Y-120872197D01*
X144837276Y-120872198D01*
X144831248Y-120874882D01*
X144825907Y-120878762D01*
X144825906Y-120878763D01*
X144786825Y-120907157D01*
X144676747Y-120987134D01*
X144672329Y-120992041D01*
X144672325Y-120992045D01*
X144605774Y-121065958D01*
X144548960Y-121129056D01*
X144453473Y-121294444D01*
X144394458Y-121476072D01*
X144393768Y-121482633D01*
X144393768Y-121482635D01*
X144378707Y-121625930D01*
X144374496Y-121666000D01*
X141058500Y-121666000D01*
X141058500Y-116075660D01*
X141078502Y-116007539D01*
X141132158Y-115961046D01*
X141202432Y-115950942D01*
X141267012Y-115980436D01*
X141273594Y-115986564D01*
X142569871Y-117282842D01*
X143832557Y-118545528D01*
X143838411Y-118551793D01*
X143876439Y-118595385D01*
X143928729Y-118632136D01*
X143933971Y-118636028D01*
X143984282Y-118675476D01*
X143991201Y-118678600D01*
X143993493Y-118679988D01*
X144008165Y-118688357D01*
X144010525Y-118689622D01*
X144016739Y-118693990D01*
X144023818Y-118696750D01*
X144023820Y-118696751D01*
X144076275Y-118717202D01*
X144082344Y-118719753D01*
X144140573Y-118746045D01*
X144148046Y-118747430D01*
X144150612Y-118748234D01*
X144166835Y-118752855D01*
X144169427Y-118753520D01*
X144176509Y-118756282D01*
X144184044Y-118757274D01*
X144239861Y-118764622D01*
X144246377Y-118765654D01*
X144284770Y-118772770D01*
X144309186Y-118777295D01*
X144316766Y-118776858D01*
X144316767Y-118776858D01*
X144371380Y-118773709D01*
X144378633Y-118773500D01*
X146010700Y-118773500D01*
X146078821Y-118793502D01*
X146125314Y-118847158D01*
X146136700Y-118899500D01*
X146136700Y-119313134D01*
X146143455Y-119375316D01*
X146194585Y-119511705D01*
X146281939Y-119628261D01*
X146398495Y-119715615D01*
X146534884Y-119766745D01*
X146597066Y-119773500D01*
X147433334Y-119773500D01*
X147495516Y-119766745D01*
X147502912Y-119763973D01*
X147502918Y-119763971D01*
X147605971Y-119725338D01*
X147676778Y-119720155D01*
X147694429Y-119725338D01*
X147797482Y-119763971D01*
X147797488Y-119763973D01*
X147804884Y-119766745D01*
X147867066Y-119773500D01*
X148703334Y-119773500D01*
X148765516Y-119766745D01*
X148772912Y-119763973D01*
X148772918Y-119763971D01*
X148875971Y-119725338D01*
X148946778Y-119720155D01*
X148964429Y-119725338D01*
X149067482Y-119763971D01*
X149067488Y-119763973D01*
X149074884Y-119766745D01*
X149137066Y-119773500D01*
X149973334Y-119773500D01*
X150035516Y-119766745D01*
X150042912Y-119763973D01*
X150042918Y-119763971D01*
X150145971Y-119725338D01*
X150216778Y-119720155D01*
X150234429Y-119725338D01*
X150337482Y-119763971D01*
X150337488Y-119763973D01*
X150344884Y-119766745D01*
X150407066Y-119773500D01*
X151243334Y-119773500D01*
X151305516Y-119766745D01*
X151312912Y-119763973D01*
X151312918Y-119763971D01*
X151415971Y-119725338D01*
X151486778Y-119720155D01*
X151504429Y-119725338D01*
X151607482Y-119763971D01*
X151607488Y-119763973D01*
X151614884Y-119766745D01*
X151677066Y-119773500D01*
X152513334Y-119773500D01*
X152575516Y-119766745D01*
X152711905Y-119715615D01*
X152828461Y-119628261D01*
X152915815Y-119511705D01*
X152966945Y-119375316D01*
X152973700Y-119313134D01*
X152973700Y-118899500D01*
X152993702Y-118831379D01*
X153047358Y-118784886D01*
X153099700Y-118773500D01*
X154803340Y-118773500D01*
X154871461Y-118793502D01*
X154892435Y-118810405D01*
X156846350Y-120764320D01*
X156852204Y-120770585D01*
X156890239Y-120814185D01*
X156926868Y-120839928D01*
X156942519Y-120850928D01*
X156947814Y-120854861D01*
X156998082Y-120894276D01*
X157004998Y-120897399D01*
X157007284Y-120898783D01*
X157021965Y-120907157D01*
X157024325Y-120908422D01*
X157030539Y-120912790D01*
X157037618Y-120915550D01*
X157037620Y-120915551D01*
X157090075Y-120936002D01*
X157096144Y-120938553D01*
X157154373Y-120964845D01*
X157161846Y-120966230D01*
X157164412Y-120967034D01*
X157180635Y-120971655D01*
X157183227Y-120972320D01*
X157190309Y-120975082D01*
X157197844Y-120976074D01*
X157253661Y-120983422D01*
X157260177Y-120984454D01*
X157274637Y-120987134D01*
X157322986Y-120996095D01*
X157330566Y-120995658D01*
X157330567Y-120995658D01*
X157385180Y-120992509D01*
X157392433Y-120992300D01*
X158819300Y-120992300D01*
X158887421Y-121012302D01*
X158933914Y-121065958D01*
X158945300Y-121118300D01*
X158945300Y-121452994D01*
X158925298Y-121521115D01*
X158885135Y-121560426D01*
X158768607Y-121631835D01*
X158768597Y-121631842D01*
X158764384Y-121634424D01*
X158583831Y-121788631D01*
X158580623Y-121792387D01*
X158562832Y-121813218D01*
X158429624Y-121969184D01*
X158427045Y-121973392D01*
X158427041Y-121973398D01*
X158387725Y-122037556D01*
X158305560Y-122171637D01*
X158303667Y-122176207D01*
X158303665Y-122176211D01*
X158232198Y-122348749D01*
X158214695Y-122391006D01*
X158207624Y-122420460D01*
X158167329Y-122588302D01*
X158159265Y-122621889D01*
X158140635Y-122858600D01*
X158159265Y-123095311D01*
X158160419Y-123100118D01*
X158160420Y-123100124D01*
X158186731Y-123209717D01*
X158214695Y-123326194D01*
X158216588Y-123330765D01*
X158216589Y-123330767D01*
X158303572Y-123540763D01*
X158305560Y-123545563D01*
X158308146Y-123549783D01*
X158427041Y-123743802D01*
X158427045Y-123743808D01*
X158429624Y-123748016D01*
X158583831Y-123928569D01*
X158764384Y-124082776D01*
X158768592Y-124085355D01*
X158768598Y-124085359D01*
X158942764Y-124192088D01*
X158966837Y-124206840D01*
X158971407Y-124208733D01*
X158971411Y-124208735D01*
X159181633Y-124295811D01*
X159186206Y-124297705D01*
X159266409Y-124316960D01*
X159412276Y-124351980D01*
X159412282Y-124351981D01*
X159417089Y-124353135D01*
X159653800Y-124371765D01*
X159890511Y-124353135D01*
X159895318Y-124351981D01*
X159895324Y-124351980D01*
X160041191Y-124316960D01*
X160121394Y-124297705D01*
X160125967Y-124295811D01*
X160336189Y-124208735D01*
X160336193Y-124208733D01*
X160340763Y-124206840D01*
X160364836Y-124192088D01*
X160539002Y-124085359D01*
X160539008Y-124085355D01*
X160543216Y-124082776D01*
X160723769Y-123928569D01*
X160877976Y-123748016D01*
X160880555Y-123743808D01*
X160880559Y-123743802D01*
X160999454Y-123549783D01*
X161002040Y-123545563D01*
X161004029Y-123540763D01*
X161022191Y-123496914D01*
X161066739Y-123441633D01*
X161134103Y-123419212D01*
X161202894Y-123436770D01*
X161251272Y-123488732D01*
X161264600Y-123545132D01*
X161264600Y-131090400D01*
X161244598Y-131158521D01*
X161190942Y-131205014D01*
X161138600Y-131216400D01*
X122401600Y-131216400D01*
X122333479Y-131196398D01*
X122286986Y-131142742D01*
X122275600Y-131090400D01*
X122275600Y-129804669D01*
X131414001Y-129804669D01*
X131414371Y-129811490D01*
X131419895Y-129862352D01*
X131423521Y-129877604D01*
X131468676Y-129998054D01*
X131477214Y-130013649D01*
X131553715Y-130115724D01*
X131566276Y-130128285D01*
X131668351Y-130204786D01*
X131683946Y-130213324D01*
X131804394Y-130258478D01*
X131819649Y-130262105D01*
X131870514Y-130267631D01*
X131877328Y-130268000D01*
X132499885Y-130268000D01*
X132515124Y-130263525D01*
X132516329Y-130262135D01*
X132518000Y-130254452D01*
X132518000Y-130249884D01*
X133026000Y-130249884D01*
X133030475Y-130265123D01*
X133031865Y-130266328D01*
X133039548Y-130267999D01*
X133666669Y-130267999D01*
X133673490Y-130267629D01*
X133724352Y-130262105D01*
X133739604Y-130258479D01*
X133860054Y-130213324D01*
X133875649Y-130204786D01*
X133977724Y-130128285D01*
X133990285Y-130115724D01*
X134066786Y-130013649D01*
X134075324Y-129998054D01*
X134120478Y-129877606D01*
X134124105Y-129862351D01*
X134129631Y-129811486D01*
X134130000Y-129804672D01*
X134130000Y-129182115D01*
X134125525Y-129166876D01*
X134124135Y-129165671D01*
X134116452Y-129164000D01*
X133044115Y-129164000D01*
X133028876Y-129168475D01*
X133027671Y-129169865D01*
X133026000Y-129177548D01*
X133026000Y-130249884D01*
X132518000Y-130249884D01*
X132518000Y-129182115D01*
X132513525Y-129166876D01*
X132512135Y-129165671D01*
X132504452Y-129164000D01*
X131432116Y-129164000D01*
X131416877Y-129168475D01*
X131415672Y-129169865D01*
X131414001Y-129177548D01*
X131414001Y-129804669D01*
X122275600Y-129804669D01*
X122275600Y-128778095D01*
X134809001Y-128778095D01*
X134809338Y-128784614D01*
X134819257Y-128880206D01*
X134822149Y-128893600D01*
X134873588Y-129047784D01*
X134879761Y-129060962D01*
X134965063Y-129198807D01*
X134974099Y-129210208D01*
X135088829Y-129324739D01*
X135100240Y-129333751D01*
X135238243Y-129418816D01*
X135251424Y-129424963D01*
X135405710Y-129476138D01*
X135419086Y-129479005D01*
X135513438Y-129488672D01*
X135519854Y-129489000D01*
X135744885Y-129489000D01*
X135760124Y-129484525D01*
X135761329Y-129483135D01*
X135763000Y-129475452D01*
X135763000Y-129470884D01*
X136271000Y-129470884D01*
X136275475Y-129486123D01*
X136276865Y-129487328D01*
X136284548Y-129488999D01*
X136514095Y-129488999D01*
X136520614Y-129488662D01*
X136616206Y-129478743D01*
X136629600Y-129475851D01*
X136783784Y-129424412D01*
X136796962Y-129418239D01*
X136934807Y-129332937D01*
X136946208Y-129323901D01*
X137060739Y-129209171D01*
X137069751Y-129197760D01*
X137154816Y-129059757D01*
X137160963Y-129046576D01*
X137212138Y-128892290D01*
X137215005Y-128878914D01*
X137224672Y-128784562D01*
X137225000Y-128778146D01*
X137225000Y-128653115D01*
X137220525Y-128637876D01*
X137219135Y-128636671D01*
X137211452Y-128635000D01*
X136289115Y-128635000D01*
X136273876Y-128639475D01*
X136272671Y-128640865D01*
X136271000Y-128648548D01*
X136271000Y-129470884D01*
X135763000Y-129470884D01*
X135763000Y-128653115D01*
X135758525Y-128637876D01*
X135757135Y-128636671D01*
X135749452Y-128635000D01*
X134827116Y-128635000D01*
X134811877Y-128639475D01*
X134810672Y-128640865D01*
X134809001Y-128648548D01*
X134809001Y-128778095D01*
X122275600Y-128778095D01*
X122275600Y-122941669D01*
X131484001Y-122941669D01*
X131484371Y-122948490D01*
X131489895Y-122999352D01*
X131493521Y-123014604D01*
X131538676Y-123135054D01*
X131547214Y-123150649D01*
X131623715Y-123252724D01*
X131636276Y-123265285D01*
X131738351Y-123341786D01*
X131753946Y-123350324D01*
X131874394Y-123395478D01*
X131889649Y-123399105D01*
X131940514Y-123404631D01*
X131947328Y-123405000D01*
X132569885Y-123405000D01*
X132585124Y-123400525D01*
X132586329Y-123399135D01*
X132588000Y-123391452D01*
X132588000Y-123386884D01*
X133096000Y-123386884D01*
X133100475Y-123402123D01*
X133101865Y-123403328D01*
X133109548Y-123404999D01*
X133736669Y-123404999D01*
X133743490Y-123404629D01*
X133794352Y-123399105D01*
X133809604Y-123395479D01*
X133930054Y-123350324D01*
X133945649Y-123341786D01*
X134047724Y-123265285D01*
X134060285Y-123252724D01*
X134136786Y-123150649D01*
X134145324Y-123135054D01*
X134190478Y-123014606D01*
X134194105Y-122999351D01*
X134199631Y-122948486D01*
X134200000Y-122941672D01*
X134200000Y-122319115D01*
X134195525Y-122303876D01*
X134194135Y-122302671D01*
X134186452Y-122301000D01*
X133114115Y-122301000D01*
X133098876Y-122305475D01*
X133097671Y-122306865D01*
X133096000Y-122314548D01*
X133096000Y-123386884D01*
X132588000Y-123386884D01*
X132588000Y-122319115D01*
X132583525Y-122303876D01*
X132582135Y-122302671D01*
X132574452Y-122301000D01*
X131502116Y-122301000D01*
X131486877Y-122305475D01*
X131485672Y-122306865D01*
X131484001Y-122314548D01*
X131484001Y-122941669D01*
X122275600Y-122941669D01*
X122275600Y-103560669D01*
X123047001Y-103560669D01*
X123047371Y-103567490D01*
X123052895Y-103618352D01*
X123056521Y-103633604D01*
X123101676Y-103754054D01*
X123110214Y-103769649D01*
X123186715Y-103871724D01*
X123199276Y-103884285D01*
X123301351Y-103960786D01*
X123316946Y-103969324D01*
X123437394Y-104014478D01*
X123452649Y-104018105D01*
X123503514Y-104023631D01*
X123510328Y-104024000D01*
X124182885Y-104024000D01*
X124198124Y-104019525D01*
X124199329Y-104018135D01*
X124201000Y-104010452D01*
X124201000Y-104005884D01*
X124709000Y-104005884D01*
X124713475Y-104021123D01*
X124714865Y-104022328D01*
X124722548Y-104023999D01*
X125399669Y-104023999D01*
X125406490Y-104023629D01*
X125457352Y-104018105D01*
X125472604Y-104014479D01*
X125593054Y-103969324D01*
X125608649Y-103960786D01*
X125710724Y-103884285D01*
X125723285Y-103871724D01*
X125799786Y-103769649D01*
X125808324Y-103754054D01*
X125829773Y-103696840D01*
X125872415Y-103640075D01*
X125938977Y-103615376D01*
X126008325Y-103630584D01*
X126028240Y-103644126D01*
X126178127Y-103768564D01*
X126184349Y-103773730D01*
X126384322Y-103890584D01*
X126600694Y-103973209D01*
X126605760Y-103974240D01*
X126605761Y-103974240D01*
X126658846Y-103985040D01*
X126827656Y-104019385D01*
X126958324Y-104024176D01*
X127053949Y-104027683D01*
X127053953Y-104027683D01*
X127059113Y-104027872D01*
X127064233Y-104027216D01*
X127064235Y-104027216D01*
X127163668Y-104014478D01*
X127288847Y-103998442D01*
X127293795Y-103996957D01*
X127293802Y-103996956D01*
X127505747Y-103933369D01*
X127510690Y-103931886D01*
X127591236Y-103892427D01*
X127714049Y-103832262D01*
X127714052Y-103832260D01*
X127718684Y-103829991D01*
X127907243Y-103695494D01*
X128071303Y-103532005D01*
X128182704Y-103376974D01*
X128238699Y-103333326D01*
X128285027Y-103324500D01*
X129928613Y-103324500D01*
X129996734Y-103344502D01*
X130037184Y-103390730D01*
X130038450Y-103389946D01*
X130131522Y-103540348D01*
X130256697Y-103665305D01*
X130262927Y-103669145D01*
X130262928Y-103669146D01*
X130400674Y-103754054D01*
X130407262Y-103758115D01*
X130444376Y-103770425D01*
X130568611Y-103811632D01*
X130568613Y-103811632D01*
X130575139Y-103813797D01*
X130581975Y-103814497D01*
X130581978Y-103814498D01*
X130625031Y-103818909D01*
X130679600Y-103824500D01*
X131480400Y-103824500D01*
X131483646Y-103824163D01*
X131483650Y-103824163D01*
X131579308Y-103814238D01*
X131579312Y-103814237D01*
X131586166Y-103813526D01*
X131592702Y-103811345D01*
X131592704Y-103811345D01*
X131740569Y-103762013D01*
X131753946Y-103757550D01*
X131904348Y-103664478D01*
X131990784Y-103577891D01*
X132053066Y-103543812D01*
X132123886Y-103548815D01*
X132168975Y-103577736D01*
X132197611Y-103606322D01*
X132256697Y-103665305D01*
X132262927Y-103669145D01*
X132262928Y-103669146D01*
X132400674Y-103754054D01*
X132407262Y-103758115D01*
X132444376Y-103770425D01*
X132568611Y-103811632D01*
X132568613Y-103811632D01*
X132575139Y-103813797D01*
X132581975Y-103814497D01*
X132581978Y-103814498D01*
X132625031Y-103818909D01*
X132679600Y-103824500D01*
X133480400Y-103824500D01*
X133483646Y-103824163D01*
X133483650Y-103824163D01*
X133579308Y-103814238D01*
X133579312Y-103814237D01*
X133586166Y-103813526D01*
X133592702Y-103811345D01*
X133592704Y-103811345D01*
X133740569Y-103762013D01*
X133753946Y-103757550D01*
X133904348Y-103664478D01*
X134029305Y-103539303D01*
X134039276Y-103523128D01*
X134064253Y-103482607D01*
X134117024Y-103435113D01*
X134187096Y-103423689D01*
X134222761Y-103433615D01*
X134337712Y-103484794D01*
X134431113Y-103504647D01*
X134518056Y-103523128D01*
X134518061Y-103523128D01*
X134524513Y-103524500D01*
X134715487Y-103524500D01*
X134721939Y-103523128D01*
X134721944Y-103523128D01*
X134808888Y-103504647D01*
X134902288Y-103484794D01*
X134943856Y-103466287D01*
X135070722Y-103409803D01*
X135070724Y-103409802D01*
X135076752Y-103407118D01*
X135118242Y-103376974D01*
X135163740Y-103343917D01*
X135231253Y-103294866D01*
X135268736Y-103253237D01*
X135354621Y-103157852D01*
X135354622Y-103157851D01*
X135359040Y-103152944D01*
X135454527Y-102987556D01*
X135513542Y-102805928D01*
X135533504Y-102616000D01*
X135513542Y-102426072D01*
X135454527Y-102244444D01*
X135359040Y-102079056D01*
X135231253Y-101937134D01*
X135076752Y-101824882D01*
X135070724Y-101822198D01*
X135070722Y-101822197D01*
X134908319Y-101749891D01*
X134908318Y-101749891D01*
X134902288Y-101747206D01*
X134805176Y-101726564D01*
X134721944Y-101708872D01*
X134721939Y-101708872D01*
X134715487Y-101707500D01*
X134524513Y-101707500D01*
X134518061Y-101708872D01*
X134518056Y-101708872D01*
X134434824Y-101726564D01*
X134337712Y-101747206D01*
X134331682Y-101749891D01*
X134331681Y-101749891D01*
X134313459Y-101758004D01*
X134226668Y-101796646D01*
X134222728Y-101798400D01*
X134152361Y-101807834D01*
X134088064Y-101777728D01*
X134064335Y-101749596D01*
X134032332Y-101697880D01*
X134028478Y-101691652D01*
X133903303Y-101566695D01*
X133885972Y-101556012D01*
X133758968Y-101477725D01*
X133758966Y-101477724D01*
X133752738Y-101473885D01*
X133656640Y-101442011D01*
X133591389Y-101420368D01*
X133591387Y-101420368D01*
X133584861Y-101418203D01*
X133578025Y-101417503D01*
X133578022Y-101417502D01*
X133534969Y-101413091D01*
X133480400Y-101407500D01*
X132679600Y-101407500D01*
X132676354Y-101407837D01*
X132676350Y-101407837D01*
X132580692Y-101417762D01*
X132580688Y-101417763D01*
X132573834Y-101418474D01*
X132567298Y-101420655D01*
X132567296Y-101420655D01*
X132503285Y-101442011D01*
X132406054Y-101474450D01*
X132255652Y-101567522D01*
X132237026Y-101586181D01*
X132169216Y-101654109D01*
X132106934Y-101688188D01*
X132036114Y-101683185D01*
X131991025Y-101654264D01*
X131908483Y-101571866D01*
X131903303Y-101566695D01*
X131885972Y-101556012D01*
X131758968Y-101477725D01*
X131758966Y-101477724D01*
X131752738Y-101473885D01*
X131656640Y-101442011D01*
X131591389Y-101420368D01*
X131591387Y-101420368D01*
X131584861Y-101418203D01*
X131578025Y-101417503D01*
X131578022Y-101417502D01*
X131534969Y-101413091D01*
X131480400Y-101407500D01*
X130679600Y-101407500D01*
X130676354Y-101407837D01*
X130676350Y-101407837D01*
X130580692Y-101417762D01*
X130580688Y-101417763D01*
X130573834Y-101418474D01*
X130567298Y-101420655D01*
X130567296Y-101420655D01*
X130503285Y-101442011D01*
X130406054Y-101474450D01*
X130255652Y-101567522D01*
X130130695Y-101692697D01*
X130126855Y-101698927D01*
X130126854Y-101698928D01*
X130097941Y-101745834D01*
X130037885Y-101843262D01*
X130036205Y-101842226D01*
X129995879Y-101888031D01*
X129928595Y-101907500D01*
X128282840Y-101907500D01*
X128214719Y-101887498D01*
X128177048Y-101849941D01*
X128143705Y-101798400D01*
X128114764Y-101753665D01*
X128107639Y-101745834D01*
X128064004Y-101697880D01*
X127958887Y-101582358D01*
X127954836Y-101579159D01*
X127954832Y-101579155D01*
X127781177Y-101442011D01*
X127781172Y-101442008D01*
X127777123Y-101438810D01*
X127772607Y-101436317D01*
X127772604Y-101436315D01*
X127578879Y-101329373D01*
X127578875Y-101329371D01*
X127574355Y-101326876D01*
X127569486Y-101325152D01*
X127569482Y-101325150D01*
X127360903Y-101251288D01*
X127360899Y-101251287D01*
X127356028Y-101249562D01*
X127350935Y-101248655D01*
X127350932Y-101248654D01*
X127133095Y-101209851D01*
X127133089Y-101209850D01*
X127128006Y-101208945D01*
X127050644Y-101208000D01*
X126901581Y-101206179D01*
X126901579Y-101206179D01*
X126896411Y-101206116D01*
X126667464Y-101241150D01*
X126447314Y-101313106D01*
X126442726Y-101315494D01*
X126442722Y-101315496D01*
X126246461Y-101417663D01*
X126241872Y-101420052D01*
X126237739Y-101423155D01*
X126237736Y-101423157D01*
X126060790Y-101556012D01*
X126056655Y-101559117D01*
X126053084Y-101562854D01*
X126053083Y-101562855D01*
X126038787Y-101577815D01*
X125977263Y-101613245D01*
X125906351Y-101609788D01*
X125848564Y-101568543D01*
X125829711Y-101534994D01*
X125808324Y-101477946D01*
X125799786Y-101462351D01*
X125723285Y-101360276D01*
X125710724Y-101347715D01*
X125608649Y-101271214D01*
X125593054Y-101262676D01*
X125472606Y-101217522D01*
X125457351Y-101213895D01*
X125406486Y-101208369D01*
X125399672Y-101208000D01*
X124727115Y-101208000D01*
X124711876Y-101212475D01*
X124710671Y-101213865D01*
X124709000Y-101221548D01*
X124709000Y-104005884D01*
X124201000Y-104005884D01*
X124201000Y-102888115D01*
X124196525Y-102872876D01*
X124195135Y-102871671D01*
X124187452Y-102870000D01*
X123065116Y-102870000D01*
X123049877Y-102874475D01*
X123048672Y-102875865D01*
X123047001Y-102883548D01*
X123047001Y-103560669D01*
X122275600Y-103560669D01*
X122275600Y-102343885D01*
X123047000Y-102343885D01*
X123051475Y-102359124D01*
X123052865Y-102360329D01*
X123060548Y-102362000D01*
X124182885Y-102362000D01*
X124198124Y-102357525D01*
X124199329Y-102356135D01*
X124201000Y-102348452D01*
X124201000Y-101226116D01*
X124196525Y-101210877D01*
X124195135Y-101209672D01*
X124187452Y-101208001D01*
X123510331Y-101208001D01*
X123503510Y-101208371D01*
X123452648Y-101213895D01*
X123437396Y-101217521D01*
X123316946Y-101262676D01*
X123301351Y-101271214D01*
X123199276Y-101347715D01*
X123186715Y-101360276D01*
X123110214Y-101462351D01*
X123101676Y-101477946D01*
X123056522Y-101598394D01*
X123052895Y-101613649D01*
X123047369Y-101664514D01*
X123047000Y-101671328D01*
X123047000Y-102343885D01*
X122275600Y-102343885D01*
X122275600Y-91090692D01*
X129638300Y-91090692D01*
X129638301Y-94315365D01*
X129638361Y-94316734D01*
X129638361Y-94316745D01*
X129640293Y-94361000D01*
X129641057Y-94378509D01*
X129641615Y-94382031D01*
X129684309Y-94651600D01*
X129684311Y-94651607D01*
X129684998Y-94655947D01*
X129707378Y-94729149D01*
X129758985Y-94897944D01*
X129767125Y-94924569D01*
X129768985Y-94928558D01*
X129768987Y-94928563D01*
X129883974Y-95175155D01*
X129883977Y-95175161D01*
X129885836Y-95179147D01*
X129888237Y-95182844D01*
X130006997Y-95365718D01*
X130038823Y-95414726D01*
X130223108Y-95626721D01*
X130435103Y-95811006D01*
X130438794Y-95813403D01*
X130438798Y-95813406D01*
X130560740Y-95892596D01*
X130670682Y-95963993D01*
X130674668Y-95965852D01*
X130674674Y-95965855D01*
X130921266Y-96080842D01*
X130921271Y-96080844D01*
X130925260Y-96082704D01*
X130929473Y-96083992D01*
X130929478Y-96083994D01*
X131092286Y-96133770D01*
X131193882Y-96164831D01*
X131198222Y-96165518D01*
X131198229Y-96165520D01*
X131456509Y-96206426D01*
X131471320Y-96208772D01*
X131474881Y-96208927D01*
X131474886Y-96208928D01*
X131533087Y-96211469D01*
X131533091Y-96211469D01*
X131534463Y-96211529D01*
X133145629Y-96211529D01*
X134759136Y-96211528D01*
X134760505Y-96211468D01*
X134760516Y-96211468D01*
X134818714Y-96208928D01*
X134818720Y-96208927D01*
X134822280Y-96208772D01*
X134895755Y-96197135D01*
X135095371Y-96165520D01*
X135095378Y-96165518D01*
X135099718Y-96164831D01*
X135201314Y-96133770D01*
X135364122Y-96083994D01*
X135364127Y-96083992D01*
X135368340Y-96082704D01*
X135372329Y-96080844D01*
X135372334Y-96080842D01*
X135618926Y-95965855D01*
X135618932Y-95965852D01*
X135622918Y-95963993D01*
X135732860Y-95892596D01*
X135854802Y-95813406D01*
X135854806Y-95813403D01*
X135858497Y-95811006D01*
X136070492Y-95626721D01*
X136254777Y-95414726D01*
X136286604Y-95365718D01*
X136405363Y-95182844D01*
X136407764Y-95179147D01*
X136409623Y-95175161D01*
X136409626Y-95175155D01*
X136524613Y-94928563D01*
X136524615Y-94928558D01*
X136526475Y-94924569D01*
X136534616Y-94897944D01*
X136586222Y-94729149D01*
X136608602Y-94655947D01*
X136609289Y-94651607D01*
X136609291Y-94651600D01*
X136651985Y-94382032D01*
X136651985Y-94382031D01*
X136652543Y-94378509D01*
X136653308Y-94361000D01*
X136654268Y-94339003D01*
X136677223Y-94271820D01*
X136732855Y-94227712D01*
X136780148Y-94218500D01*
X141420928Y-94218500D01*
X141424446Y-94218549D01*
X141519094Y-94221193D01*
X141519097Y-94221193D01*
X141524149Y-94221334D01*
X141602042Y-94210941D01*
X141608583Y-94210242D01*
X141637276Y-94207933D01*
X141681867Y-94204346D01*
X141681871Y-94204345D01*
X141686909Y-94203940D01*
X141718822Y-94196101D01*
X141732202Y-94193574D01*
X141764764Y-94189229D01*
X141769605Y-94187768D01*
X141769607Y-94187767D01*
X141839973Y-94166522D01*
X141846336Y-94164781D01*
X141922650Y-94146037D01*
X141952896Y-94133199D01*
X141965707Y-94128561D01*
X141992306Y-94120530D01*
X141997152Y-94119067D01*
X142001700Y-94116849D01*
X142001707Y-94116846D01*
X142067762Y-94084629D01*
X142073764Y-94081893D01*
X142118448Y-94062925D01*
X142146100Y-94051188D01*
X142173900Y-94033681D01*
X142185804Y-94027055D01*
X142215332Y-94012654D01*
X142279544Y-93967357D01*
X142285030Y-93963699D01*
X142347230Y-93924529D01*
X142347231Y-93924528D01*
X142351511Y-93921833D01*
X142355300Y-93918492D01*
X142355306Y-93918488D01*
X142376161Y-93900102D01*
X142386856Y-93891656D01*
X142389807Y-93889574D01*
X142413691Y-93872726D01*
X142435194Y-93853091D01*
X142474910Y-93813375D01*
X142480680Y-93807956D01*
X142529802Y-93764650D01*
X142529805Y-93764647D01*
X142533599Y-93761302D01*
X142545606Y-93746685D01*
X142555056Y-93735179D01*
X142560123Y-93729011D01*
X142568393Y-93719892D01*
X142871336Y-93416949D01*
X142933648Y-93382923D01*
X142960431Y-93380044D01*
X143031534Y-93380044D01*
X143093716Y-93373289D01*
X143230105Y-93322159D01*
X143346661Y-93234805D01*
X143434015Y-93118249D01*
X143456199Y-93059073D01*
X143477998Y-93000926D01*
X143520640Y-92944162D01*
X143587202Y-92919462D01*
X143656550Y-92934670D01*
X143691217Y-92962658D01*
X143719650Y-92995482D01*
X143891526Y-93138176D01*
X144084400Y-93250882D01*
X144293092Y-93330574D01*
X144298160Y-93331605D01*
X144298163Y-93331606D01*
X144405417Y-93353427D01*
X144511997Y-93375111D01*
X144517172Y-93375301D01*
X144517174Y-93375301D01*
X144730073Y-93383108D01*
X144730077Y-93383108D01*
X144735237Y-93383297D01*
X144740357Y-93382641D01*
X144740359Y-93382641D01*
X144951688Y-93355569D01*
X144951689Y-93355569D01*
X144956816Y-93354912D01*
X144961766Y-93353427D01*
X145165829Y-93292205D01*
X145165834Y-93292203D01*
X145170784Y-93290718D01*
X145371394Y-93192440D01*
X145553260Y-93062717D01*
X145711496Y-92905033D01*
X145841853Y-92723621D01*
X145920926Y-92563629D01*
X145938536Y-92527997D01*
X145938537Y-92527995D01*
X145940830Y-92523355D01*
X146005770Y-92309613D01*
X146034929Y-92088134D01*
X146036556Y-92021544D01*
X146018252Y-91798905D01*
X145963831Y-91582246D01*
X145874754Y-91377384D01*
X145781834Y-91233751D01*
X145756222Y-91194161D01*
X145756220Y-91194158D01*
X145753414Y-91189821D01*
X145603070Y-91024595D01*
X145599019Y-91021396D01*
X145599015Y-91021392D01*
X145431814Y-90889344D01*
X145431810Y-90889342D01*
X145427759Y-90886142D01*
X145232189Y-90778182D01*
X145227320Y-90776458D01*
X145227316Y-90776456D01*
X145026487Y-90705339D01*
X145026483Y-90705338D01*
X145021612Y-90703613D01*
X145016519Y-90702706D01*
X145016516Y-90702705D01*
X144878357Y-90678095D01*
X147382001Y-90678095D01*
X147382338Y-90684614D01*
X147392257Y-90780206D01*
X147395149Y-90793600D01*
X147446588Y-90947784D01*
X147452761Y-90960962D01*
X147538063Y-91098807D01*
X147547099Y-91110208D01*
X147661829Y-91224739D01*
X147673240Y-91233751D01*
X147811243Y-91318816D01*
X147824424Y-91324963D01*
X147978710Y-91376138D01*
X147992086Y-91379005D01*
X148086438Y-91388672D01*
X148092854Y-91389000D01*
X148317885Y-91389000D01*
X148333124Y-91384525D01*
X148334329Y-91383135D01*
X148336000Y-91375452D01*
X148336000Y-90553115D01*
X148331525Y-90537876D01*
X148330135Y-90536671D01*
X148322452Y-90535000D01*
X147400116Y-90535000D01*
X147384877Y-90539475D01*
X147383672Y-90540865D01*
X147382001Y-90548548D01*
X147382001Y-90678095D01*
X144878357Y-90678095D01*
X144806773Y-90665344D01*
X144806767Y-90665343D01*
X144801684Y-90664438D01*
X144727852Y-90663536D01*
X144583481Y-90661772D01*
X144583479Y-90661772D01*
X144578311Y-90661709D01*
X144357491Y-90695499D01*
X144145156Y-90764901D01*
X143947007Y-90868051D01*
X143942874Y-90871154D01*
X143942871Y-90871156D01*
X143843553Y-90945726D01*
X143777068Y-90970632D01*
X143707672Y-90955639D01*
X143657399Y-90905509D01*
X143641900Y-90844966D01*
X143641900Y-88667631D01*
X143661902Y-88599510D01*
X143678805Y-88578536D01*
X144813666Y-87443675D01*
X144816188Y-87441221D01*
X144885012Y-87376138D01*
X144885014Y-87376135D01*
X144888681Y-87372668D01*
X144936411Y-87310239D01*
X144940552Y-87305108D01*
X144988191Y-87249133D01*
X144988192Y-87249132D01*
X144991470Y-87245280D01*
X144994089Y-87240955D01*
X144994093Y-87240950D01*
X145008491Y-87217176D01*
X145016163Y-87205929D01*
X145036120Y-87179826D01*
X145047053Y-87159437D01*
X145049032Y-87155745D01*
X145073243Y-87110592D01*
X145076507Y-87104868D01*
X145093602Y-87076642D01*
X145117221Y-87037642D01*
X145119116Y-87032953D01*
X145119119Y-87032946D01*
X145129533Y-87007172D01*
X145135312Y-86994836D01*
X145148440Y-86970351D01*
X145148442Y-86970347D01*
X145150831Y-86965891D01*
X145158968Y-86942261D01*
X145176405Y-86891619D01*
X145178715Y-86885439D01*
X145182206Y-86876800D01*
X145206026Y-86817844D01*
X145206263Y-86817257D01*
X145206264Y-86817254D01*
X145208156Y-86812571D01*
X145215436Y-86780529D01*
X145219169Y-86767425D01*
X145228216Y-86741149D01*
X145229862Y-86736369D01*
X145230722Y-86731389D01*
X145230725Y-86731378D01*
X145243238Y-86658935D01*
X145244530Y-86652467D01*
X145260815Y-86580788D01*
X145260816Y-86580779D01*
X145261935Y-86575855D01*
X145263999Y-86543049D01*
X145265586Y-86529545D01*
X145269816Y-86505057D01*
X145270505Y-86501067D01*
X145270505Y-86501064D01*
X145271179Y-86497164D01*
X145272500Y-86468075D01*
X145272500Y-86411892D01*
X145272749Y-86403980D01*
X145276860Y-86338641D01*
X145277178Y-86333587D01*
X145273101Y-86292006D01*
X145272500Y-86279711D01*
X145272500Y-77482522D01*
X149593273Y-77482522D01*
X149640764Y-77659761D01*
X149644510Y-77670053D01*
X149736586Y-77867511D01*
X149742069Y-77877007D01*
X149867028Y-78055467D01*
X149874084Y-78063875D01*
X150028125Y-78217916D01*
X150036533Y-78224972D01*
X150214993Y-78349931D01*
X150224489Y-78355414D01*
X150421947Y-78447490D01*
X150432239Y-78451236D01*
X150604503Y-78497394D01*
X150618599Y-78497058D01*
X150622000Y-78489116D01*
X150622000Y-78483967D01*
X151130000Y-78483967D01*
X151133973Y-78497498D01*
X151142522Y-78498727D01*
X151319761Y-78451236D01*
X151330053Y-78447490D01*
X151527511Y-78355414D01*
X151537007Y-78349931D01*
X151715467Y-78224972D01*
X151723875Y-78217916D01*
X151877916Y-78063875D01*
X151884972Y-78055467D01*
X152009931Y-77877007D01*
X152015414Y-77867511D01*
X152031805Y-77832359D01*
X152078722Y-77779074D01*
X152146999Y-77759613D01*
X152214959Y-77780155D01*
X152260195Y-77832359D01*
X152276586Y-77867511D01*
X152282069Y-77877007D01*
X152407028Y-78055467D01*
X152414084Y-78063875D01*
X152568125Y-78217916D01*
X152576533Y-78224972D01*
X152754993Y-78349931D01*
X152764489Y-78355414D01*
X152961947Y-78447490D01*
X152972239Y-78451236D01*
X153144503Y-78497394D01*
X153158599Y-78497058D01*
X153162000Y-78489116D01*
X153162000Y-78483967D01*
X153670000Y-78483967D01*
X153673973Y-78497498D01*
X153682522Y-78498727D01*
X153859761Y-78451236D01*
X153870053Y-78447490D01*
X154067511Y-78355414D01*
X154077007Y-78349931D01*
X154255467Y-78224972D01*
X154263875Y-78217916D01*
X154417916Y-78063875D01*
X154424972Y-78055467D01*
X154549931Y-77877007D01*
X154555414Y-77867511D01*
X154571805Y-77832359D01*
X154618722Y-77779074D01*
X154686999Y-77759613D01*
X154754959Y-77780155D01*
X154800195Y-77832359D01*
X154816586Y-77867511D01*
X154822069Y-77877007D01*
X154947028Y-78055467D01*
X154954084Y-78063875D01*
X155108125Y-78217916D01*
X155116533Y-78224972D01*
X155294993Y-78349931D01*
X155304489Y-78355414D01*
X155501947Y-78447490D01*
X155512239Y-78451236D01*
X155684503Y-78497394D01*
X155698599Y-78497058D01*
X155702000Y-78489116D01*
X155702000Y-78483967D01*
X156210000Y-78483967D01*
X156213973Y-78497498D01*
X156222522Y-78498727D01*
X156399761Y-78451236D01*
X156410053Y-78447490D01*
X156607511Y-78355414D01*
X156617007Y-78349931D01*
X156795467Y-78224972D01*
X156803875Y-78217916D01*
X156957916Y-78063875D01*
X156968507Y-78051254D01*
X156969357Y-78051968D01*
X157020422Y-78011152D01*
X157091041Y-78003844D01*
X157154401Y-78035877D01*
X157190385Y-78097079D01*
X157193438Y-78114145D01*
X157193895Y-78118353D01*
X157197521Y-78133604D01*
X157242676Y-78254054D01*
X157251214Y-78269649D01*
X157327715Y-78371724D01*
X157340276Y-78384285D01*
X157442351Y-78460786D01*
X157457946Y-78469324D01*
X157578394Y-78514478D01*
X157593649Y-78518105D01*
X157644514Y-78523631D01*
X157651328Y-78524000D01*
X158223885Y-78524000D01*
X158239124Y-78519525D01*
X158240329Y-78518135D01*
X158242000Y-78510452D01*
X158242000Y-78505884D01*
X158750000Y-78505884D01*
X158754475Y-78521123D01*
X158755865Y-78522328D01*
X158763548Y-78523999D01*
X159340669Y-78523999D01*
X159347490Y-78523629D01*
X159398352Y-78518105D01*
X159413604Y-78514479D01*
X159534054Y-78469324D01*
X159549649Y-78460786D01*
X159651724Y-78384285D01*
X159664285Y-78371724D01*
X159740786Y-78269649D01*
X159749324Y-78254054D01*
X159794478Y-78133606D01*
X159798105Y-78118351D01*
X159803631Y-78067486D01*
X159804000Y-78060672D01*
X159804000Y-77488115D01*
X159799525Y-77472876D01*
X159798135Y-77471671D01*
X159790452Y-77470000D01*
X158768115Y-77470000D01*
X158752876Y-77474475D01*
X158751671Y-77475865D01*
X158750000Y-77483548D01*
X158750000Y-78505884D01*
X158242000Y-78505884D01*
X158242000Y-77488115D01*
X158237525Y-77472876D01*
X158236135Y-77471671D01*
X158228452Y-77470000D01*
X156228115Y-77470000D01*
X156212876Y-77474475D01*
X156211671Y-77475865D01*
X156210000Y-77483548D01*
X156210000Y-78483967D01*
X155702000Y-78483967D01*
X155702000Y-77488115D01*
X155697525Y-77472876D01*
X155696135Y-77471671D01*
X155688452Y-77470000D01*
X153688115Y-77470000D01*
X153672876Y-77474475D01*
X153671671Y-77475865D01*
X153670000Y-77483548D01*
X153670000Y-78483967D01*
X153162000Y-78483967D01*
X153162000Y-77488115D01*
X153157525Y-77472876D01*
X153156135Y-77471671D01*
X153148452Y-77470000D01*
X151148115Y-77470000D01*
X151132876Y-77474475D01*
X151131671Y-77475865D01*
X151130000Y-77483548D01*
X151130000Y-78483967D01*
X150622000Y-78483967D01*
X150622000Y-77488115D01*
X150617525Y-77472876D01*
X150616135Y-77471671D01*
X150608452Y-77470000D01*
X149608033Y-77470000D01*
X149594502Y-77473973D01*
X149593273Y-77482522D01*
X145272500Y-77482522D01*
X145272500Y-76944503D01*
X149594606Y-76944503D01*
X149594942Y-76958599D01*
X149602884Y-76962000D01*
X150603885Y-76962000D01*
X150619124Y-76957525D01*
X150620329Y-76956135D01*
X150622000Y-76948452D01*
X150622000Y-76943885D01*
X151130000Y-76943885D01*
X151134475Y-76959124D01*
X151135865Y-76960329D01*
X151143548Y-76962000D01*
X153143885Y-76962000D01*
X153159124Y-76957525D01*
X153160329Y-76956135D01*
X153162000Y-76948452D01*
X153162000Y-76943885D01*
X153670000Y-76943885D01*
X153674475Y-76959124D01*
X153675865Y-76960329D01*
X153683548Y-76962000D01*
X155683885Y-76962000D01*
X155699124Y-76957525D01*
X155700329Y-76956135D01*
X155702000Y-76948452D01*
X155702000Y-76943885D01*
X156210000Y-76943885D01*
X156214475Y-76959124D01*
X156215865Y-76960329D01*
X156223548Y-76962000D01*
X158223885Y-76962000D01*
X158239124Y-76957525D01*
X158240329Y-76956135D01*
X158242000Y-76948452D01*
X158242000Y-76943885D01*
X158750000Y-76943885D01*
X158754475Y-76959124D01*
X158755865Y-76960329D01*
X158763548Y-76962000D01*
X159785884Y-76962000D01*
X159801123Y-76957525D01*
X159802328Y-76956135D01*
X159803999Y-76948452D01*
X159803999Y-76371331D01*
X159803629Y-76364510D01*
X159798105Y-76313648D01*
X159794479Y-76298396D01*
X159749324Y-76177946D01*
X159740786Y-76162351D01*
X159664285Y-76060276D01*
X159651724Y-76047715D01*
X159549649Y-75971214D01*
X159534054Y-75962676D01*
X159413606Y-75917522D01*
X159398351Y-75913895D01*
X159347486Y-75908369D01*
X159340672Y-75908000D01*
X158768115Y-75908000D01*
X158752876Y-75912475D01*
X158751671Y-75913865D01*
X158750000Y-75921548D01*
X158750000Y-76943885D01*
X158242000Y-76943885D01*
X158242000Y-75926116D01*
X158237525Y-75910877D01*
X158236135Y-75909672D01*
X158228452Y-75908001D01*
X157651331Y-75908001D01*
X157644510Y-75908371D01*
X157593648Y-75913895D01*
X157578396Y-75917521D01*
X157457946Y-75962676D01*
X157442351Y-75971214D01*
X157340276Y-76047715D01*
X157327715Y-76060276D01*
X157251214Y-76162351D01*
X157242676Y-76177946D01*
X157197522Y-76298394D01*
X157193896Y-76313643D01*
X157193439Y-76317851D01*
X157192168Y-76320910D01*
X157192068Y-76321331D01*
X157192000Y-76321315D01*
X157166199Y-76383414D01*
X157107837Y-76423843D01*
X157036883Y-76426301D01*
X156975864Y-76390008D01*
X156965028Y-76376600D01*
X156957916Y-76368125D01*
X156803875Y-76214084D01*
X156795467Y-76207028D01*
X156617007Y-76082069D01*
X156607511Y-76076586D01*
X156410053Y-75984510D01*
X156399761Y-75980764D01*
X156227497Y-75934606D01*
X156213401Y-75934942D01*
X156210000Y-75942884D01*
X156210000Y-76943885D01*
X155702000Y-76943885D01*
X155702000Y-75948033D01*
X155698027Y-75934502D01*
X155689478Y-75933273D01*
X155512239Y-75980764D01*
X155501947Y-75984510D01*
X155304489Y-76076586D01*
X155294993Y-76082069D01*
X155116533Y-76207028D01*
X155108125Y-76214084D01*
X154954084Y-76368125D01*
X154947028Y-76376533D01*
X154822069Y-76554993D01*
X154816586Y-76564489D01*
X154800195Y-76599641D01*
X154753278Y-76652926D01*
X154685001Y-76672387D01*
X154617041Y-76651845D01*
X154571805Y-76599641D01*
X154555414Y-76564489D01*
X154549931Y-76554993D01*
X154424972Y-76376533D01*
X154417916Y-76368125D01*
X154263875Y-76214084D01*
X154255467Y-76207028D01*
X154077007Y-76082069D01*
X154067511Y-76076586D01*
X153870053Y-75984510D01*
X153859761Y-75980764D01*
X153687497Y-75934606D01*
X153673401Y-75934942D01*
X153670000Y-75942884D01*
X153670000Y-76943885D01*
X153162000Y-76943885D01*
X153162000Y-75948033D01*
X153158027Y-75934502D01*
X153149478Y-75933273D01*
X152972239Y-75980764D01*
X152961947Y-75984510D01*
X152764489Y-76076586D01*
X152754993Y-76082069D01*
X152576533Y-76207028D01*
X152568125Y-76214084D01*
X152414084Y-76368125D01*
X152407028Y-76376533D01*
X152282069Y-76554993D01*
X152276586Y-76564489D01*
X152260195Y-76599641D01*
X152213278Y-76652926D01*
X152145001Y-76672387D01*
X152077041Y-76651845D01*
X152031805Y-76599641D01*
X152015414Y-76564489D01*
X152009931Y-76554993D01*
X151884972Y-76376533D01*
X151877916Y-76368125D01*
X151723875Y-76214084D01*
X151715467Y-76207028D01*
X151537007Y-76082069D01*
X151527511Y-76076586D01*
X151330053Y-75984510D01*
X151319761Y-75980764D01*
X151147497Y-75934606D01*
X151133401Y-75934942D01*
X151130000Y-75942884D01*
X151130000Y-76943885D01*
X150622000Y-76943885D01*
X150622000Y-75948033D01*
X150618027Y-75934502D01*
X150609478Y-75933273D01*
X150432239Y-75980764D01*
X150421947Y-75984510D01*
X150224489Y-76076586D01*
X150214993Y-76082069D01*
X150036533Y-76207028D01*
X150028125Y-76214084D01*
X149874084Y-76368125D01*
X149867028Y-76376533D01*
X149742069Y-76554993D01*
X149736586Y-76564489D01*
X149644510Y-76761947D01*
X149640764Y-76772239D01*
X149594606Y-76944503D01*
X145272500Y-76944503D01*
X145272500Y-70382002D01*
X145272549Y-70378483D01*
X145275193Y-70283850D01*
X145275193Y-70283847D01*
X145275334Y-70278795D01*
X145264941Y-70200902D01*
X145264241Y-70194353D01*
X145258346Y-70121077D01*
X145258345Y-70121073D01*
X145257940Y-70116035D01*
X145250101Y-70084122D01*
X145247573Y-70070738D01*
X145243898Y-70043194D01*
X145243229Y-70038180D01*
X145220522Y-69962971D01*
X145218781Y-69956608D01*
X145201244Y-69885209D01*
X145200037Y-69880294D01*
X145187199Y-69850048D01*
X145182561Y-69837237D01*
X145174530Y-69810638D01*
X145173067Y-69805792D01*
X145170849Y-69801244D01*
X145170846Y-69801237D01*
X145138629Y-69735182D01*
X145135893Y-69729180D01*
X145107162Y-69661495D01*
X145105188Y-69656844D01*
X145087681Y-69629044D01*
X145081052Y-69617134D01*
X145066654Y-69587612D01*
X145021357Y-69523400D01*
X145017699Y-69517914D01*
X144978529Y-69455714D01*
X144978528Y-69455713D01*
X144975833Y-69451433D01*
X144972492Y-69447644D01*
X144972488Y-69447638D01*
X144954102Y-69426783D01*
X144945656Y-69416088D01*
X144929009Y-69392490D01*
X144926726Y-69389253D01*
X144907091Y-69367750D01*
X144867375Y-69328034D01*
X144861956Y-69322264D01*
X144818650Y-69273142D01*
X144818647Y-69273139D01*
X144815302Y-69269345D01*
X144783011Y-69242821D01*
X144773892Y-69234551D01*
X140776704Y-65237363D01*
X140774250Y-65234841D01*
X140709167Y-65166017D01*
X140709164Y-65166015D01*
X140705697Y-65162348D01*
X140643268Y-65114618D01*
X140638137Y-65110477D01*
X140582162Y-65062838D01*
X140582161Y-65062837D01*
X140578309Y-65059559D01*
X140573984Y-65056940D01*
X140573979Y-65056936D01*
X140550205Y-65042538D01*
X140538958Y-65034866D01*
X140512855Y-65014909D01*
X140443621Y-64977786D01*
X140437897Y-64974522D01*
X140374995Y-64936427D01*
X140370671Y-64933808D01*
X140340210Y-64921501D01*
X140327870Y-64915721D01*
X140303379Y-64902589D01*
X140303380Y-64902589D01*
X140298920Y-64900198D01*
X140294139Y-64898552D01*
X140294135Y-64898550D01*
X140224628Y-64874617D01*
X140218450Y-64872307D01*
X140150295Y-64844771D01*
X140150296Y-64844771D01*
X140145600Y-64842874D01*
X140113568Y-64835597D01*
X140100470Y-64831866D01*
X140069398Y-64821167D01*
X139991929Y-64807786D01*
X139985525Y-64806506D01*
X139908885Y-64789094D01*
X139876076Y-64787030D01*
X139862576Y-64785444D01*
X139830193Y-64779850D01*
X139826236Y-64779670D01*
X139826233Y-64779670D01*
X139802523Y-64778593D01*
X139802504Y-64778593D01*
X139801104Y-64778529D01*
X139744921Y-64778529D01*
X139737009Y-64778280D01*
X139731415Y-64777928D01*
X139666616Y-64773851D01*
X139627574Y-64777679D01*
X139625037Y-64777928D01*
X139612741Y-64778529D01*
X136780451Y-64778529D01*
X136712330Y-64758527D01*
X136665837Y-64704871D01*
X136654571Y-64658022D01*
X136652699Y-64615115D01*
X136652698Y-64615109D01*
X136652543Y-64611549D01*
X136640906Y-64538074D01*
X136609291Y-64338458D01*
X136609289Y-64338451D01*
X136608602Y-64334111D01*
X136526475Y-64065489D01*
X136524613Y-64061495D01*
X136409626Y-63814903D01*
X136409623Y-63814897D01*
X136407764Y-63810911D01*
X136254777Y-63575332D01*
X136070492Y-63363337D01*
X135858497Y-63179052D01*
X135854806Y-63176655D01*
X135854802Y-63176652D01*
X135626615Y-63028466D01*
X135622918Y-63026065D01*
X135618932Y-63024206D01*
X135618926Y-63024203D01*
X135372334Y-62909216D01*
X135372329Y-62909214D01*
X135368340Y-62907354D01*
X135364127Y-62906066D01*
X135364122Y-62906064D01*
X135201314Y-62856288D01*
X135099718Y-62825227D01*
X135095378Y-62824540D01*
X135095371Y-62824538D01*
X134825803Y-62781844D01*
X134822280Y-62781286D01*
X134818719Y-62781131D01*
X134818714Y-62781130D01*
X134760513Y-62778589D01*
X134760509Y-62778589D01*
X134759137Y-62778529D01*
X133147971Y-62778529D01*
X131534464Y-62778530D01*
X131533095Y-62778590D01*
X131533084Y-62778590D01*
X131474886Y-62781130D01*
X131474880Y-62781131D01*
X131471320Y-62781286D01*
X131397845Y-62792923D01*
X131198229Y-62824538D01*
X131198222Y-62824540D01*
X131193882Y-62825227D01*
X131092286Y-62856288D01*
X130929478Y-62906064D01*
X130929473Y-62906066D01*
X130925260Y-62907354D01*
X130921271Y-62909214D01*
X130921266Y-62909216D01*
X130674674Y-63024203D01*
X130674668Y-63024206D01*
X130670682Y-63026065D01*
X130666985Y-63028466D01*
X130438798Y-63176652D01*
X130438794Y-63176655D01*
X130435103Y-63179052D01*
X130223108Y-63363337D01*
X130038823Y-63575332D01*
X129885836Y-63810911D01*
X129883977Y-63814897D01*
X129883974Y-63814903D01*
X129768987Y-64061495D01*
X129767125Y-64065489D01*
X129684998Y-64334111D01*
X129684311Y-64338451D01*
X129684309Y-64338458D01*
X129643403Y-64596738D01*
X129641057Y-64611549D01*
X129638300Y-64674692D01*
X129638301Y-67899365D01*
X129641057Y-67962509D01*
X129641615Y-67966031D01*
X129684309Y-68235600D01*
X129684311Y-68235607D01*
X129684998Y-68239947D01*
X129767125Y-68508569D01*
X129768985Y-68512558D01*
X129768987Y-68512563D01*
X129883974Y-68759155D01*
X129883977Y-68759161D01*
X129885836Y-68763147D01*
X130038823Y-68998726D01*
X130223108Y-69210721D01*
X130435103Y-69395006D01*
X130438794Y-69397403D01*
X130438798Y-69397406D01*
X130528585Y-69455714D01*
X130670682Y-69547993D01*
X130674668Y-69549852D01*
X130674674Y-69549855D01*
X130921266Y-69664842D01*
X130921271Y-69664844D01*
X130925260Y-69666704D01*
X130929473Y-69667992D01*
X130929478Y-69667994D01*
X131092286Y-69717770D01*
X131193882Y-69748831D01*
X131198222Y-69749518D01*
X131198229Y-69749520D01*
X131456509Y-69790426D01*
X131471320Y-69792772D01*
X131474881Y-69792927D01*
X131474886Y-69792928D01*
X131533087Y-69795469D01*
X131533091Y-69795469D01*
X131534463Y-69795529D01*
X133145629Y-69795529D01*
X134759136Y-69795528D01*
X134760505Y-69795468D01*
X134760516Y-69795468D01*
X134818714Y-69792928D01*
X134818720Y-69792927D01*
X134822280Y-69792772D01*
X134895755Y-69781135D01*
X135095371Y-69749520D01*
X135095378Y-69749518D01*
X135099718Y-69748831D01*
X135201314Y-69717770D01*
X135364122Y-69667994D01*
X135364127Y-69667992D01*
X135368340Y-69666704D01*
X135372329Y-69664844D01*
X135372334Y-69664842D01*
X135618926Y-69549855D01*
X135618932Y-69549852D01*
X135622918Y-69547993D01*
X135765015Y-69455714D01*
X135854802Y-69397406D01*
X135854806Y-69397403D01*
X135858497Y-69395006D01*
X136070492Y-69210721D01*
X136254777Y-68998726D01*
X136407764Y-68763147D01*
X136409623Y-68759161D01*
X136409626Y-68759155D01*
X136524613Y-68512563D01*
X136524615Y-68512558D01*
X136526475Y-68508569D01*
X136608602Y-68239947D01*
X136609289Y-68235607D01*
X136609291Y-68235600D01*
X136651985Y-67966032D01*
X136651985Y-67966031D01*
X136652543Y-67962509D01*
X136654572Y-67916032D01*
X136677526Y-67848850D01*
X136733158Y-67804742D01*
X136780452Y-67795529D01*
X139015998Y-67795529D01*
X139084119Y-67815531D01*
X139105093Y-67832434D01*
X142218595Y-70945937D01*
X142252621Y-71008249D01*
X142255500Y-71035032D01*
X142255500Y-85682969D01*
X142235498Y-85751090D01*
X142218595Y-85772064D01*
X141083734Y-86906925D01*
X141081212Y-86909379D01*
X141015647Y-86971381D01*
X141008719Y-86977932D01*
X140986094Y-87007525D01*
X140960992Y-87040357D01*
X140956848Y-87045492D01*
X140905930Y-87105320D01*
X140903311Y-87109645D01*
X140903307Y-87109650D01*
X140888909Y-87133424D01*
X140881237Y-87144671D01*
X140861280Y-87170774D01*
X140836400Y-87217176D01*
X140824161Y-87240001D01*
X140820896Y-87245726D01*
X140780179Y-87312958D01*
X140767873Y-87343417D01*
X140762093Y-87355758D01*
X140746569Y-87384709D01*
X140744923Y-87389490D01*
X140744921Y-87389494D01*
X140720988Y-87459001D01*
X140718678Y-87465179D01*
X140689245Y-87538029D01*
X140688124Y-87542962D01*
X140688123Y-87542966D01*
X140681968Y-87570060D01*
X140678234Y-87583168D01*
X140667538Y-87614231D01*
X140654157Y-87691700D01*
X140652877Y-87698104D01*
X140635465Y-87774744D01*
X140633401Y-87807553D01*
X140631815Y-87821053D01*
X140626221Y-87853436D01*
X140626041Y-87857393D01*
X140626041Y-87857396D01*
X140625133Y-87877402D01*
X140624900Y-87882525D01*
X140624900Y-87938708D01*
X140624651Y-87946619D01*
X140620222Y-88017013D01*
X140622117Y-88036340D01*
X140624299Y-88058592D01*
X140624900Y-88070888D01*
X140624900Y-91075500D01*
X140604898Y-91143621D01*
X140551242Y-91190114D01*
X140498900Y-91201500D01*
X136780756Y-91201500D01*
X136712635Y-91181498D01*
X136666142Y-91127842D01*
X136654876Y-91080995D01*
X136652699Y-91031115D01*
X136652698Y-91031109D01*
X136652543Y-91027549D01*
X136627773Y-90871156D01*
X136609291Y-90754458D01*
X136609289Y-90754451D01*
X136608602Y-90750111D01*
X136546977Y-90548548D01*
X136527765Y-90485707D01*
X136527763Y-90485702D01*
X136526475Y-90481489D01*
X136524613Y-90477495D01*
X136409626Y-90230903D01*
X136409623Y-90230897D01*
X136407764Y-90226911D01*
X136290930Y-90047002D01*
X136257177Y-89995027D01*
X136257174Y-89995023D01*
X136254777Y-89991332D01*
X136070492Y-89779337D01*
X135858497Y-89595052D01*
X135854806Y-89592655D01*
X135854802Y-89592652D01*
X135626615Y-89444466D01*
X135622918Y-89442065D01*
X135618932Y-89440206D01*
X135618926Y-89440203D01*
X135372334Y-89325216D01*
X135372329Y-89325214D01*
X135368340Y-89323354D01*
X135364127Y-89322066D01*
X135364122Y-89322064D01*
X135142873Y-89254421D01*
X135099718Y-89241227D01*
X135095378Y-89240540D01*
X135095371Y-89240538D01*
X134825803Y-89197844D01*
X134822280Y-89197286D01*
X134818719Y-89197131D01*
X134818714Y-89197130D01*
X134760513Y-89194589D01*
X134760509Y-89194589D01*
X134759137Y-89194529D01*
X133147971Y-89194529D01*
X131534464Y-89194530D01*
X131533095Y-89194590D01*
X131533084Y-89194590D01*
X131474886Y-89197130D01*
X131474880Y-89197131D01*
X131471320Y-89197286D01*
X131397845Y-89208923D01*
X131198229Y-89240538D01*
X131198222Y-89240540D01*
X131193882Y-89241227D01*
X131150727Y-89254421D01*
X130929478Y-89322064D01*
X130929473Y-89322066D01*
X130925260Y-89323354D01*
X130921271Y-89325214D01*
X130921266Y-89325216D01*
X130674674Y-89440203D01*
X130674668Y-89440206D01*
X130670682Y-89442065D01*
X130666985Y-89444466D01*
X130438798Y-89592652D01*
X130438794Y-89592655D01*
X130435103Y-89595052D01*
X130223108Y-89779337D01*
X130038823Y-89991332D01*
X130036426Y-89995023D01*
X130036423Y-89995027D01*
X130002670Y-90047002D01*
X129885836Y-90226911D01*
X129883977Y-90230897D01*
X129883974Y-90230903D01*
X129768987Y-90477495D01*
X129767125Y-90481489D01*
X129765837Y-90485702D01*
X129765835Y-90485707D01*
X129746623Y-90548548D01*
X129684998Y-90750111D01*
X129684311Y-90754451D01*
X129684309Y-90754458D01*
X129663453Y-90886142D01*
X129641057Y-91027549D01*
X129638300Y-91090692D01*
X122275600Y-91090692D01*
X122275600Y-84982131D01*
X128025238Y-84982131D01*
X128025262Y-84982470D01*
X128031085Y-84991102D01*
X128275791Y-85214942D01*
X128279245Y-85217881D01*
X128697230Y-85548579D01*
X128700867Y-85551251D01*
X129141418Y-85851211D01*
X129145246Y-85853622D01*
X129606137Y-86121329D01*
X129610109Y-86123450D01*
X130088948Y-86357512D01*
X130093084Y-86359354D01*
X130587427Y-86558580D01*
X130591671Y-86560116D01*
X131099018Y-86723496D01*
X131103339Y-86724718D01*
X131621054Y-86851403D01*
X131625495Y-86852323D01*
X132150941Y-86941666D01*
X132155395Y-86942261D01*
X132685906Y-86993811D01*
X132690379Y-86994085D01*
X133223227Y-87007572D01*
X133227730Y-87007525D01*
X133760152Y-86982882D01*
X133764636Y-86982514D01*
X134293952Y-86919865D01*
X134298391Y-86919178D01*
X134821887Y-86818843D01*
X134826246Y-86817844D01*
X135341214Y-86680340D01*
X135345527Y-86679021D01*
X135849325Y-86505057D01*
X135853540Y-86503431D01*
X136343605Y-86293895D01*
X136347692Y-86291972D01*
X136821531Y-86047929D01*
X136825458Y-86045725D01*
X137280628Y-85768433D01*
X137284424Y-85765930D01*
X137718586Y-85456817D01*
X137722172Y-85454065D01*
X138133162Y-85114669D01*
X138136505Y-85111701D01*
X138260430Y-84993482D01*
X138268368Y-84979724D01*
X138268318Y-84978678D01*
X138263425Y-84970864D01*
X133159612Y-79867051D01*
X133145668Y-79859437D01*
X133143835Y-79859568D01*
X133137220Y-79863819D01*
X128032852Y-84968187D01*
X128025238Y-84982131D01*
X122275600Y-84982131D01*
X122275600Y-79545230D01*
X125634036Y-79545230D01*
X125634067Y-79549728D01*
X125656852Y-80082244D01*
X125657204Y-80086725D01*
X125718006Y-80616269D01*
X125718674Y-80620688D01*
X125817181Y-81144526D01*
X125818170Y-81148913D01*
X125953870Y-81664337D01*
X125955181Y-81668677D01*
X126127381Y-82173068D01*
X126128988Y-82177278D01*
X126336828Y-82668108D01*
X126338717Y-82672158D01*
X126581114Y-83146865D01*
X126583307Y-83150805D01*
X126859017Y-83606954D01*
X126861478Y-83610714D01*
X127169090Y-84045976D01*
X127171836Y-84049581D01*
X127509787Y-84461741D01*
X127512744Y-84465095D01*
X127648551Y-84608457D01*
X127662282Y-84616444D01*
X127663210Y-84616403D01*
X127671199Y-84611420D01*
X132774778Y-79507841D01*
X132781156Y-79496161D01*
X133511208Y-79496161D01*
X133511339Y-79497994D01*
X133515590Y-79504609D01*
X138620189Y-84609208D01*
X138634133Y-84616822D01*
X138634356Y-84616807D01*
X138643138Y-84610860D01*
X138883705Y-84346016D01*
X138886593Y-84342599D01*
X139215844Y-83923443D01*
X139218501Y-83919800D01*
X139516930Y-83478193D01*
X139519326Y-83474358D01*
X139785417Y-83012543D01*
X139787526Y-83008560D01*
X140019916Y-82528907D01*
X140021741Y-82524770D01*
X140219246Y-82029719D01*
X140220761Y-82025489D01*
X140382367Y-81517578D01*
X140383581Y-81513231D01*
X140508461Y-80995063D01*
X140509355Y-80990667D01*
X140596864Y-80464914D01*
X140597449Y-80460409D01*
X140647163Y-79929546D01*
X140647413Y-79925468D01*
X140659754Y-79497053D01*
X140659739Y-79492996D01*
X140640666Y-78960125D01*
X140640344Y-78955630D01*
X140583242Y-78425691D01*
X140582600Y-78421240D01*
X140487755Y-77896739D01*
X140486799Y-77892356D01*
X140354692Y-77375962D01*
X140353430Y-77371674D01*
X140184738Y-76866044D01*
X140183170Y-76861847D01*
X139978766Y-76369587D01*
X139976888Y-76365485D01*
X139737823Y-75889123D01*
X139735655Y-75885162D01*
X139463147Y-75427119D01*
X139460691Y-75423308D01*
X139156131Y-74985919D01*
X139153424Y-74982313D01*
X138818352Y-74567794D01*
X138815409Y-74564409D01*
X138644834Y-74381809D01*
X138631161Y-74373727D01*
X138630467Y-74373753D01*
X138622120Y-74378919D01*
X133518822Y-79482217D01*
X133511208Y-79496161D01*
X132781156Y-79496161D01*
X132782392Y-79493897D01*
X132782261Y-79492064D01*
X132778010Y-79485449D01*
X127673807Y-74381246D01*
X127659863Y-74373632D01*
X127659406Y-74373664D01*
X127650930Y-74379361D01*
X127443904Y-74604106D01*
X127440990Y-74607506D01*
X127108815Y-75024360D01*
X127106144Y-75027970D01*
X126804631Y-75467494D01*
X126802209Y-75471312D01*
X126532907Y-75931245D01*
X126530764Y-75935225D01*
X126295033Y-76413240D01*
X126293176Y-76417372D01*
X126092227Y-76911013D01*
X126090674Y-76915259D01*
X125925529Y-77422013D01*
X125924284Y-77426355D01*
X125795791Y-77943637D01*
X125794867Y-77948020D01*
X125703685Y-78473181D01*
X125703074Y-78477638D01*
X125649673Y-79007959D01*
X125649383Y-79012442D01*
X125634036Y-79545230D01*
X122275600Y-79545230D01*
X122275600Y-74010620D01*
X128025474Y-74010620D01*
X128025507Y-74011433D01*
X128030583Y-74019602D01*
X133133988Y-79123007D01*
X133147932Y-79130621D01*
X133149765Y-79130490D01*
X133156380Y-79126239D01*
X138260482Y-74022137D01*
X138268096Y-74008193D01*
X138268055Y-74007619D01*
X138262484Y-73999297D01*
X138057618Y-73809257D01*
X138054187Y-73806296D01*
X137638529Y-73472695D01*
X137634915Y-73470001D01*
X137196454Y-73166962D01*
X137192635Y-73164519D01*
X136733646Y-72893614D01*
X136729677Y-72891459D01*
X136252479Y-72654057D01*
X136248375Y-72652195D01*
X135755410Y-72449512D01*
X135751195Y-72447953D01*
X135244999Y-72281035D01*
X135240683Y-72279781D01*
X134723842Y-72149480D01*
X134719465Y-72148542D01*
X134194622Y-72055525D01*
X134190165Y-72054899D01*
X133660041Y-71999649D01*
X133655547Y-71999342D01*
X133122827Y-71982136D01*
X133118330Y-71982151D01*
X132585727Y-72003077D01*
X132581251Y-72003413D01*
X132051513Y-72062365D01*
X132047061Y-72063023D01*
X131522906Y-72159696D01*
X131518501Y-72160672D01*
X131002601Y-72294574D01*
X130998290Y-72295859D01*
X130493271Y-72466307D01*
X130489059Y-72467899D01*
X129997523Y-72674017D01*
X129993447Y-72675900D01*
X129517909Y-72916634D01*
X129513958Y-72918815D01*
X129056863Y-73192922D01*
X129053067Y-73195387D01*
X128616730Y-73501481D01*
X128613147Y-73504191D01*
X128199807Y-73840703D01*
X128196417Y-73843671D01*
X128033508Y-73996920D01*
X128025474Y-74010620D01*
X122275600Y-74010620D01*
X122275600Y-62508400D01*
X122295602Y-62440279D01*
X122349258Y-62393786D01*
X122401600Y-62382400D01*
X161138600Y-62382400D01*
X161206721Y-62402402D01*
G37*
%TD.AperFunction*%
%TA.AperFunction,Conductor*%
G36*
X136959532Y-110272604D02*
G01*
X137016368Y-110315151D01*
X137041179Y-110381671D01*
X137041500Y-110390660D01*
X137041500Y-111135359D01*
X137021498Y-111203480D01*
X136967842Y-111249973D01*
X136941697Y-111258606D01*
X136924524Y-111262256D01*
X136884170Y-111270833D01*
X136884167Y-111270834D01*
X136877712Y-111272206D01*
X136871682Y-111274891D01*
X136871681Y-111274891D01*
X136709278Y-111347197D01*
X136709276Y-111347198D01*
X136703248Y-111349882D01*
X136697907Y-111353762D01*
X136697906Y-111353763D01*
X136647843Y-111390136D01*
X136548747Y-111462134D01*
X136544326Y-111467044D01*
X136544325Y-111467045D01*
X136432591Y-111591139D01*
X136420960Y-111604056D01*
X136417659Y-111609774D01*
X136337592Y-111748454D01*
X136325473Y-111769444D01*
X136266458Y-111951072D01*
X136246496Y-112141000D01*
X136247186Y-112147565D01*
X136263496Y-112302742D01*
X136266458Y-112330928D01*
X136325473Y-112512556D01*
X136328776Y-112518278D01*
X136328777Y-112518279D01*
X136344351Y-112545253D01*
X136420960Y-112677944D01*
X136548747Y-112819866D01*
X136703248Y-112932118D01*
X136709276Y-112934802D01*
X136709278Y-112934803D01*
X136728727Y-112943462D01*
X136877712Y-113009794D01*
X136971112Y-113029647D01*
X137058056Y-113048128D01*
X137058061Y-113048128D01*
X137064513Y-113049500D01*
X137255487Y-113049500D01*
X137261939Y-113048128D01*
X137261944Y-113048128D01*
X137348888Y-113029647D01*
X137442288Y-113009794D01*
X137591273Y-112943462D01*
X137610722Y-112934803D01*
X137610724Y-112934802D01*
X137616752Y-112932118D01*
X137771253Y-112819866D01*
X137899040Y-112677944D01*
X137975649Y-112545253D01*
X137991223Y-112518279D01*
X137991224Y-112518278D01*
X137994527Y-112512556D01*
X138020525Y-112432544D01*
X138051502Y-112337207D01*
X138051502Y-112337205D01*
X138053542Y-112330928D01*
X138058450Y-112284230D01*
X138085463Y-112218573D01*
X138094665Y-112208305D01*
X138126405Y-112176565D01*
X138188717Y-112142539D01*
X138259532Y-112147604D01*
X138316368Y-112190151D01*
X138341179Y-112256671D01*
X138341500Y-112265660D01*
X138341500Y-117525340D01*
X138321498Y-117593461D01*
X138304595Y-117614435D01*
X138233222Y-117685808D01*
X138170910Y-117719834D01*
X138144127Y-117722713D01*
X136978500Y-117722713D01*
X136910379Y-117702711D01*
X136863886Y-117649055D01*
X136852500Y-117596713D01*
X136852500Y-115598912D01*
X136852792Y-115590342D01*
X136856209Y-115540224D01*
X136856209Y-115540220D01*
X136856725Y-115532648D01*
X136845739Y-115469703D01*
X136844777Y-115463182D01*
X136843176Y-115449950D01*
X136837102Y-115399758D01*
X136834416Y-115392650D01*
X136833779Y-115390056D01*
X136829318Y-115373750D01*
X136828548Y-115371199D01*
X136827242Y-115363716D01*
X136824190Y-115356763D01*
X136801561Y-115305212D01*
X136799069Y-115299105D01*
X136779173Y-115246452D01*
X136779173Y-115246451D01*
X136776487Y-115239344D01*
X136772184Y-115233083D01*
X136770947Y-115230717D01*
X136762720Y-115215937D01*
X136761369Y-115213652D01*
X136758315Y-115206695D01*
X136753695Y-115200675D01*
X136753692Y-115200669D01*
X136719421Y-115156009D01*
X136715541Y-115150668D01*
X136683661Y-115104280D01*
X136683656Y-115104275D01*
X136679357Y-115098019D01*
X136632829Y-115056564D01*
X136627554Y-115051584D01*
X135395450Y-113819480D01*
X135389596Y-113813215D01*
X135382023Y-113804534D01*
X135351561Y-113769615D01*
X135299280Y-113732871D01*
X135293986Y-113728939D01*
X135249693Y-113694209D01*
X135243718Y-113689524D01*
X135236802Y-113686401D01*
X135234516Y-113685017D01*
X135219835Y-113676643D01*
X135217475Y-113675378D01*
X135211261Y-113671010D01*
X135204182Y-113668250D01*
X135204180Y-113668249D01*
X135151725Y-113647798D01*
X135145656Y-113645247D01*
X135087427Y-113618955D01*
X135079960Y-113617571D01*
X135077405Y-113616770D01*
X135061152Y-113612141D01*
X135058572Y-113611478D01*
X135051491Y-113608718D01*
X135043960Y-113607727D01*
X135043958Y-113607726D01*
X135014339Y-113603827D01*
X134988139Y-113600378D01*
X134981641Y-113599348D01*
X134918814Y-113587704D01*
X134911234Y-113588141D01*
X134911233Y-113588141D01*
X134856608Y-113591291D01*
X134849354Y-113591500D01*
X131338111Y-113591500D01*
X131269990Y-113571498D01*
X131223497Y-113517842D01*
X131213393Y-113447568D01*
X131242887Y-113382988D01*
X131252331Y-113374190D01*
X131252177Y-113374036D01*
X131258527Y-113367686D01*
X131265707Y-113362305D01*
X131353061Y-113245749D01*
X131404191Y-113109360D01*
X131410946Y-113047178D01*
X131410946Y-112558544D01*
X131430948Y-112490423D01*
X131484604Y-112443930D01*
X131536946Y-112432544D01*
X132042733Y-112432544D01*
X132086649Y-112440445D01*
X132151787Y-112464670D01*
X132235951Y-112475900D01*
X132247608Y-112478404D01*
X132251985Y-112479058D01*
X132260587Y-112481631D01*
X132271803Y-112481699D01*
X132287691Y-112482803D01*
X132320461Y-112487176D01*
X132327473Y-112486538D01*
X132327479Y-112486538D01*
X132367711Y-112482877D01*
X132379894Y-112482360D01*
X132406098Y-112482520D01*
X132407441Y-112482136D01*
X132408789Y-112482044D01*
X133273630Y-112482044D01*
X133290294Y-112483151D01*
X133313480Y-112486245D01*
X133313484Y-112486245D01*
X133320461Y-112487176D01*
X133327473Y-112486538D01*
X133327479Y-112486538D01*
X133367711Y-112482877D01*
X133379894Y-112482360D01*
X133406098Y-112482520D01*
X133414730Y-112480053D01*
X133422559Y-112478980D01*
X133434004Y-112476842D01*
X133489929Y-112471753D01*
X133591621Y-112438711D01*
X133630557Y-112432544D01*
X134373044Y-112432544D01*
X134381614Y-112432836D01*
X134431732Y-112436253D01*
X134431736Y-112436253D01*
X134439308Y-112436769D01*
X134446785Y-112435464D01*
X134446786Y-112435464D01*
X134473264Y-112430843D01*
X134502259Y-112425782D01*
X134508777Y-112424821D01*
X134572198Y-112417146D01*
X134579299Y-112414463D01*
X134581908Y-112413822D01*
X134598218Y-112409359D01*
X134600754Y-112408594D01*
X134608240Y-112407287D01*
X134666756Y-112381600D01*
X134672860Y-112379109D01*
X134725504Y-112359217D01*
X134725505Y-112359216D01*
X134732612Y-112356531D01*
X134738875Y-112352227D01*
X134741241Y-112350990D01*
X134756053Y-112342745D01*
X134758307Y-112341412D01*
X134765261Y-112338359D01*
X134815958Y-112299457D01*
X134821288Y-112295585D01*
X134867676Y-112263705D01*
X134867681Y-112263700D01*
X134873937Y-112259401D01*
X134915392Y-112212873D01*
X134920372Y-112207598D01*
X136826405Y-110301565D01*
X136888717Y-110267539D01*
X136959532Y-110272604D01*
G37*
%TD.AperFunction*%
%TA.AperFunction,Conductor*%
G36*
X155390121Y-90047002D02*
G01*
X155436614Y-90100658D01*
X155448000Y-90153000D01*
X155448000Y-91370884D01*
X155452475Y-91386123D01*
X155453865Y-91387328D01*
X155461548Y-91388999D01*
X155691095Y-91388999D01*
X155697614Y-91388662D01*
X155793206Y-91378743D01*
X155806600Y-91375851D01*
X155967732Y-91322094D01*
X155968503Y-91324404D01*
X156027214Y-91315376D01*
X156092079Y-91344238D01*
X156131044Y-91403586D01*
X156136500Y-91440263D01*
X156136500Y-94650340D01*
X156116498Y-94718461D01*
X156099595Y-94739435D01*
X151508435Y-99330595D01*
X151446123Y-99364621D01*
X151419340Y-99367500D01*
X144254661Y-99367500D01*
X144186540Y-99347498D01*
X144140047Y-99293842D01*
X144129943Y-99223568D01*
X144159437Y-99158988D01*
X144165566Y-99152405D01*
X144401566Y-98916405D01*
X144463878Y-98882379D01*
X144490661Y-98879500D01*
X150720088Y-98879500D01*
X150728658Y-98879792D01*
X150778776Y-98883209D01*
X150778780Y-98883209D01*
X150786352Y-98883725D01*
X150793829Y-98882420D01*
X150793830Y-98882420D01*
X150820308Y-98877799D01*
X150849303Y-98872738D01*
X150855821Y-98871777D01*
X150919242Y-98864102D01*
X150926343Y-98861419D01*
X150928952Y-98860778D01*
X150945262Y-98856315D01*
X150947798Y-98855550D01*
X150955284Y-98854243D01*
X151013800Y-98828556D01*
X151019904Y-98826065D01*
X151072548Y-98806173D01*
X151072549Y-98806172D01*
X151079656Y-98803487D01*
X151085919Y-98799183D01*
X151088285Y-98797946D01*
X151103097Y-98789701D01*
X151105351Y-98788368D01*
X151112305Y-98785315D01*
X151163002Y-98746413D01*
X151168332Y-98742541D01*
X151214720Y-98710661D01*
X151214725Y-98710656D01*
X151220981Y-98706357D01*
X151262436Y-98659829D01*
X151267416Y-98654554D01*
X154023520Y-95898450D01*
X154029785Y-95892596D01*
X154067660Y-95859555D01*
X154073385Y-95854561D01*
X154110114Y-95802300D01*
X154114046Y-95797005D01*
X154148791Y-95752694D01*
X154153477Y-95746718D01*
X154156602Y-95739796D01*
X154157964Y-95737548D01*
X154166368Y-95722815D01*
X154167622Y-95720476D01*
X154171990Y-95714261D01*
X154174749Y-95707185D01*
X154174751Y-95707181D01*
X154195200Y-95654731D01*
X154197749Y-95648666D01*
X154224045Y-95590427D01*
X154225429Y-95582962D01*
X154226226Y-95580418D01*
X154230859Y-95564152D01*
X154231521Y-95561572D01*
X154234282Y-95554491D01*
X154242622Y-95491143D01*
X154243653Y-95484629D01*
X154244780Y-95478553D01*
X154255296Y-95421813D01*
X154251709Y-95359602D01*
X154251500Y-95352349D01*
X154251500Y-91440243D01*
X154271502Y-91372122D01*
X154325158Y-91325629D01*
X154395432Y-91315525D01*
X154421286Y-91323227D01*
X154421475Y-91322658D01*
X154582710Y-91376138D01*
X154596086Y-91379005D01*
X154690438Y-91388672D01*
X154696854Y-91389000D01*
X154921885Y-91389000D01*
X154937124Y-91384525D01*
X154938329Y-91383135D01*
X154940000Y-91375452D01*
X154940000Y-90153000D01*
X154960002Y-90084879D01*
X155013658Y-90038386D01*
X155066000Y-90027000D01*
X155322000Y-90027000D01*
X155390121Y-90047002D01*
G37*
%TD.AperFunction*%
%TA.AperFunction,Conductor*%
G36*
X152088121Y-90047002D02*
G01*
X152134614Y-90100658D01*
X152146000Y-90153000D01*
X152146000Y-91370884D01*
X152150475Y-91386123D01*
X152151865Y-91387328D01*
X152159548Y-91388999D01*
X152389095Y-91388999D01*
X152395614Y-91388662D01*
X152491206Y-91378743D01*
X152504600Y-91375851D01*
X152665732Y-91322094D01*
X152666503Y-91324404D01*
X152725214Y-91315376D01*
X152790079Y-91344238D01*
X152829044Y-91403586D01*
X152834500Y-91440263D01*
X152834500Y-95031339D01*
X152814498Y-95099460D01*
X152797595Y-95120434D01*
X150492435Y-97425595D01*
X150430123Y-97459620D01*
X150403340Y-97462500D01*
X144635661Y-97462500D01*
X144567540Y-97442498D01*
X144521047Y-97388842D01*
X144510943Y-97318568D01*
X144540437Y-97253988D01*
X144546566Y-97247405D01*
X144782566Y-97011405D01*
X144844878Y-96977379D01*
X144871661Y-96974500D01*
X148561088Y-96974500D01*
X148569658Y-96974792D01*
X148619776Y-96978209D01*
X148619780Y-96978209D01*
X148627352Y-96978725D01*
X148634829Y-96977420D01*
X148634830Y-96977420D01*
X148661308Y-96972799D01*
X148690303Y-96967738D01*
X148696821Y-96966777D01*
X148760242Y-96959102D01*
X148767343Y-96956419D01*
X148769952Y-96955778D01*
X148786262Y-96951315D01*
X148788798Y-96950550D01*
X148796284Y-96949243D01*
X148854800Y-96923556D01*
X148860904Y-96921065D01*
X148913548Y-96901173D01*
X148913549Y-96901172D01*
X148920656Y-96898487D01*
X148926919Y-96894183D01*
X148929285Y-96892946D01*
X148944097Y-96884701D01*
X148946351Y-96883368D01*
X148953305Y-96880315D01*
X149004002Y-96841413D01*
X149009332Y-96837541D01*
X149055720Y-96805661D01*
X149055725Y-96805656D01*
X149061981Y-96801357D01*
X149103436Y-96754829D01*
X149108416Y-96749554D01*
X150721520Y-95136450D01*
X150727785Y-95130596D01*
X150739434Y-95120434D01*
X150771385Y-95092561D01*
X150808114Y-95040300D01*
X150812046Y-95035005D01*
X150846791Y-94990694D01*
X150851477Y-94984718D01*
X150854602Y-94977796D01*
X150855964Y-94975548D01*
X150864368Y-94960815D01*
X150865622Y-94958476D01*
X150869990Y-94952261D01*
X150872749Y-94945185D01*
X150872751Y-94945181D01*
X150893202Y-94892726D01*
X150895758Y-94886646D01*
X150918918Y-94835351D01*
X150922045Y-94828426D01*
X150923429Y-94820955D01*
X150924230Y-94818401D01*
X150928867Y-94802122D01*
X150929523Y-94799567D01*
X150932282Y-94792491D01*
X150940621Y-94729149D01*
X150941653Y-94722633D01*
X150951912Y-94667280D01*
X150953296Y-94659813D01*
X150952823Y-94651600D01*
X150949709Y-94597602D01*
X150949500Y-94590349D01*
X150949500Y-91440243D01*
X150969502Y-91372122D01*
X151023158Y-91325629D01*
X151093432Y-91315525D01*
X151119286Y-91323227D01*
X151119475Y-91322658D01*
X151280710Y-91376138D01*
X151294086Y-91379005D01*
X151388438Y-91388672D01*
X151394854Y-91389000D01*
X151619885Y-91389000D01*
X151635124Y-91384525D01*
X151636329Y-91383135D01*
X151638000Y-91375452D01*
X151638000Y-90153000D01*
X151658002Y-90084879D01*
X151711658Y-90038386D01*
X151764000Y-90027000D01*
X152020000Y-90027000D01*
X152088121Y-90047002D01*
G37*
%TD.AperFunction*%
%TA.AperFunction,Conductor*%
G36*
X158692121Y-90047002D02*
G01*
X158738614Y-90100658D01*
X158750000Y-90153000D01*
X158750000Y-91370884D01*
X158754475Y-91386123D01*
X158755865Y-91387328D01*
X158763548Y-91388999D01*
X158993095Y-91388999D01*
X158999614Y-91388662D01*
X159095206Y-91378743D01*
X159108600Y-91375851D01*
X159145624Y-91363499D01*
X159216574Y-91360915D01*
X159277657Y-91397099D01*
X159309482Y-91460563D01*
X159311500Y-91483023D01*
X159311500Y-92110340D01*
X159291498Y-92178461D01*
X159274595Y-92199435D01*
X158048467Y-93425563D01*
X157985569Y-93459715D01*
X157832712Y-93492206D01*
X157730748Y-93537603D01*
X157660382Y-93547037D01*
X157596085Y-93516931D01*
X157558271Y-93456842D01*
X157553500Y-93422496D01*
X157553500Y-91440243D01*
X157573502Y-91372122D01*
X157627158Y-91325629D01*
X157697432Y-91315525D01*
X157723286Y-91323227D01*
X157723475Y-91322658D01*
X157884710Y-91376138D01*
X157898086Y-91379005D01*
X157992438Y-91388672D01*
X157998854Y-91389000D01*
X158223885Y-91389000D01*
X158239124Y-91384525D01*
X158240329Y-91383135D01*
X158242000Y-91375452D01*
X158242000Y-90153000D01*
X158262002Y-90084879D01*
X158315658Y-90038386D01*
X158368000Y-90027000D01*
X158624000Y-90027000D01*
X158692121Y-90047002D01*
G37*
%TD.AperFunction*%
%TD*%
M02*
