%TF.GenerationSoftware,KiCad,Pcbnew,(6.0.0)*%
%TF.CreationDate,2022-10-14T23:46:23+01:00*%
%TF.ProjectId,MIDIPresetController,4d494449-5072-4657-9365-74436f6e7472,rev?*%
%TF.SameCoordinates,Original*%
%TF.FileFunction,Copper,L2,Bot*%
%TF.FilePolarity,Positive*%
%FSLAX46Y46*%
G04 Gerber Fmt 4.6, Leading zero omitted, Abs format (unit mm)*
G04 Created by KiCad (PCBNEW (6.0.0)) date 2022-10-14 23:46:23*
%MOMM*%
%LPD*%
G01*
G04 APERTURE LIST*
G04 Aperture macros list*
%AMRoundRect*
0 Rectangle with rounded corners*
0 $1 Rounding radius*
0 $2 $3 $4 $5 $6 $7 $8 $9 X,Y pos of 4 corners*
0 Add a 4 corners polygon primitive as box body*
4,1,4,$2,$3,$4,$5,$6,$7,$8,$9,$2,$3,0*
0 Add four circle primitives for the rounded corners*
1,1,$1+$1,$2,$3*
1,1,$1+$1,$4,$5*
1,1,$1+$1,$6,$7*
1,1,$1+$1,$8,$9*
0 Add four rect primitives between the rounded corners*
20,1,$1+$1,$2,$3,$4,$5,0*
20,1,$1+$1,$4,$5,$6,$7,0*
20,1,$1+$1,$6,$7,$8,$9,0*
20,1,$1+$1,$8,$9,$2,$3,0*%
G04 Aperture macros list end*
%TA.AperFunction,ComponentPad*%
%ADD10R,1.800000X1.800000*%
%TD*%
%TA.AperFunction,ComponentPad*%
%ADD11C,1.800000*%
%TD*%
%TA.AperFunction,ComponentPad*%
%ADD12R,1.700000X1.700000*%
%TD*%
%TA.AperFunction,ComponentPad*%
%ADD13O,1.700000X1.700000*%
%TD*%
%TA.AperFunction,ComponentPad*%
%ADD14C,2.000000*%
%TD*%
%TA.AperFunction,ComponentPad*%
%ADD15R,1.600000X1.600000*%
%TD*%
%TA.AperFunction,ComponentPad*%
%ADD16O,1.600000X1.600000*%
%TD*%
%TA.AperFunction,SMDPad,CuDef*%
%ADD17RoundRect,0.250000X-0.450000X0.350000X-0.450000X-0.350000X0.450000X-0.350000X0.450000X0.350000X0*%
%TD*%
%TA.AperFunction,SMDPad,CuDef*%
%ADD18RoundRect,0.250000X0.475000X-0.337500X0.475000X0.337500X-0.475000X0.337500X-0.475000X-0.337500X0*%
%TD*%
%TA.AperFunction,ViaPad*%
%ADD19C,0.800000*%
%TD*%
%TA.AperFunction,Conductor*%
%ADD20C,1.000000*%
%TD*%
%TA.AperFunction,Conductor*%
%ADD21C,0.400000*%
%TD*%
%TA.AperFunction,Conductor*%
%ADD22C,2.000000*%
%TD*%
G04 APERTURE END LIST*
D10*
%TO.P,D1,1,K*%
%TO.N,GND*%
X124455000Y-102616000D03*
D11*
%TO.P,D1,2,A*%
%TO.N,Net-(D1-Pad2)*%
X126995000Y-102616000D03*
%TD*%
D12*
%TO.P,J4,1,Pin_1*%
%TO.N,GND*%
X132772000Y-128910000D03*
D13*
%TO.P,J4,2,Pin_2*%
%TO.N,/Microcontroller/EXT_DOWN_PRESET_SW*%
X132772000Y-126370000D03*
%TD*%
D12*
%TO.P,J5,1,Pin_1*%
%TO.N,GND*%
X150555000Y-126725388D03*
D13*
%TO.P,J5,2,Pin_2*%
%TO.N,/Microcontroller/EXT_UP_PRESET_SW*%
X150555000Y-129265388D03*
%TD*%
D12*
%TO.P,J2,1,Pin_1*%
%TO.N,GND*%
X132842000Y-122047000D03*
D13*
%TO.P,J2,2,Pin_2*%
%TO.N,Net-(J2-Pad2)*%
X132842000Y-119507000D03*
%TO.P,J2,3,Pin_3*%
%TO.N,Net-(J2-Pad3)*%
X132842000Y-116967000D03*
%TD*%
D14*
%TO.P,SW1,1,A*%
%TO.N,/Microcontroller/NRST*%
X159653800Y-116358600D03*
X159653800Y-122858600D03*
%TO.P,SW1,2,B*%
%TO.N,GND*%
X155153800Y-122858600D03*
X155153800Y-116358600D03*
%TD*%
D12*
%TO.P,JP1,1,A*%
%TO.N,GND*%
X150051791Y-106103500D03*
D13*
%TO.P,JP1,2,C*%
%TO.N,/Microcontroller/BOOT0*%
X150051791Y-108643500D03*
%TO.P,JP1,3,B*%
%TO.N,+3V3*%
X150051791Y-111183500D03*
%TD*%
D15*
%TO.P,SW2,1*%
%TO.N,GND*%
X158496000Y-77216000D03*
D16*
%TO.P,SW2,2*%
X155956000Y-77216000D03*
%TO.P,SW2,3*%
X153416000Y-77216000D03*
%TO.P,SW2,4*%
X150876000Y-77216000D03*
%TO.P,SW2,5*%
%TO.N,/Microcontroller/EXT_MIDI_CH_BIT4*%
X150876000Y-84836000D03*
%TO.P,SW2,6*%
%TO.N,/Microcontroller/EXT_MIDI_CH_BIT3*%
X153416000Y-84836000D03*
%TO.P,SW2,7*%
%TO.N,/Microcontroller/EXT_MIDI_CH_BIT2*%
X155956000Y-84836000D03*
%TO.P,SW2,8*%
%TO.N,/Microcontroller/EXT_MIDI_CH_BIT1*%
X158496000Y-84836000D03*
%TD*%
D12*
%TO.P,J1,1,Pin_1*%
%TO.N,Net-(BT1-Pad1)*%
X142133400Y-92021544D03*
D13*
%TO.P,J1,2,Pin_2*%
%TO.N,+3V3*%
X144673400Y-92021544D03*
%TD*%
D17*
%TO.P,R2,1*%
%TO.N,Net-(J2-Pad3)*%
X136118600Y-116973600D03*
%TO.P,R2,2*%
%TO.N,+3V3*%
X136118600Y-118973600D03*
%TD*%
D18*
%TO.P,C3,1*%
%TO.N,+3V3*%
X141605000Y-108733500D03*
%TO.P,C3,2*%
%TO.N,GND*%
X141605000Y-106658500D03*
%TD*%
%TO.P,C2,1*%
%TO.N,+3V3*%
X137795000Y-108733500D03*
%TO.P,C2,2*%
%TO.N,GND*%
X137795000Y-106658500D03*
%TD*%
D19*
%TO.N,+3V3*%
X145288000Y-121666000D03*
%TO.N,GND*%
X149860000Y-79756000D03*
X152400000Y-82296000D03*
X154940000Y-79756000D03*
X157480000Y-82296000D03*
X160020000Y-79756000D03*
X160020000Y-72136000D03*
X160020000Y-67056000D03*
X157480000Y-69596000D03*
X152400000Y-69596000D03*
X147320000Y-74676000D03*
X147320000Y-82296000D03*
X137160000Y-87376000D03*
X139700000Y-84836000D03*
X139700000Y-74676000D03*
X139700000Y-69596000D03*
X137160000Y-72136000D03*
X124460000Y-64516000D03*
X127000000Y-67056000D03*
X124460000Y-69596000D03*
X127000000Y-72136000D03*
X124460000Y-74676000D03*
X124460000Y-79756000D03*
X124460000Y-84836000D03*
X127000000Y-89916000D03*
X160020000Y-110236000D03*
X160020000Y-105156000D03*
X154940000Y-105156000D03*
X157480000Y-107696000D03*
X154940000Y-110236000D03*
X144780000Y-110236000D03*
X147320000Y-112776000D03*
X132080000Y-115316000D03*
X129540000Y-117856000D03*
X129540000Y-128016000D03*
X129540000Y-122936000D03*
X134620000Y-120396000D03*
X134620000Y-125476000D03*
X137160000Y-122936000D03*
X144780000Y-120396000D03*
X142240000Y-117856000D03*
X142240000Y-122936000D03*
X144780000Y-125476000D03*
X144780000Y-130556000D03*
X139700000Y-130556000D03*
X142240000Y-128016000D03*
X139700000Y-125476000D03*
X157271000Y-118065000D03*
X154940000Y-120396000D03*
X157480000Y-122936000D03*
X160020000Y-130556000D03*
X160020000Y-125476000D03*
X154940000Y-130556000D03*
X157480000Y-128016000D03*
X152400000Y-128016000D03*
X154940000Y-125476000D03*
X160020000Y-100076000D03*
X160020000Y-94996000D03*
X157480000Y-97536000D03*
X154940000Y-100076000D03*
X147320000Y-107696000D03*
X144780000Y-105156000D03*
X147320000Y-102616000D03*
X142240000Y-94996000D03*
X137160000Y-100076000D03*
X139700000Y-97536000D03*
X137160000Y-94996000D03*
X137160000Y-115316000D03*
X134620000Y-112776000D03*
X132080000Y-110236000D03*
X134620000Y-107696000D03*
X132080000Y-105156000D03*
X127000000Y-105156000D03*
X134620000Y-97536000D03*
X132080000Y-100076000D03*
X129540000Y-97536000D03*
X127000000Y-94996000D03*
X124460000Y-92456000D03*
X124460000Y-97536000D03*
X129540000Y-107696000D03*
X124460000Y-107696000D03*
X127000000Y-115316000D03*
X127000000Y-125476000D03*
X127000000Y-130556000D03*
X124460000Y-128016000D03*
X124460000Y-122936000D03*
X127000000Y-120396000D03*
X124460000Y-117856000D03*
%TO.N,/Microcontroller/LPWR_MON_LED*%
X137160000Y-112141000D03*
%TO.N,+3V3*%
X136144000Y-120650000D03*
X139700000Y-108966000D03*
%TO.N,/Microcontroller/LPWR_MON_LED*%
X134620000Y-102616000D03*
%TO.N,GND*%
X155194000Y-91948000D03*
X158496000Y-91948000D03*
X148590000Y-91948000D03*
X151892000Y-91948000D03*
%TO.N,/Microcontroller/EXT_MIDI_CH_BIT1*%
X147574000Y-94361000D03*
X158115000Y-94361000D03*
%TD*%
D20*
%TO.N,+3V3*%
X150051791Y-117638809D02*
X150051791Y-111183500D01*
X145999200Y-121691400D02*
X150051791Y-117638809D01*
X137185400Y-121691400D02*
X145999200Y-121691400D01*
X136144000Y-120650000D02*
X137185400Y-121691400D01*
D21*
%TO.N,/Microcontroller/LPWR_MON_LED*%
X136144000Y-111125000D02*
X136144000Y-104140000D01*
X137160000Y-112141000D02*
X136144000Y-111125000D01*
X136144000Y-104140000D02*
X134620000Y-102616000D01*
%TO.N,+3V3*%
X136118600Y-120624600D02*
X136144000Y-120650000D01*
D20*
X136118600Y-118973600D02*
X136118600Y-120624600D01*
D21*
X138027500Y-108966000D02*
X137795000Y-108733500D01*
X139700000Y-108966000D02*
X138027500Y-108966000D01*
X141372500Y-108966000D02*
X141605000Y-108733500D01*
X139700000Y-108966000D02*
X141372500Y-108966000D01*
D22*
X144673400Y-96159400D02*
X153289000Y-104775000D01*
X153289000Y-104775000D02*
X153289000Y-111125000D01*
X153289000Y-111125000D02*
X153230500Y-111183500D01*
X153230500Y-111183500D02*
X150051791Y-111183500D01*
X144673400Y-92021544D02*
X144673400Y-96159400D01*
D20*
%TO.N,Net-(J2-Pad3)*%
X132816600Y-116957600D02*
X136102600Y-116957600D01*
D21*
%TO.N,/Microcontroller/EXT_MIDI_CH_BIT1*%
X147574000Y-94361000D02*
X158115000Y-94361000D01*
%TD*%
%TA.AperFunction,Conductor*%
%TO.N,GND*%
G36*
X161206721Y-62402402D02*
G01*
X161253214Y-62456058D01*
X161264600Y-62508400D01*
X161264600Y-115672068D01*
X161244598Y-115740189D01*
X161190942Y-115786682D01*
X161120668Y-115796786D01*
X161056088Y-115767292D01*
X161022191Y-115720286D01*
X161003935Y-115676211D01*
X161003933Y-115676207D01*
X161002040Y-115671637D01*
X160962570Y-115607228D01*
X160880559Y-115473398D01*
X160880555Y-115473392D01*
X160877976Y-115469184D01*
X160723769Y-115288631D01*
X160543216Y-115134424D01*
X160539008Y-115131845D01*
X160539002Y-115131841D01*
X160344983Y-115012946D01*
X160340763Y-115010360D01*
X160336193Y-115008467D01*
X160336189Y-115008465D01*
X160125967Y-114921389D01*
X160125965Y-114921388D01*
X160121394Y-114919495D01*
X160041191Y-114900240D01*
X159895324Y-114865220D01*
X159895318Y-114865219D01*
X159890511Y-114864065D01*
X159653800Y-114845435D01*
X159417089Y-114864065D01*
X159412282Y-114865219D01*
X159412276Y-114865220D01*
X159266409Y-114900240D01*
X159186206Y-114919495D01*
X159181635Y-114921388D01*
X159181633Y-114921389D01*
X158971411Y-115008465D01*
X158971407Y-115008467D01*
X158966837Y-115010360D01*
X158962617Y-115012946D01*
X158768598Y-115131841D01*
X158768592Y-115131845D01*
X158764384Y-115134424D01*
X158583831Y-115288631D01*
X158429624Y-115469184D01*
X158427045Y-115473392D01*
X158427041Y-115473398D01*
X158345030Y-115607228D01*
X158305560Y-115671637D01*
X158303667Y-115676207D01*
X158303665Y-115676211D01*
X158216589Y-115886433D01*
X158214695Y-115891006D01*
X158159265Y-116121889D01*
X158140635Y-116358600D01*
X158159265Y-116595311D01*
X158160419Y-116600118D01*
X158160420Y-116600124D01*
X158189922Y-116723008D01*
X158214695Y-116826194D01*
X158216588Y-116830765D01*
X158216589Y-116830767D01*
X158303572Y-117040763D01*
X158305560Y-117045563D01*
X158308146Y-117049783D01*
X158427041Y-117243802D01*
X158427045Y-117243808D01*
X158429624Y-117248016D01*
X158583831Y-117428569D01*
X158764384Y-117582776D01*
X158768592Y-117585355D01*
X158768598Y-117585359D01*
X158931788Y-117685362D01*
X158966837Y-117706840D01*
X158971407Y-117708733D01*
X158971411Y-117708735D01*
X159181633Y-117795811D01*
X159186206Y-117797705D01*
X159266409Y-117816960D01*
X159412276Y-117851980D01*
X159412282Y-117851981D01*
X159417089Y-117853135D01*
X159653800Y-117871765D01*
X159890511Y-117853135D01*
X159895318Y-117851981D01*
X159895324Y-117851980D01*
X160041191Y-117816960D01*
X160121394Y-117797705D01*
X160125967Y-117795811D01*
X160336189Y-117708735D01*
X160336193Y-117708733D01*
X160340763Y-117706840D01*
X160375812Y-117685362D01*
X160539002Y-117585359D01*
X160539008Y-117585355D01*
X160543216Y-117582776D01*
X160723769Y-117428569D01*
X160877976Y-117248016D01*
X160880555Y-117243808D01*
X160880559Y-117243802D01*
X160999454Y-117049783D01*
X161002040Y-117045563D01*
X161004029Y-117040763D01*
X161022191Y-116996914D01*
X161066739Y-116941633D01*
X161134103Y-116919212D01*
X161202894Y-116936770D01*
X161251272Y-116988732D01*
X161264600Y-117045132D01*
X161264600Y-122172068D01*
X161244598Y-122240189D01*
X161190942Y-122286682D01*
X161120668Y-122296786D01*
X161056088Y-122267292D01*
X161022191Y-122220286D01*
X161003935Y-122176211D01*
X161003933Y-122176207D01*
X161002040Y-122171637D01*
X160999454Y-122167417D01*
X160880559Y-121973398D01*
X160880555Y-121973392D01*
X160877976Y-121969184D01*
X160744768Y-121813218D01*
X160726977Y-121792387D01*
X160723769Y-121788631D01*
X160543216Y-121634424D01*
X160539008Y-121631845D01*
X160539002Y-121631841D01*
X160344983Y-121512946D01*
X160340763Y-121510360D01*
X160336193Y-121508467D01*
X160336189Y-121508465D01*
X160125967Y-121421389D01*
X160125965Y-121421388D01*
X160121394Y-121419495D01*
X160041191Y-121400240D01*
X159895324Y-121365220D01*
X159895318Y-121365219D01*
X159890511Y-121364065D01*
X159653800Y-121345435D01*
X159417089Y-121364065D01*
X159412282Y-121365219D01*
X159412276Y-121365220D01*
X159266409Y-121400240D01*
X159186206Y-121419495D01*
X159181635Y-121421388D01*
X159181633Y-121421389D01*
X158971411Y-121508465D01*
X158971407Y-121508467D01*
X158966837Y-121510360D01*
X158962617Y-121512946D01*
X158768598Y-121631841D01*
X158768592Y-121631845D01*
X158764384Y-121634424D01*
X158583831Y-121788631D01*
X158580623Y-121792387D01*
X158562832Y-121813218D01*
X158429624Y-121969184D01*
X158427045Y-121973392D01*
X158427041Y-121973398D01*
X158308146Y-122167417D01*
X158305560Y-122171637D01*
X158303667Y-122176207D01*
X158303665Y-122176211D01*
X158216589Y-122386433D01*
X158214695Y-122391006D01*
X158202706Y-122440945D01*
X158168201Y-122584669D01*
X158159265Y-122621889D01*
X158140635Y-122858600D01*
X158159265Y-123095311D01*
X158214695Y-123326194D01*
X158216588Y-123330765D01*
X158216589Y-123330767D01*
X158303572Y-123540763D01*
X158305560Y-123545563D01*
X158308146Y-123549783D01*
X158427041Y-123743802D01*
X158427045Y-123743808D01*
X158429624Y-123748016D01*
X158583831Y-123928569D01*
X158764384Y-124082776D01*
X158768592Y-124085355D01*
X158768598Y-124085359D01*
X158961884Y-124203805D01*
X158966837Y-124206840D01*
X158971407Y-124208733D01*
X158971411Y-124208735D01*
X159181633Y-124295811D01*
X159186206Y-124297705D01*
X159266409Y-124316960D01*
X159412276Y-124351980D01*
X159412282Y-124351981D01*
X159417089Y-124353135D01*
X159653800Y-124371765D01*
X159890511Y-124353135D01*
X159895318Y-124351981D01*
X159895324Y-124351980D01*
X160041191Y-124316960D01*
X160121394Y-124297705D01*
X160125967Y-124295811D01*
X160336189Y-124208735D01*
X160336193Y-124208733D01*
X160340763Y-124206840D01*
X160345716Y-124203805D01*
X160539002Y-124085359D01*
X160539008Y-124085355D01*
X160543216Y-124082776D01*
X160723769Y-123928569D01*
X160877976Y-123748016D01*
X160880555Y-123743808D01*
X160880559Y-123743802D01*
X160999454Y-123549783D01*
X161002040Y-123545563D01*
X161004029Y-123540763D01*
X161022191Y-123496914D01*
X161066739Y-123441633D01*
X161134103Y-123419212D01*
X161202894Y-123436770D01*
X161251272Y-123488732D01*
X161264600Y-123545132D01*
X161264600Y-131090400D01*
X161244598Y-131158521D01*
X161190942Y-131205014D01*
X161138600Y-131216400D01*
X122401600Y-131216400D01*
X122333479Y-131196398D01*
X122286986Y-131142742D01*
X122275600Y-131090400D01*
X122275600Y-129804669D01*
X131414001Y-129804669D01*
X131414371Y-129811490D01*
X131419895Y-129862352D01*
X131423521Y-129877604D01*
X131468676Y-129998054D01*
X131477214Y-130013649D01*
X131553715Y-130115724D01*
X131566276Y-130128285D01*
X131668351Y-130204786D01*
X131683946Y-130213324D01*
X131804394Y-130258478D01*
X131819649Y-130262105D01*
X131870514Y-130267631D01*
X131877328Y-130268000D01*
X132499885Y-130268000D01*
X132515124Y-130263525D01*
X132516329Y-130262135D01*
X132518000Y-130254452D01*
X132518000Y-130249884D01*
X133026000Y-130249884D01*
X133030475Y-130265123D01*
X133031865Y-130266328D01*
X133039548Y-130267999D01*
X133666669Y-130267999D01*
X133673490Y-130267629D01*
X133724352Y-130262105D01*
X133739604Y-130258479D01*
X133860054Y-130213324D01*
X133875649Y-130204786D01*
X133977724Y-130128285D01*
X133990285Y-130115724D01*
X134066786Y-130013649D01*
X134075324Y-129998054D01*
X134120478Y-129877606D01*
X134124105Y-129862351D01*
X134129631Y-129811486D01*
X134130000Y-129804672D01*
X134130000Y-129232083D01*
X149192251Y-129232083D01*
X149192548Y-129237236D01*
X149192548Y-129237239D01*
X149198011Y-129331978D01*
X149205110Y-129455103D01*
X149206247Y-129460149D01*
X149206248Y-129460155D01*
X149226119Y-129548327D01*
X149254222Y-129673027D01*
X149338266Y-129880004D01*
X149454987Y-130070476D01*
X149601250Y-130239326D01*
X149773126Y-130382020D01*
X149966000Y-130494726D01*
X150174692Y-130574418D01*
X150179760Y-130575449D01*
X150179763Y-130575450D01*
X150287017Y-130597271D01*
X150393597Y-130618955D01*
X150398772Y-130619145D01*
X150398774Y-130619145D01*
X150611673Y-130626952D01*
X150611677Y-130626952D01*
X150616837Y-130627141D01*
X150621957Y-130626485D01*
X150621959Y-130626485D01*
X150833288Y-130599413D01*
X150833289Y-130599413D01*
X150838416Y-130598756D01*
X150843366Y-130597271D01*
X151047429Y-130536049D01*
X151047434Y-130536047D01*
X151052384Y-130534562D01*
X151252994Y-130436284D01*
X151434860Y-130306561D01*
X151487152Y-130254452D01*
X151589435Y-130152525D01*
X151593096Y-130148877D01*
X151652594Y-130066077D01*
X151720435Y-129971665D01*
X151723453Y-129967465D01*
X151803912Y-129804669D01*
X151820136Y-129771841D01*
X151820137Y-129771839D01*
X151822430Y-129767199D01*
X151887370Y-129553457D01*
X151916529Y-129331978D01*
X151918156Y-129265388D01*
X151899852Y-129042749D01*
X151845431Y-128826090D01*
X151756354Y-128621228D01*
X151635014Y-128433665D01*
X151631540Y-128429847D01*
X151631533Y-128429838D01*
X151487435Y-128271476D01*
X151456383Y-128207630D01*
X151464779Y-128137132D01*
X151509956Y-128082364D01*
X151536400Y-128068695D01*
X151643052Y-128028713D01*
X151658649Y-128020174D01*
X151760724Y-127943673D01*
X151773285Y-127931112D01*
X151849786Y-127829037D01*
X151858324Y-127813442D01*
X151903478Y-127692994D01*
X151907105Y-127677739D01*
X151912631Y-127626874D01*
X151913000Y-127620060D01*
X151913000Y-126997503D01*
X151908525Y-126982264D01*
X151907135Y-126981059D01*
X151899452Y-126979388D01*
X149215116Y-126979388D01*
X149199877Y-126983863D01*
X149198672Y-126985253D01*
X149197001Y-126992936D01*
X149197001Y-127620057D01*
X149197371Y-127626878D01*
X149202895Y-127677740D01*
X149206521Y-127692992D01*
X149251676Y-127813442D01*
X149260214Y-127829037D01*
X149336715Y-127931112D01*
X149349276Y-127943673D01*
X149451351Y-128020174D01*
X149466946Y-128028712D01*
X149575827Y-128069530D01*
X149632591Y-128112172D01*
X149657291Y-128178733D01*
X149642083Y-128248082D01*
X149622691Y-128274563D01*
X149499200Y-128403789D01*
X149495629Y-128407526D01*
X149369743Y-128592068D01*
X149275688Y-128794693D01*
X149215989Y-129009958D01*
X149192251Y-129232083D01*
X134130000Y-129232083D01*
X134130000Y-129182115D01*
X134125525Y-129166876D01*
X134124135Y-129165671D01*
X134116452Y-129164000D01*
X133044115Y-129164000D01*
X133028876Y-129168475D01*
X133027671Y-129169865D01*
X133026000Y-129177548D01*
X133026000Y-130249884D01*
X132518000Y-130249884D01*
X132518000Y-129182115D01*
X132513525Y-129166876D01*
X132512135Y-129165671D01*
X132504452Y-129164000D01*
X131432116Y-129164000D01*
X131416877Y-129168475D01*
X131415672Y-129169865D01*
X131414001Y-129177548D01*
X131414001Y-129804669D01*
X122275600Y-129804669D01*
X122275600Y-126336695D01*
X131409251Y-126336695D01*
X131409548Y-126341848D01*
X131409548Y-126341851D01*
X131415011Y-126436590D01*
X131422110Y-126559715D01*
X131423247Y-126564761D01*
X131423248Y-126564767D01*
X131443119Y-126652939D01*
X131471222Y-126777639D01*
X131555266Y-126984616D01*
X131671987Y-127175088D01*
X131818250Y-127343938D01*
X131822225Y-127347238D01*
X131822231Y-127347244D01*
X131827425Y-127351556D01*
X131867059Y-127410460D01*
X131868555Y-127481441D01*
X131831439Y-127541962D01*
X131791168Y-127566480D01*
X131683946Y-127606676D01*
X131668351Y-127615214D01*
X131566276Y-127691715D01*
X131553715Y-127704276D01*
X131477214Y-127806351D01*
X131468676Y-127821946D01*
X131423522Y-127942394D01*
X131419895Y-127957649D01*
X131414369Y-128008514D01*
X131414000Y-128015328D01*
X131414000Y-128637885D01*
X131418475Y-128653124D01*
X131419865Y-128654329D01*
X131427548Y-128656000D01*
X134111884Y-128656000D01*
X134127123Y-128651525D01*
X134128328Y-128650135D01*
X134129999Y-128642452D01*
X134129999Y-128015331D01*
X134129629Y-128008510D01*
X134124105Y-127957648D01*
X134120479Y-127942396D01*
X134075324Y-127821946D01*
X134066786Y-127806351D01*
X133990285Y-127704276D01*
X133977724Y-127691715D01*
X133875649Y-127615214D01*
X133860054Y-127606676D01*
X133749813Y-127565348D01*
X133693049Y-127522706D01*
X133668349Y-127456145D01*
X133683557Y-127386796D01*
X133705104Y-127358115D01*
X133806430Y-127257144D01*
X133806440Y-127257132D01*
X133810096Y-127253489D01*
X133869594Y-127170689D01*
X133937435Y-127076277D01*
X133940453Y-127072077D01*
X133986263Y-126979388D01*
X134037136Y-126876453D01*
X134037137Y-126876451D01*
X134039430Y-126871811D01*
X134104370Y-126658069D01*
X134131333Y-126453273D01*
X149197000Y-126453273D01*
X149201475Y-126468512D01*
X149202865Y-126469717D01*
X149210548Y-126471388D01*
X150282885Y-126471388D01*
X150298124Y-126466913D01*
X150299329Y-126465523D01*
X150301000Y-126457840D01*
X150301000Y-126453273D01*
X150809000Y-126453273D01*
X150813475Y-126468512D01*
X150814865Y-126469717D01*
X150822548Y-126471388D01*
X151894884Y-126471388D01*
X151910123Y-126466913D01*
X151911328Y-126465523D01*
X151912999Y-126457840D01*
X151912999Y-125830719D01*
X151912629Y-125823898D01*
X151907105Y-125773036D01*
X151903479Y-125757784D01*
X151858324Y-125637334D01*
X151849786Y-125621739D01*
X151773285Y-125519664D01*
X151760724Y-125507103D01*
X151658649Y-125430602D01*
X151643054Y-125422064D01*
X151522606Y-125376910D01*
X151507351Y-125373283D01*
X151456486Y-125367757D01*
X151449672Y-125367388D01*
X150827115Y-125367388D01*
X150811876Y-125371863D01*
X150810671Y-125373253D01*
X150809000Y-125380936D01*
X150809000Y-126453273D01*
X150301000Y-126453273D01*
X150301000Y-125385504D01*
X150296525Y-125370265D01*
X150295135Y-125369060D01*
X150287452Y-125367389D01*
X149660331Y-125367389D01*
X149653510Y-125367759D01*
X149602648Y-125373283D01*
X149587396Y-125376909D01*
X149466946Y-125422064D01*
X149451351Y-125430602D01*
X149349276Y-125507103D01*
X149336715Y-125519664D01*
X149260214Y-125621739D01*
X149251676Y-125637334D01*
X149206522Y-125757782D01*
X149202895Y-125773037D01*
X149197369Y-125823902D01*
X149197000Y-125830716D01*
X149197000Y-126453273D01*
X134131333Y-126453273D01*
X134133529Y-126436590D01*
X134135156Y-126370000D01*
X134116852Y-126147361D01*
X134062431Y-125930702D01*
X133973354Y-125725840D01*
X133852014Y-125538277D01*
X133701670Y-125373051D01*
X133697619Y-125369852D01*
X133697615Y-125369848D01*
X133530414Y-125237800D01*
X133530410Y-125237798D01*
X133526359Y-125234598D01*
X133330789Y-125126638D01*
X133325920Y-125124914D01*
X133325916Y-125124912D01*
X133125087Y-125053795D01*
X133125083Y-125053794D01*
X133120212Y-125052069D01*
X133115119Y-125051162D01*
X133115116Y-125051161D01*
X132905373Y-125013800D01*
X132905367Y-125013799D01*
X132900284Y-125012894D01*
X132826452Y-125011992D01*
X132682081Y-125010228D01*
X132682079Y-125010228D01*
X132676911Y-125010165D01*
X132456091Y-125043955D01*
X132243756Y-125113357D01*
X132045607Y-125216507D01*
X132041474Y-125219610D01*
X132041471Y-125219612D01*
X132017247Y-125237800D01*
X131866965Y-125350635D01*
X131850603Y-125367757D01*
X131717441Y-125507103D01*
X131712629Y-125512138D01*
X131586743Y-125696680D01*
X131492688Y-125899305D01*
X131432989Y-126114570D01*
X131409251Y-126336695D01*
X122275600Y-126336695D01*
X122275600Y-124091270D01*
X154285960Y-124091270D01*
X154291687Y-124098920D01*
X154462842Y-124203805D01*
X154471637Y-124208287D01*
X154681788Y-124295334D01*
X154691173Y-124298383D01*
X154912354Y-124351485D01*
X154922101Y-124353028D01*
X155148870Y-124370875D01*
X155158730Y-124370875D01*
X155385499Y-124353028D01*
X155395246Y-124351485D01*
X155616427Y-124298383D01*
X155625812Y-124295334D01*
X155835963Y-124208287D01*
X155844758Y-124203805D01*
X156012245Y-124101168D01*
X156021707Y-124090710D01*
X156017924Y-124081934D01*
X155166612Y-123230622D01*
X155152668Y-123223008D01*
X155150835Y-123223139D01*
X155144220Y-123227390D01*
X154292720Y-124078890D01*
X154285960Y-124091270D01*
X122275600Y-124091270D01*
X122275600Y-122941669D01*
X131484001Y-122941669D01*
X131484371Y-122948490D01*
X131489895Y-122999352D01*
X131493521Y-123014604D01*
X131538676Y-123135054D01*
X131547214Y-123150649D01*
X131623715Y-123252724D01*
X131636276Y-123265285D01*
X131738351Y-123341786D01*
X131753946Y-123350324D01*
X131874394Y-123395478D01*
X131889649Y-123399105D01*
X131940514Y-123404631D01*
X131947328Y-123405000D01*
X132569885Y-123405000D01*
X132585124Y-123400525D01*
X132586329Y-123399135D01*
X132588000Y-123391452D01*
X132588000Y-123386884D01*
X133096000Y-123386884D01*
X133100475Y-123402123D01*
X133101865Y-123403328D01*
X133109548Y-123404999D01*
X133736669Y-123404999D01*
X133743490Y-123404629D01*
X133794352Y-123399105D01*
X133809604Y-123395479D01*
X133930054Y-123350324D01*
X133945649Y-123341786D01*
X134047724Y-123265285D01*
X134060285Y-123252724D01*
X134136786Y-123150649D01*
X134145324Y-123135054D01*
X134190478Y-123014606D01*
X134194105Y-122999351D01*
X134199631Y-122948486D01*
X134200000Y-122941672D01*
X134200000Y-122863530D01*
X153641525Y-122863530D01*
X153659372Y-123090299D01*
X153660915Y-123100046D01*
X153714017Y-123321227D01*
X153717066Y-123330612D01*
X153804113Y-123540763D01*
X153808595Y-123549558D01*
X153911232Y-123717045D01*
X153921690Y-123726507D01*
X153930466Y-123722724D01*
X154781778Y-122871412D01*
X154788156Y-122859732D01*
X155518208Y-122859732D01*
X155518339Y-122861565D01*
X155522590Y-122868180D01*
X156374090Y-123719680D01*
X156386470Y-123726440D01*
X156394120Y-123720713D01*
X156499005Y-123549558D01*
X156503487Y-123540763D01*
X156590534Y-123330612D01*
X156593583Y-123321227D01*
X156646685Y-123100046D01*
X156648228Y-123090299D01*
X156666075Y-122863530D01*
X156666075Y-122853670D01*
X156648228Y-122626901D01*
X156646685Y-122617154D01*
X156593583Y-122395973D01*
X156590534Y-122386588D01*
X156503487Y-122176437D01*
X156499005Y-122167642D01*
X156396368Y-122000155D01*
X156385910Y-121990693D01*
X156377134Y-121994476D01*
X155525822Y-122845788D01*
X155518208Y-122859732D01*
X154788156Y-122859732D01*
X154789392Y-122857468D01*
X154789261Y-122855635D01*
X154785010Y-122849020D01*
X153933510Y-121997520D01*
X153921130Y-121990760D01*
X153913480Y-121996487D01*
X153808595Y-122167642D01*
X153804113Y-122176437D01*
X153717066Y-122386588D01*
X153714017Y-122395973D01*
X153660915Y-122617154D01*
X153659372Y-122626901D01*
X153641525Y-122853670D01*
X153641525Y-122863530D01*
X134200000Y-122863530D01*
X134200000Y-122319115D01*
X134195525Y-122303876D01*
X134194135Y-122302671D01*
X134186452Y-122301000D01*
X133114115Y-122301000D01*
X133098876Y-122305475D01*
X133097671Y-122306865D01*
X133096000Y-122314548D01*
X133096000Y-123386884D01*
X132588000Y-123386884D01*
X132588000Y-122319115D01*
X132583525Y-122303876D01*
X132582135Y-122302671D01*
X132574452Y-122301000D01*
X131502116Y-122301000D01*
X131486877Y-122305475D01*
X131485672Y-122306865D01*
X131484001Y-122314548D01*
X131484001Y-122941669D01*
X122275600Y-122941669D01*
X122275600Y-119473695D01*
X131479251Y-119473695D01*
X131479548Y-119478848D01*
X131479548Y-119478851D01*
X131489634Y-119653776D01*
X131492110Y-119696715D01*
X131493247Y-119701761D01*
X131493248Y-119701767D01*
X131513119Y-119789939D01*
X131541222Y-119914639D01*
X131625266Y-120121616D01*
X131741987Y-120312088D01*
X131888250Y-120480938D01*
X131892225Y-120484238D01*
X131892231Y-120484244D01*
X131897425Y-120488556D01*
X131937059Y-120547460D01*
X131938555Y-120618441D01*
X131901439Y-120678962D01*
X131861168Y-120703480D01*
X131753946Y-120743676D01*
X131738351Y-120752214D01*
X131636276Y-120828715D01*
X131623715Y-120841276D01*
X131547214Y-120943351D01*
X131538676Y-120958946D01*
X131493522Y-121079394D01*
X131489895Y-121094649D01*
X131484369Y-121145514D01*
X131484000Y-121152328D01*
X131484000Y-121774885D01*
X131488475Y-121790124D01*
X131489865Y-121791329D01*
X131497548Y-121793000D01*
X134181884Y-121793000D01*
X134197123Y-121788525D01*
X134198328Y-121787135D01*
X134199999Y-121779452D01*
X134199999Y-121152331D01*
X134199629Y-121145510D01*
X134194105Y-121094648D01*
X134190479Y-121079396D01*
X134145324Y-120958946D01*
X134136786Y-120943351D01*
X134060285Y-120841276D01*
X134047724Y-120828715D01*
X133945649Y-120752214D01*
X133930054Y-120743676D01*
X133819813Y-120702348D01*
X133763049Y-120659706D01*
X133738349Y-120593145D01*
X133753557Y-120523796D01*
X133775104Y-120495115D01*
X133876430Y-120394144D01*
X133876440Y-120394132D01*
X133880096Y-120390489D01*
X133939594Y-120307689D01*
X134007435Y-120213277D01*
X134010453Y-120209077D01*
X134109430Y-120008811D01*
X134169779Y-119810181D01*
X134172865Y-119800023D01*
X134172865Y-119800021D01*
X134174370Y-119795069D01*
X134203529Y-119573590D01*
X134205156Y-119507000D01*
X134186852Y-119284361D01*
X134132431Y-119067702D01*
X134043354Y-118862840D01*
X133922014Y-118675277D01*
X133771670Y-118510051D01*
X133767619Y-118506852D01*
X133767615Y-118506848D01*
X133600414Y-118374800D01*
X133600410Y-118374798D01*
X133596359Y-118371598D01*
X133555053Y-118348796D01*
X133505084Y-118298364D01*
X133490312Y-118228921D01*
X133515428Y-118162516D01*
X133542780Y-118135909D01*
X133586603Y-118104650D01*
X133721860Y-118008173D01*
X133727205Y-118002846D01*
X133728054Y-118002385D01*
X133729474Y-118001185D01*
X133729722Y-118001478D01*
X133789579Y-117968932D01*
X133816143Y-117966100D01*
X134957154Y-117966100D01*
X135025275Y-117986102D01*
X135071768Y-118039758D01*
X135081872Y-118110032D01*
X135064415Y-118158215D01*
X135031312Y-118211916D01*
X134987455Y-118283066D01*
X134976485Y-118300862D01*
X134920803Y-118468739D01*
X134910100Y-118573200D01*
X134910100Y-119374000D01*
X134910437Y-119377246D01*
X134910437Y-119377250D01*
X134919912Y-119468562D01*
X134921074Y-119479766D01*
X134923255Y-119486302D01*
X134923255Y-119486304D01*
X134951259Y-119570240D01*
X134977050Y-119647546D01*
X135070122Y-119797948D01*
X135075304Y-119803121D01*
X135079849Y-119808855D01*
X135078176Y-119810181D01*
X135107198Y-119863225D01*
X135110100Y-119890111D01*
X135110100Y-120674369D01*
X135110400Y-120677425D01*
X135110400Y-120677432D01*
X135110550Y-120678962D01*
X135124520Y-120821433D01*
X135126302Y-120827334D01*
X135126302Y-120827336D01*
X135130237Y-120840368D01*
X135181684Y-121010769D01*
X135274534Y-121185396D01*
X135344891Y-121271662D01*
X135395640Y-121333887D01*
X135395643Y-121333890D01*
X135399535Y-121338662D01*
X135404282Y-121342589D01*
X135404284Y-121342591D01*
X135434862Y-121367887D01*
X135443642Y-121375877D01*
X136428545Y-122360779D01*
X136437647Y-122370922D01*
X136461368Y-122400425D01*
X136466096Y-122404392D01*
X136499821Y-122432691D01*
X136503469Y-122435872D01*
X136505281Y-122437515D01*
X136507475Y-122439709D01*
X136540749Y-122467042D01*
X136541547Y-122467704D01*
X136612874Y-122527554D01*
X136617544Y-122530122D01*
X136621661Y-122533503D01*
X136641479Y-122544129D01*
X136703486Y-122577377D01*
X136704645Y-122578006D01*
X136780781Y-122619862D01*
X136780789Y-122619865D01*
X136786187Y-122622833D01*
X136791269Y-122624445D01*
X136795963Y-122626962D01*
X136884931Y-122654162D01*
X136885959Y-122654482D01*
X136974706Y-122682635D01*
X136980002Y-122683229D01*
X136985098Y-122684787D01*
X137077657Y-122694190D01*
X137078793Y-122694311D01*
X137112408Y-122698081D01*
X137125130Y-122699508D01*
X137125134Y-122699508D01*
X137128627Y-122699900D01*
X137132154Y-122699900D01*
X137133139Y-122699955D01*
X137138819Y-122700402D01*
X137168225Y-122703389D01*
X137175737Y-122704152D01*
X137175739Y-122704152D01*
X137181862Y-122704774D01*
X137227508Y-122700459D01*
X137239367Y-122699900D01*
X145937357Y-122699900D01*
X145950964Y-122700637D01*
X145982462Y-122704059D01*
X145982467Y-122704059D01*
X145988588Y-122704724D01*
X146014838Y-122702427D01*
X146038588Y-122700350D01*
X146043414Y-122700021D01*
X146045886Y-122699900D01*
X146048969Y-122699900D01*
X146060938Y-122698726D01*
X146091706Y-122695710D01*
X146093019Y-122695588D01*
X146137284Y-122691715D01*
X146185613Y-122687487D01*
X146190732Y-122686000D01*
X146196033Y-122685480D01*
X146285034Y-122658609D01*
X146286167Y-122658274D01*
X146369614Y-122634030D01*
X146369618Y-122634028D01*
X146375536Y-122632309D01*
X146380268Y-122629856D01*
X146385369Y-122628316D01*
X146392373Y-122624592D01*
X146467460Y-122584669D01*
X146468626Y-122584057D01*
X146545653Y-122544129D01*
X146551126Y-122541292D01*
X146555289Y-122537969D01*
X146559996Y-122535466D01*
X146632118Y-122476645D01*
X146632974Y-122475954D01*
X146672173Y-122444662D01*
X146674677Y-122442158D01*
X146675395Y-122441516D01*
X146679728Y-122437815D01*
X146713262Y-122410465D01*
X146742488Y-122375137D01*
X146750477Y-122366358D01*
X147490345Y-121626490D01*
X154285893Y-121626490D01*
X154289676Y-121635266D01*
X155140988Y-122486578D01*
X155154932Y-122494192D01*
X155156765Y-122494061D01*
X155163380Y-122489810D01*
X156014880Y-121638310D01*
X156021640Y-121625930D01*
X156015913Y-121618280D01*
X155844758Y-121513395D01*
X155835963Y-121508913D01*
X155625812Y-121421866D01*
X155616427Y-121418817D01*
X155395246Y-121365715D01*
X155385499Y-121364172D01*
X155158730Y-121346325D01*
X155148870Y-121346325D01*
X154922101Y-121364172D01*
X154912354Y-121365715D01*
X154691173Y-121418817D01*
X154681788Y-121421866D01*
X154471637Y-121508913D01*
X154462842Y-121513395D01*
X154295355Y-121616032D01*
X154285893Y-121626490D01*
X147490345Y-121626490D01*
X150721170Y-118395664D01*
X150731313Y-118386562D01*
X150756009Y-118366706D01*
X150760816Y-118362841D01*
X150793083Y-118324387D01*
X150796263Y-118320740D01*
X150797906Y-118318928D01*
X150800100Y-118316734D01*
X150827433Y-118283460D01*
X150828139Y-118282609D01*
X150873189Y-118228921D01*
X150887945Y-118211335D01*
X150890513Y-118206665D01*
X150893894Y-118202548D01*
X150937768Y-118120723D01*
X150938397Y-118119564D01*
X150980253Y-118043428D01*
X150980256Y-118043420D01*
X150983224Y-118038022D01*
X150984836Y-118032940D01*
X150987353Y-118028246D01*
X151014553Y-117939278D01*
X151014899Y-117938167D01*
X151015260Y-117937031D01*
X151043026Y-117849503D01*
X151043620Y-117844207D01*
X151045178Y-117839111D01*
X151054581Y-117746552D01*
X151054702Y-117745416D01*
X151060291Y-117695582D01*
X151060291Y-117692055D01*
X151060346Y-117691070D01*
X151060793Y-117685390D01*
X151065165Y-117642347D01*
X151060850Y-117596700D01*
X151060594Y-117591270D01*
X154285960Y-117591270D01*
X154291687Y-117598920D01*
X154462842Y-117703805D01*
X154471637Y-117708287D01*
X154681788Y-117795334D01*
X154691173Y-117798383D01*
X154912354Y-117851485D01*
X154922101Y-117853028D01*
X155148870Y-117870875D01*
X155158730Y-117870875D01*
X155385499Y-117853028D01*
X155395246Y-117851485D01*
X155616427Y-117798383D01*
X155625812Y-117795334D01*
X155835963Y-117708287D01*
X155844758Y-117703805D01*
X156012245Y-117601168D01*
X156021707Y-117590710D01*
X156017924Y-117581934D01*
X155166612Y-116730622D01*
X155152668Y-116723008D01*
X155150835Y-116723139D01*
X155144220Y-116727390D01*
X154292720Y-117578890D01*
X154285960Y-117591270D01*
X151060594Y-117591270D01*
X151060291Y-117584842D01*
X151060291Y-116363530D01*
X153641525Y-116363530D01*
X153659372Y-116590299D01*
X153660915Y-116600046D01*
X153714017Y-116821227D01*
X153717066Y-116830612D01*
X153804113Y-117040763D01*
X153808595Y-117049558D01*
X153911232Y-117217045D01*
X153921690Y-117226507D01*
X153930466Y-117222724D01*
X154781778Y-116371412D01*
X154788156Y-116359732D01*
X155518208Y-116359732D01*
X155518339Y-116361565D01*
X155522590Y-116368180D01*
X156374090Y-117219680D01*
X156386470Y-117226440D01*
X156394120Y-117220713D01*
X156499005Y-117049558D01*
X156503487Y-117040763D01*
X156590534Y-116830612D01*
X156593583Y-116821227D01*
X156646685Y-116600046D01*
X156648228Y-116590299D01*
X156666075Y-116363530D01*
X156666075Y-116353670D01*
X156648228Y-116126901D01*
X156646685Y-116117154D01*
X156593583Y-115895973D01*
X156590534Y-115886588D01*
X156503487Y-115676437D01*
X156499005Y-115667642D01*
X156396368Y-115500155D01*
X156385910Y-115490693D01*
X156377134Y-115494476D01*
X155525822Y-116345788D01*
X155518208Y-116359732D01*
X154788156Y-116359732D01*
X154789392Y-116357468D01*
X154789261Y-116355635D01*
X154785010Y-116349020D01*
X153933510Y-115497520D01*
X153921130Y-115490760D01*
X153913480Y-115496487D01*
X153808595Y-115667642D01*
X153804113Y-115676437D01*
X153717066Y-115886588D01*
X153714017Y-115895973D01*
X153660915Y-116117154D01*
X153659372Y-116126901D01*
X153641525Y-116353670D01*
X153641525Y-116363530D01*
X151060291Y-116363530D01*
X151060291Y-115126490D01*
X154285893Y-115126490D01*
X154289676Y-115135266D01*
X155140988Y-115986578D01*
X155154932Y-115994192D01*
X155156765Y-115994061D01*
X155163380Y-115989810D01*
X156014880Y-115138310D01*
X156021640Y-115125930D01*
X156015913Y-115118280D01*
X155844758Y-115013395D01*
X155835963Y-115008913D01*
X155625812Y-114921866D01*
X155616427Y-114918817D01*
X155395246Y-114865715D01*
X155385499Y-114864172D01*
X155158730Y-114846325D01*
X155148870Y-114846325D01*
X154922101Y-114864172D01*
X154912354Y-114865715D01*
X154691173Y-114918817D01*
X154681788Y-114921866D01*
X154471637Y-115008913D01*
X154462842Y-115013395D01*
X154295355Y-115116032D01*
X154285893Y-115126490D01*
X151060291Y-115126490D01*
X151060291Y-112818000D01*
X151080293Y-112749879D01*
X151133949Y-112703386D01*
X151186291Y-112692000D01*
X153206484Y-112692000D01*
X153210002Y-112692049D01*
X153304650Y-112694693D01*
X153304653Y-112694693D01*
X153309705Y-112694834D01*
X153387598Y-112684441D01*
X153394139Y-112683742D01*
X153422832Y-112681433D01*
X153467423Y-112677846D01*
X153467427Y-112677845D01*
X153472465Y-112677440D01*
X153504378Y-112669601D01*
X153517758Y-112667074D01*
X153550320Y-112662729D01*
X153555161Y-112661268D01*
X153555163Y-112661267D01*
X153625529Y-112640022D01*
X153631892Y-112638281D01*
X153708206Y-112619537D01*
X153738452Y-112606699D01*
X153751263Y-112602061D01*
X153777862Y-112594030D01*
X153782708Y-112592567D01*
X153787256Y-112590349D01*
X153787263Y-112590346D01*
X153853318Y-112558129D01*
X153859320Y-112555393D01*
X153904004Y-112536425D01*
X153931656Y-112524688D01*
X153959456Y-112507181D01*
X153971360Y-112500555D01*
X154000888Y-112486154D01*
X154065100Y-112440857D01*
X154070586Y-112437199D01*
X154132786Y-112398029D01*
X154132787Y-112398028D01*
X154137067Y-112395333D01*
X154140856Y-112391992D01*
X154140862Y-112391988D01*
X154161717Y-112373602D01*
X154172412Y-112365156D01*
X154175850Y-112362731D01*
X154199247Y-112346226D01*
X154209125Y-112337206D01*
X154219687Y-112327562D01*
X154219695Y-112327554D01*
X154220750Y-112326591D01*
X154260466Y-112286875D01*
X154266236Y-112281456D01*
X154315362Y-112238146D01*
X154319155Y-112234802D01*
X154322365Y-112230894D01*
X154342619Y-112206236D01*
X154353411Y-112194662D01*
X154410002Y-112141147D01*
X154413681Y-112137668D01*
X154461418Y-112075231D01*
X154465531Y-112070132D01*
X154516470Y-112010280D01*
X154519089Y-112005955D01*
X154519093Y-112005950D01*
X154533491Y-111982176D01*
X154541163Y-111970929D01*
X154561120Y-111944826D01*
X154598247Y-111875584D01*
X154601510Y-111869863D01*
X154639602Y-111806966D01*
X154639603Y-111806965D01*
X154642220Y-111802643D01*
X154654534Y-111772166D01*
X154660303Y-111759850D01*
X154675831Y-111730891D01*
X154701423Y-111656567D01*
X154703718Y-111650429D01*
X154731258Y-111582267D01*
X154731259Y-111582263D01*
X154733155Y-111577571D01*
X154740432Y-111545539D01*
X154744163Y-111532441D01*
X154754862Y-111501369D01*
X154768243Y-111423900D01*
X154769526Y-111417482D01*
X154774429Y-111395904D01*
X154786935Y-111340856D01*
X154788999Y-111308047D01*
X154790585Y-111294547D01*
X154796179Y-111262164D01*
X154797125Y-111241341D01*
X154797436Y-111234494D01*
X154797436Y-111234475D01*
X154797500Y-111233075D01*
X154797500Y-111176893D01*
X154797749Y-111168981D01*
X154801860Y-111103642D01*
X154802178Y-111098588D01*
X154798101Y-111057009D01*
X154797500Y-111044713D01*
X154797500Y-104799002D01*
X154797549Y-104795483D01*
X154800193Y-104700850D01*
X154800193Y-104700847D01*
X154800334Y-104695795D01*
X154789941Y-104617902D01*
X154789241Y-104611353D01*
X154783346Y-104538077D01*
X154783345Y-104538073D01*
X154782940Y-104533035D01*
X154775101Y-104501122D01*
X154772573Y-104487738D01*
X154768898Y-104460194D01*
X154768229Y-104455180D01*
X154761675Y-104433471D01*
X154745522Y-104379971D01*
X154743781Y-104373608D01*
X154726244Y-104302209D01*
X154725037Y-104297294D01*
X154712199Y-104267048D01*
X154707561Y-104254237D01*
X154699530Y-104227638D01*
X154698067Y-104222792D01*
X154695849Y-104218244D01*
X154695846Y-104218237D01*
X154663629Y-104152182D01*
X154660893Y-104146180D01*
X154632162Y-104078495D01*
X154630188Y-104073844D01*
X154612681Y-104046044D01*
X154606052Y-104034134D01*
X154602678Y-104027216D01*
X154591654Y-104004612D01*
X154546357Y-103940400D01*
X154542699Y-103934914D01*
X154503529Y-103872714D01*
X154503528Y-103872713D01*
X154500833Y-103868433D01*
X154497492Y-103864644D01*
X154497488Y-103864638D01*
X154479102Y-103843783D01*
X154470656Y-103833088D01*
X154466356Y-103826993D01*
X154451726Y-103806253D01*
X154432091Y-103784750D01*
X154392375Y-103745034D01*
X154386956Y-103739264D01*
X154343650Y-103690142D01*
X154343647Y-103690139D01*
X154340302Y-103686345D01*
X154317992Y-103668019D01*
X154308011Y-103659821D01*
X154298892Y-103651551D01*
X146218805Y-95571464D01*
X146184779Y-95509152D01*
X146181900Y-95482369D01*
X146181900Y-94361000D01*
X146660496Y-94361000D01*
X146680458Y-94550928D01*
X146739473Y-94732556D01*
X146834960Y-94897944D01*
X146962747Y-95039866D01*
X147117248Y-95152118D01*
X147123276Y-95154802D01*
X147123278Y-95154803D01*
X147285681Y-95227109D01*
X147291712Y-95229794D01*
X147385113Y-95249647D01*
X147472056Y-95268128D01*
X147472061Y-95268128D01*
X147478513Y-95269500D01*
X147669487Y-95269500D01*
X147675939Y-95268128D01*
X147675944Y-95268128D01*
X147762887Y-95249647D01*
X147856288Y-95229794D01*
X147862319Y-95227109D01*
X148024722Y-95154803D01*
X148024724Y-95154802D01*
X148030752Y-95152118D01*
X148111344Y-95093564D01*
X148178211Y-95069706D01*
X148185405Y-95069500D01*
X157503595Y-95069500D01*
X157571716Y-95089502D01*
X157577656Y-95093564D01*
X157658248Y-95152118D01*
X157664276Y-95154802D01*
X157664278Y-95154803D01*
X157826681Y-95227109D01*
X157832712Y-95229794D01*
X157926113Y-95249647D01*
X158013056Y-95268128D01*
X158013061Y-95268128D01*
X158019513Y-95269500D01*
X158210487Y-95269500D01*
X158216939Y-95268128D01*
X158216944Y-95268128D01*
X158303887Y-95249647D01*
X158397288Y-95229794D01*
X158403319Y-95227109D01*
X158565722Y-95154803D01*
X158565724Y-95154802D01*
X158571752Y-95152118D01*
X158726253Y-95039866D01*
X158854040Y-94897944D01*
X158949527Y-94732556D01*
X159008542Y-94550928D01*
X159028504Y-94361000D01*
X159008542Y-94171072D01*
X158949527Y-93989444D01*
X158854040Y-93824056D01*
X158726253Y-93682134D01*
X158571752Y-93569882D01*
X158565724Y-93567198D01*
X158565722Y-93567197D01*
X158403319Y-93494891D01*
X158403318Y-93494891D01*
X158397288Y-93492206D01*
X158303887Y-93472353D01*
X158216944Y-93453872D01*
X158216939Y-93453872D01*
X158210487Y-93452500D01*
X158019513Y-93452500D01*
X158013061Y-93453872D01*
X158013056Y-93453872D01*
X157926112Y-93472353D01*
X157832712Y-93492206D01*
X157826682Y-93494891D01*
X157826681Y-93494891D01*
X157664278Y-93567197D01*
X157664276Y-93567198D01*
X157658248Y-93569882D01*
X157652907Y-93573762D01*
X157652906Y-93573763D01*
X157577656Y-93628436D01*
X157510789Y-93652294D01*
X157503595Y-93652500D01*
X148185405Y-93652500D01*
X148117284Y-93632498D01*
X148111344Y-93628436D01*
X148036094Y-93573763D01*
X148036093Y-93573762D01*
X148030752Y-93569882D01*
X148024724Y-93567198D01*
X148024722Y-93567197D01*
X147862319Y-93494891D01*
X147862318Y-93494891D01*
X147856288Y-93492206D01*
X147762887Y-93472353D01*
X147675944Y-93453872D01*
X147675939Y-93453872D01*
X147669487Y-93452500D01*
X147478513Y-93452500D01*
X147472061Y-93453872D01*
X147472056Y-93453872D01*
X147385112Y-93472353D01*
X147291712Y-93492206D01*
X147285682Y-93494891D01*
X147285681Y-93494891D01*
X147123278Y-93567197D01*
X147123276Y-93567198D01*
X147117248Y-93569882D01*
X146962747Y-93682134D01*
X146834960Y-93824056D01*
X146739473Y-93989444D01*
X146680458Y-94171072D01*
X146660496Y-94361000D01*
X146181900Y-94361000D01*
X146181900Y-91960543D01*
X146167340Y-91779579D01*
X146109437Y-91543838D01*
X146014588Y-91320388D01*
X145966419Y-91243898D01*
X145887928Y-91119256D01*
X145887926Y-91119253D01*
X145885233Y-91114977D01*
X145759791Y-90972690D01*
X145728050Y-90936686D01*
X145728047Y-90936683D01*
X145724702Y-90932889D01*
X145618399Y-90845571D01*
X145541028Y-90782018D01*
X145541025Y-90782016D01*
X145537122Y-90778810D01*
X145407737Y-90703506D01*
X145331690Y-90659245D01*
X145331688Y-90659244D01*
X145327322Y-90656703D01*
X145193125Y-90605190D01*
X145105422Y-90571524D01*
X145105418Y-90571523D01*
X145100698Y-90569711D01*
X145095748Y-90568677D01*
X145095745Y-90568676D01*
X144868031Y-90521104D01*
X144868027Y-90521104D01*
X144863080Y-90520070D01*
X144620583Y-90509058D01*
X144615563Y-90509639D01*
X144615559Y-90509639D01*
X144384471Y-90536377D01*
X144384467Y-90536378D01*
X144379444Y-90536959D01*
X144374580Y-90538335D01*
X144374577Y-90538336D01*
X144267358Y-90568676D01*
X144145868Y-90603054D01*
X144141292Y-90605188D01*
X144141286Y-90605190D01*
X143930446Y-90703506D01*
X143930442Y-90703508D01*
X143925864Y-90705643D01*
X143921683Y-90708484D01*
X143921682Y-90708485D01*
X143895446Y-90726315D01*
X143725093Y-90842088D01*
X143721414Y-90845567D01*
X143721409Y-90845571D01*
X143621111Y-90940418D01*
X143557873Y-90972690D01*
X143487226Y-90965650D01*
X143433712Y-90924435D01*
X143369864Y-90839242D01*
X143346661Y-90808283D01*
X143230105Y-90720929D01*
X143093716Y-90669799D01*
X143031534Y-90663044D01*
X141235266Y-90663044D01*
X141173084Y-90669799D01*
X141036695Y-90720929D01*
X140920139Y-90808283D01*
X140832785Y-90924839D01*
X140781655Y-91061228D01*
X140774900Y-91123410D01*
X140774900Y-92919678D01*
X140781655Y-92981860D01*
X140832785Y-93118249D01*
X140920139Y-93234805D01*
X141036695Y-93322159D01*
X141173084Y-93373289D01*
X141235266Y-93380044D01*
X143031534Y-93380044D01*
X143032536Y-93379935D01*
X143101188Y-93396118D01*
X143150515Y-93447180D01*
X143164900Y-93505645D01*
X143164900Y-96135384D01*
X143164851Y-96138902D01*
X143162066Y-96238605D01*
X143162735Y-96243619D01*
X143172458Y-96316486D01*
X143173158Y-96323039D01*
X143179460Y-96401365D01*
X143187297Y-96433270D01*
X143189826Y-96446658D01*
X143194171Y-96479220D01*
X143195632Y-96484061D01*
X143195633Y-96484063D01*
X143216878Y-96554429D01*
X143218619Y-96560790D01*
X143237363Y-96637106D01*
X143239341Y-96641766D01*
X143250201Y-96667351D01*
X143254838Y-96680161D01*
X143264333Y-96711608D01*
X143266551Y-96716156D01*
X143266554Y-96716163D01*
X143298771Y-96782218D01*
X143301507Y-96788220D01*
X143332212Y-96860556D01*
X143334904Y-96864830D01*
X143349719Y-96888356D01*
X143356345Y-96900260D01*
X143370746Y-96929788D01*
X143373665Y-96933925D01*
X143373665Y-96933926D01*
X143416041Y-96993997D01*
X143419701Y-96999486D01*
X143461567Y-97065967D01*
X143464908Y-97069756D01*
X143464912Y-97069762D01*
X143483298Y-97090617D01*
X143491744Y-97101312D01*
X143510674Y-97128147D01*
X143530309Y-97149650D01*
X143570025Y-97189366D01*
X143575444Y-97195136D01*
X143618750Y-97244258D01*
X143618753Y-97244261D01*
X143622098Y-97248055D01*
X143626012Y-97251270D01*
X143626013Y-97251271D01*
X143654387Y-97274578D01*
X143663507Y-97282848D01*
X150911063Y-104530405D01*
X150945089Y-104592717D01*
X150940024Y-104663532D01*
X150897477Y-104720368D01*
X150830957Y-104745179D01*
X150821968Y-104745500D01*
X150323906Y-104745500D01*
X150308667Y-104749975D01*
X150307462Y-104751365D01*
X150305791Y-104759048D01*
X150305791Y-105831385D01*
X150310266Y-105846624D01*
X150311656Y-105847829D01*
X150319339Y-105849500D01*
X151391675Y-105849500D01*
X151406914Y-105845025D01*
X151408119Y-105843635D01*
X151409790Y-105835952D01*
X151409790Y-105333322D01*
X151429792Y-105265201D01*
X151483448Y-105218708D01*
X151553722Y-105208604D01*
X151618302Y-105238098D01*
X151624885Y-105244227D01*
X151743595Y-105362937D01*
X151777621Y-105425249D01*
X151780500Y-105452032D01*
X151780500Y-109549000D01*
X151760498Y-109617121D01*
X151706842Y-109663614D01*
X151654500Y-109675000D01*
X151229227Y-109675000D01*
X151161106Y-109654998D01*
X151114613Y-109601342D01*
X151104509Y-109531068D01*
X151126904Y-109475474D01*
X151146224Y-109448588D01*
X151220244Y-109345577D01*
X151319221Y-109145311D01*
X151384161Y-108931569D01*
X151413320Y-108710090D01*
X151414947Y-108643500D01*
X151396643Y-108420861D01*
X151342222Y-108204202D01*
X151253145Y-107999340D01*
X151131805Y-107811777D01*
X151128331Y-107807959D01*
X151128324Y-107807950D01*
X150984226Y-107649588D01*
X150953174Y-107585742D01*
X150961570Y-107515244D01*
X151006747Y-107460476D01*
X151033191Y-107446807D01*
X151139843Y-107406825D01*
X151155440Y-107398286D01*
X151257515Y-107321785D01*
X151270076Y-107309224D01*
X151346577Y-107207149D01*
X151355115Y-107191554D01*
X151400269Y-107071106D01*
X151403896Y-107055851D01*
X151409422Y-107004986D01*
X151409791Y-106998172D01*
X151409791Y-106375615D01*
X151405316Y-106360376D01*
X151403926Y-106359171D01*
X151396243Y-106357500D01*
X148711907Y-106357500D01*
X148696668Y-106361975D01*
X148695463Y-106363365D01*
X148693792Y-106371048D01*
X148693792Y-106998169D01*
X148694162Y-107004990D01*
X148699686Y-107055852D01*
X148703312Y-107071104D01*
X148748467Y-107191554D01*
X148757005Y-107207149D01*
X148833506Y-107309224D01*
X148846067Y-107321785D01*
X148948142Y-107398286D01*
X148963737Y-107406824D01*
X149072618Y-107447642D01*
X149129382Y-107490284D01*
X149154082Y-107556845D01*
X149138874Y-107626194D01*
X149119482Y-107652675D01*
X149070545Y-107703885D01*
X148992420Y-107785638D01*
X148989506Y-107789910D01*
X148989505Y-107789911D01*
X148986330Y-107794565D01*
X148866534Y-107970180D01*
X148850794Y-108004090D01*
X148780193Y-108156187D01*
X148772479Y-108172805D01*
X148712780Y-108388070D01*
X148689042Y-108610195D01*
X148689339Y-108615348D01*
X148689339Y-108615351D01*
X148694802Y-108710090D01*
X148701901Y-108833215D01*
X148703038Y-108838261D01*
X148703039Y-108838267D01*
X148722910Y-108926439D01*
X148751013Y-109051139D01*
X148835057Y-109258116D01*
X148951778Y-109448588D01*
X149098041Y-109617438D01*
X149227347Y-109724790D01*
X149266982Y-109783691D01*
X149268480Y-109854672D01*
X149231366Y-109915195D01*
X149214005Y-109928353D01*
X149149503Y-109968972D01*
X149149500Y-109968974D01*
X149145224Y-109971667D01*
X149141430Y-109975012D01*
X148966933Y-110128850D01*
X148966930Y-110128853D01*
X148963136Y-110132198D01*
X148809057Y-110319778D01*
X148686950Y-110529578D01*
X148599958Y-110756202D01*
X148550317Y-110993820D01*
X148539305Y-111236317D01*
X148539886Y-111241337D01*
X148539886Y-111241341D01*
X148564684Y-111455656D01*
X148567206Y-111477456D01*
X148568582Y-111482320D01*
X148568583Y-111482323D01*
X148596864Y-111582267D01*
X148633301Y-111711032D01*
X148635435Y-111715608D01*
X148635437Y-111715614D01*
X148733753Y-111926454D01*
X148735890Y-111931036D01*
X148738731Y-111935217D01*
X148738732Y-111935218D01*
X148753967Y-111957635D01*
X148872335Y-112131807D01*
X148875812Y-112135484D01*
X148875813Y-112135485D01*
X149008840Y-112276158D01*
X149041111Y-112339396D01*
X149043291Y-112362731D01*
X149043291Y-117168884D01*
X149023289Y-117237005D01*
X149006386Y-117257979D01*
X145618371Y-120645995D01*
X145556059Y-120680021D01*
X145529276Y-120682900D01*
X137655326Y-120682900D01*
X137587205Y-120662898D01*
X137566231Y-120645996D01*
X137164005Y-120243771D01*
X137129980Y-120181458D01*
X137127100Y-120154675D01*
X137127100Y-119889906D01*
X137147102Y-119821785D01*
X137158283Y-119807898D01*
X137158196Y-119807829D01*
X137162734Y-119802083D01*
X137167905Y-119796903D01*
X137260715Y-119646338D01*
X137316397Y-119478461D01*
X137317412Y-119468562D01*
X137326772Y-119377198D01*
X137327100Y-119374000D01*
X137327100Y-118573200D01*
X137320548Y-118510051D01*
X137316838Y-118474292D01*
X137316837Y-118474288D01*
X137316126Y-118467434D01*
X137284153Y-118371598D01*
X137262468Y-118306602D01*
X137260150Y-118299654D01*
X137167078Y-118149252D01*
X137080491Y-118062816D01*
X137046412Y-118000534D01*
X137051415Y-117929714D01*
X137080336Y-117884625D01*
X137162734Y-117802083D01*
X137167905Y-117796903D01*
X137228205Y-117699079D01*
X137256875Y-117652568D01*
X137256876Y-117652566D01*
X137260715Y-117646338D01*
X137316397Y-117478461D01*
X137327100Y-117374000D01*
X137327100Y-116573200D01*
X137319122Y-116496305D01*
X137316838Y-116474292D01*
X137316837Y-116474288D01*
X137316126Y-116467434D01*
X137284091Y-116371412D01*
X137262468Y-116306602D01*
X137260150Y-116299654D01*
X137167078Y-116149252D01*
X137123151Y-116105401D01*
X137047083Y-116029466D01*
X137041903Y-116024295D01*
X136992855Y-115994061D01*
X136897568Y-115935325D01*
X136897566Y-115935324D01*
X136891338Y-115931485D01*
X136730854Y-115878255D01*
X136729989Y-115877968D01*
X136729987Y-115877968D01*
X136723461Y-115875803D01*
X136716625Y-115875103D01*
X136716622Y-115875102D01*
X136673569Y-115870691D01*
X136619000Y-115865100D01*
X135618200Y-115865100D01*
X135614954Y-115865437D01*
X135614950Y-115865437D01*
X135519292Y-115875362D01*
X135519288Y-115875363D01*
X135512434Y-115876074D01*
X135505898Y-115878255D01*
X135505896Y-115878255D01*
X135351598Y-115929733D01*
X135351596Y-115929734D01*
X135344654Y-115932050D01*
X135338430Y-115935902D01*
X135335654Y-115937202D01*
X135282205Y-115949100D01*
X133788897Y-115949100D01*
X133720776Y-115929098D01*
X133710805Y-115921982D01*
X133600414Y-115834800D01*
X133600410Y-115834798D01*
X133596359Y-115831598D01*
X133400789Y-115723638D01*
X133395920Y-115721914D01*
X133395916Y-115721912D01*
X133195087Y-115650795D01*
X133195083Y-115650794D01*
X133190212Y-115649069D01*
X133185119Y-115648162D01*
X133185116Y-115648161D01*
X132975373Y-115610800D01*
X132975367Y-115610799D01*
X132970284Y-115609894D01*
X132896452Y-115608992D01*
X132752081Y-115607228D01*
X132752079Y-115607228D01*
X132746911Y-115607165D01*
X132526091Y-115640955D01*
X132313756Y-115710357D01*
X132115607Y-115813507D01*
X132111474Y-115816610D01*
X132111471Y-115816612D01*
X131957722Y-115932050D01*
X131936965Y-115947635D01*
X131782629Y-116109138D01*
X131656743Y-116293680D01*
X131562688Y-116496305D01*
X131502989Y-116711570D01*
X131479251Y-116933695D01*
X131479548Y-116938848D01*
X131479548Y-116938851D01*
X131482424Y-116988732D01*
X131492110Y-117156715D01*
X131493247Y-117161761D01*
X131493248Y-117161767D01*
X131510204Y-117237005D01*
X131541222Y-117374639D01*
X131625266Y-117581616D01*
X131741987Y-117772088D01*
X131888250Y-117940938D01*
X132060126Y-118083632D01*
X132121617Y-118119564D01*
X132133445Y-118126476D01*
X132182169Y-118178114D01*
X132195240Y-118247897D01*
X132168509Y-118313669D01*
X132128055Y-118347027D01*
X132115607Y-118353507D01*
X132111474Y-118356610D01*
X132111471Y-118356612D01*
X131963870Y-118467434D01*
X131936965Y-118487635D01*
X131782629Y-118649138D01*
X131656743Y-118833680D01*
X131562688Y-119036305D01*
X131502989Y-119251570D01*
X131479251Y-119473695D01*
X122275600Y-119473695D01*
X122275600Y-103560669D01*
X123047001Y-103560669D01*
X123047371Y-103567490D01*
X123052895Y-103618352D01*
X123056521Y-103633604D01*
X123101676Y-103754054D01*
X123110214Y-103769649D01*
X123186715Y-103871724D01*
X123199276Y-103884285D01*
X123301351Y-103960786D01*
X123316946Y-103969324D01*
X123437394Y-104014478D01*
X123452649Y-104018105D01*
X123503514Y-104023631D01*
X123510328Y-104024000D01*
X124182885Y-104024000D01*
X124198124Y-104019525D01*
X124199329Y-104018135D01*
X124201000Y-104010452D01*
X124201000Y-104005884D01*
X124709000Y-104005884D01*
X124713475Y-104021123D01*
X124714865Y-104022328D01*
X124722548Y-104023999D01*
X125399669Y-104023999D01*
X125406490Y-104023629D01*
X125457352Y-104018105D01*
X125472604Y-104014479D01*
X125593054Y-103969324D01*
X125608649Y-103960786D01*
X125710724Y-103884285D01*
X125723285Y-103871724D01*
X125799786Y-103769649D01*
X125808324Y-103754054D01*
X125829773Y-103696840D01*
X125872415Y-103640075D01*
X125938977Y-103615376D01*
X126008325Y-103630584D01*
X126028240Y-103644126D01*
X126037184Y-103651551D01*
X126184349Y-103773730D01*
X126384322Y-103890584D01*
X126600694Y-103973209D01*
X126605760Y-103974240D01*
X126605761Y-103974240D01*
X126658846Y-103985040D01*
X126827656Y-104019385D01*
X126958324Y-104024176D01*
X127053949Y-104027683D01*
X127053953Y-104027683D01*
X127059113Y-104027872D01*
X127064233Y-104027216D01*
X127064235Y-104027216D01*
X127163668Y-104014478D01*
X127288847Y-103998442D01*
X127293795Y-103996957D01*
X127293802Y-103996956D01*
X127505747Y-103933369D01*
X127510690Y-103931886D01*
X127591236Y-103892427D01*
X127714049Y-103832262D01*
X127714052Y-103832260D01*
X127718684Y-103829991D01*
X127907243Y-103695494D01*
X128071303Y-103532005D01*
X128206458Y-103343917D01*
X128228782Y-103298749D01*
X128306784Y-103140922D01*
X128306785Y-103140920D01*
X128309078Y-103136280D01*
X128376408Y-102914671D01*
X128406640Y-102685041D01*
X128408327Y-102616000D01*
X133706496Y-102616000D01*
X133726458Y-102805928D01*
X133785473Y-102987556D01*
X133880960Y-103152944D01*
X134008747Y-103294866D01*
X134163248Y-103407118D01*
X134169276Y-103409802D01*
X134169278Y-103409803D01*
X134331681Y-103482109D01*
X134337712Y-103484794D01*
X134437895Y-103506089D01*
X134490568Y-103517285D01*
X134553467Y-103551437D01*
X135398596Y-104396567D01*
X135432621Y-104458879D01*
X135435500Y-104485662D01*
X135435500Y-111096088D01*
X135435208Y-111104658D01*
X135431275Y-111162352D01*
X135432580Y-111169829D01*
X135432580Y-111169830D01*
X135442261Y-111225299D01*
X135443223Y-111231821D01*
X135450898Y-111295242D01*
X135453581Y-111302343D01*
X135454222Y-111304952D01*
X135458685Y-111321262D01*
X135459450Y-111323798D01*
X135460757Y-111331284D01*
X135463811Y-111338241D01*
X135486442Y-111389795D01*
X135488933Y-111395899D01*
X135511513Y-111455656D01*
X135515817Y-111461919D01*
X135517054Y-111464285D01*
X135525299Y-111479097D01*
X135526632Y-111481351D01*
X135529685Y-111488305D01*
X135568498Y-111538885D01*
X135568579Y-111538991D01*
X135572459Y-111544332D01*
X135604339Y-111590720D01*
X135604344Y-111590725D01*
X135608643Y-111596981D01*
X135614313Y-111602032D01*
X135614314Y-111602034D01*
X135655170Y-111638435D01*
X135660446Y-111643416D01*
X136225335Y-112208305D01*
X136259361Y-112270617D01*
X136261550Y-112284228D01*
X136266458Y-112330928D01*
X136268498Y-112337205D01*
X136268498Y-112337207D01*
X136277579Y-112365156D01*
X136325473Y-112512556D01*
X136420960Y-112677944D01*
X136425378Y-112682851D01*
X136425379Y-112682852D01*
X136426418Y-112684006D01*
X136548747Y-112819866D01*
X136703248Y-112932118D01*
X136709276Y-112934802D01*
X136709278Y-112934803D01*
X136871681Y-113007109D01*
X136877712Y-113009794D01*
X136971112Y-113029647D01*
X137058056Y-113048128D01*
X137058061Y-113048128D01*
X137064513Y-113049500D01*
X137255487Y-113049500D01*
X137261939Y-113048128D01*
X137261944Y-113048128D01*
X137348888Y-113029647D01*
X137442288Y-113009794D01*
X137448319Y-113007109D01*
X137610722Y-112934803D01*
X137610724Y-112934802D01*
X137616752Y-112932118D01*
X137771253Y-112819866D01*
X137893582Y-112684006D01*
X137894621Y-112682852D01*
X137894622Y-112682851D01*
X137899040Y-112677944D01*
X137994527Y-112512556D01*
X138053542Y-112330928D01*
X138059299Y-112276158D01*
X138072814Y-112147565D01*
X138073504Y-112141000D01*
X138053542Y-111951072D01*
X137994527Y-111769444D01*
X137899040Y-111604056D01*
X137794818Y-111488305D01*
X137775675Y-111467045D01*
X137775674Y-111467044D01*
X137771253Y-111462134D01*
X137616752Y-111349882D01*
X137610724Y-111347198D01*
X137610722Y-111347197D01*
X137448319Y-111274891D01*
X137448318Y-111274891D01*
X137442288Y-111272206D01*
X137305589Y-111243150D01*
X137289431Y-111239715D01*
X137226533Y-111205563D01*
X136889405Y-110868435D01*
X136855379Y-110806123D01*
X136852500Y-110779340D01*
X136852500Y-109889642D01*
X136872502Y-109821521D01*
X136926158Y-109775028D01*
X136996432Y-109764924D01*
X137018167Y-109770049D01*
X137158611Y-109816632D01*
X137158613Y-109816632D01*
X137165139Y-109818797D01*
X137171975Y-109819497D01*
X137171978Y-109819498D01*
X137215031Y-109823909D01*
X137269600Y-109829500D01*
X138320400Y-109829500D01*
X138323646Y-109829163D01*
X138323650Y-109829163D01*
X138419308Y-109819238D01*
X138419312Y-109819237D01*
X138426166Y-109818526D01*
X138432702Y-109816345D01*
X138432704Y-109816345D01*
X138571469Y-109770049D01*
X138593946Y-109762550D01*
X138705762Y-109693356D01*
X138772065Y-109674500D01*
X139088595Y-109674500D01*
X139156716Y-109694502D01*
X139162656Y-109698564D01*
X139243248Y-109757118D01*
X139249276Y-109759802D01*
X139249278Y-109759803D01*
X139405821Y-109829500D01*
X139417712Y-109834794D01*
X139511113Y-109854647D01*
X139598056Y-109873128D01*
X139598061Y-109873128D01*
X139604513Y-109874500D01*
X139795487Y-109874500D01*
X139801939Y-109873128D01*
X139801944Y-109873128D01*
X139888887Y-109854647D01*
X139982288Y-109834794D01*
X139994179Y-109829500D01*
X140150722Y-109759803D01*
X140150724Y-109759802D01*
X140156752Y-109757118D01*
X140237344Y-109698564D01*
X140304211Y-109674706D01*
X140311405Y-109674500D01*
X140627789Y-109674500D01*
X140693905Y-109693240D01*
X140800090Y-109758694D01*
X140807262Y-109763115D01*
X140843179Y-109775028D01*
X140968611Y-109816632D01*
X140968613Y-109816632D01*
X140975139Y-109818797D01*
X140981975Y-109819497D01*
X140981978Y-109819498D01*
X141025031Y-109823909D01*
X141079600Y-109829500D01*
X142130400Y-109829500D01*
X142133646Y-109829163D01*
X142133650Y-109829163D01*
X142229308Y-109819238D01*
X142229312Y-109819237D01*
X142236166Y-109818526D01*
X142242702Y-109816345D01*
X142242704Y-109816345D01*
X142381469Y-109770049D01*
X142403946Y-109762550D01*
X142554348Y-109669478D01*
X142679305Y-109544303D01*
X142738305Y-109448588D01*
X142768275Y-109399968D01*
X142768276Y-109399966D01*
X142772115Y-109393738D01*
X142827797Y-109225861D01*
X142838500Y-109121400D01*
X142838500Y-108345600D01*
X142827526Y-108239834D01*
X142817313Y-108209220D01*
X142773868Y-108079002D01*
X142771550Y-108072054D01*
X142678478Y-107921652D01*
X142553303Y-107796695D01*
X142548765Y-107793898D01*
X142508176Y-107736647D01*
X142504946Y-107665724D01*
X142540572Y-107604313D01*
X142549068Y-107596938D01*
X142559207Y-107588902D01*
X142673739Y-107474171D01*
X142682751Y-107462760D01*
X142767816Y-107324757D01*
X142773963Y-107311576D01*
X142825138Y-107157290D01*
X142828005Y-107143914D01*
X142837672Y-107049562D01*
X142838000Y-107043146D01*
X142838000Y-106930615D01*
X142833525Y-106915376D01*
X142832135Y-106914171D01*
X142824452Y-106912500D01*
X140390116Y-106912500D01*
X140374877Y-106916975D01*
X140373672Y-106918365D01*
X140372001Y-106926048D01*
X140372001Y-107043095D01*
X140372338Y-107049614D01*
X140382257Y-107145206D01*
X140385149Y-107158600D01*
X140436588Y-107312784D01*
X140442761Y-107325962D01*
X140528063Y-107463807D01*
X140537099Y-107475208D01*
X140651828Y-107589738D01*
X140660762Y-107596794D01*
X140701823Y-107654712D01*
X140705053Y-107725635D01*
X140669426Y-107787046D01*
X140661593Y-107793846D01*
X140655652Y-107797522D01*
X140530695Y-107922697D01*
X140526855Y-107928927D01*
X140526854Y-107928928D01*
X140486132Y-107994992D01*
X140437885Y-108073262D01*
X140429053Y-108099891D01*
X140410380Y-108156187D01*
X140369949Y-108214547D01*
X140304385Y-108241784D01*
X140234504Y-108229251D01*
X140216726Y-108218456D01*
X140162094Y-108178763D01*
X140162093Y-108178762D01*
X140156752Y-108174882D01*
X140150724Y-108172198D01*
X140150722Y-108172197D01*
X139988319Y-108099891D01*
X139988318Y-108099891D01*
X139982288Y-108097206D01*
X139863958Y-108072054D01*
X139801944Y-108058872D01*
X139801939Y-108058872D01*
X139795487Y-108057500D01*
X139604513Y-108057500D01*
X139598061Y-108058872D01*
X139598056Y-108058872D01*
X139536042Y-108072054D01*
X139417712Y-108097206D01*
X139411682Y-108099891D01*
X139411681Y-108099891D01*
X139249278Y-108172197D01*
X139249276Y-108172198D01*
X139243248Y-108174882D01*
X139237907Y-108178762D01*
X139237906Y-108178763D01*
X139183274Y-108218456D01*
X139116407Y-108242314D01*
X139047255Y-108226234D01*
X138997775Y-108175320D01*
X138989690Y-108156397D01*
X138963870Y-108079007D01*
X138963868Y-108079002D01*
X138961550Y-108072054D01*
X138868478Y-107921652D01*
X138743303Y-107796695D01*
X138738765Y-107793898D01*
X138698176Y-107736647D01*
X138694946Y-107665724D01*
X138730572Y-107604313D01*
X138739068Y-107596938D01*
X138749207Y-107588902D01*
X138863739Y-107474171D01*
X138872751Y-107462760D01*
X138957816Y-107324757D01*
X138963963Y-107311576D01*
X139015138Y-107157290D01*
X139018005Y-107143914D01*
X139027672Y-107049562D01*
X139028000Y-107043146D01*
X139028000Y-106930615D01*
X139023525Y-106915376D01*
X139022135Y-106914171D01*
X139014452Y-106912500D01*
X137667000Y-106912500D01*
X137598879Y-106892498D01*
X137552386Y-106838842D01*
X137541000Y-106786500D01*
X137541000Y-106386385D01*
X138049000Y-106386385D01*
X138053475Y-106401624D01*
X138054865Y-106402829D01*
X138062548Y-106404500D01*
X139009884Y-106404500D01*
X139025123Y-106400025D01*
X139026328Y-106398635D01*
X139027999Y-106390952D01*
X139027999Y-106386385D01*
X140372000Y-106386385D01*
X140376475Y-106401624D01*
X140377865Y-106402829D01*
X140385548Y-106404500D01*
X141332885Y-106404500D01*
X141348124Y-106400025D01*
X141349329Y-106398635D01*
X141351000Y-106390952D01*
X141351000Y-106386385D01*
X141859000Y-106386385D01*
X141863475Y-106401624D01*
X141864865Y-106402829D01*
X141872548Y-106404500D01*
X142819884Y-106404500D01*
X142835123Y-106400025D01*
X142836328Y-106398635D01*
X142837999Y-106390952D01*
X142837999Y-106273905D01*
X142837662Y-106267386D01*
X142827743Y-106171794D01*
X142824851Y-106158400D01*
X142773412Y-106004216D01*
X142767239Y-105991038D01*
X142681937Y-105853193D01*
X142672901Y-105841792D01*
X142662476Y-105831385D01*
X148693791Y-105831385D01*
X148698266Y-105846624D01*
X148699656Y-105847829D01*
X148707339Y-105849500D01*
X149779676Y-105849500D01*
X149794915Y-105845025D01*
X149796120Y-105843635D01*
X149797791Y-105835952D01*
X149797791Y-104763616D01*
X149793316Y-104748377D01*
X149791926Y-104747172D01*
X149784243Y-104745501D01*
X149157122Y-104745501D01*
X149150301Y-104745871D01*
X149099439Y-104751395D01*
X149084187Y-104755021D01*
X148963737Y-104800176D01*
X148948142Y-104808714D01*
X148846067Y-104885215D01*
X148833506Y-104897776D01*
X148757005Y-104999851D01*
X148748467Y-105015446D01*
X148703313Y-105135894D01*
X148699686Y-105151149D01*
X148694160Y-105202014D01*
X148693791Y-105208828D01*
X148693791Y-105831385D01*
X142662476Y-105831385D01*
X142558171Y-105727261D01*
X142546760Y-105718249D01*
X142408757Y-105633184D01*
X142395576Y-105627037D01*
X142241290Y-105575862D01*
X142227914Y-105572995D01*
X142133562Y-105563328D01*
X142127145Y-105563000D01*
X141877115Y-105563000D01*
X141861876Y-105567475D01*
X141860671Y-105568865D01*
X141859000Y-105576548D01*
X141859000Y-106386385D01*
X141351000Y-106386385D01*
X141351000Y-105581116D01*
X141346525Y-105565877D01*
X141345135Y-105564672D01*
X141337452Y-105563001D01*
X141082905Y-105563001D01*
X141076386Y-105563338D01*
X140980794Y-105573257D01*
X140967400Y-105576149D01*
X140813216Y-105627588D01*
X140800038Y-105633761D01*
X140662193Y-105719063D01*
X140650792Y-105728099D01*
X140536261Y-105842829D01*
X140527249Y-105854240D01*
X140442184Y-105992243D01*
X140436037Y-106005424D01*
X140384862Y-106159710D01*
X140381995Y-106173086D01*
X140372328Y-106267438D01*
X140372000Y-106273855D01*
X140372000Y-106386385D01*
X139027999Y-106386385D01*
X139027999Y-106273905D01*
X139027662Y-106267386D01*
X139017743Y-106171794D01*
X139014851Y-106158400D01*
X138963412Y-106004216D01*
X138957239Y-105991038D01*
X138871937Y-105853193D01*
X138862901Y-105841792D01*
X138748171Y-105727261D01*
X138736760Y-105718249D01*
X138598757Y-105633184D01*
X138585576Y-105627037D01*
X138431290Y-105575862D01*
X138417914Y-105572995D01*
X138323562Y-105563328D01*
X138317145Y-105563000D01*
X138067115Y-105563000D01*
X138051876Y-105567475D01*
X138050671Y-105568865D01*
X138049000Y-105576548D01*
X138049000Y-106386385D01*
X137541000Y-106386385D01*
X137541000Y-105581116D01*
X137536525Y-105565877D01*
X137535135Y-105564672D01*
X137527452Y-105563001D01*
X137272905Y-105563001D01*
X137266386Y-105563338D01*
X137170794Y-105573257D01*
X137157397Y-105576150D01*
X137018375Y-105622530D01*
X136947426Y-105625114D01*
X136886342Y-105588930D01*
X136854518Y-105525466D01*
X136852500Y-105503006D01*
X136852500Y-104168911D01*
X136852792Y-104160342D01*
X136856209Y-104110223D01*
X136856209Y-104110219D01*
X136856725Y-104102647D01*
X136845736Y-104039685D01*
X136844777Y-104033182D01*
X136844135Y-104027872D01*
X136837102Y-103969758D01*
X136834416Y-103962649D01*
X136833784Y-103960078D01*
X136829324Y-103943772D01*
X136828549Y-103941204D01*
X136827242Y-103933716D01*
X136801561Y-103875212D01*
X136799069Y-103869105D01*
X136779173Y-103816452D01*
X136779173Y-103816451D01*
X136776487Y-103809344D01*
X136772184Y-103803083D01*
X136770947Y-103800717D01*
X136762720Y-103785937D01*
X136761369Y-103783652D01*
X136758315Y-103776695D01*
X136753695Y-103770675D01*
X136753692Y-103770669D01*
X136719421Y-103726009D01*
X136715541Y-103720668D01*
X136683661Y-103674280D01*
X136683656Y-103674275D01*
X136679357Y-103668019D01*
X136632829Y-103626564D01*
X136627554Y-103621584D01*
X135554665Y-102548695D01*
X135520639Y-102486383D01*
X135518450Y-102472770D01*
X135514232Y-102432637D01*
X135514232Y-102432635D01*
X135513542Y-102426072D01*
X135454527Y-102244444D01*
X135359040Y-102079056D01*
X135231253Y-101937134D01*
X135076752Y-101824882D01*
X135070724Y-101822198D01*
X135070722Y-101822197D01*
X134908319Y-101749891D01*
X134908318Y-101749891D01*
X134902288Y-101747206D01*
X134805176Y-101726564D01*
X134721944Y-101708872D01*
X134721939Y-101708872D01*
X134715487Y-101707500D01*
X134524513Y-101707500D01*
X134518061Y-101708872D01*
X134518056Y-101708872D01*
X134434824Y-101726564D01*
X134337712Y-101747206D01*
X134331682Y-101749891D01*
X134331681Y-101749891D01*
X134169278Y-101822197D01*
X134169276Y-101822198D01*
X134163248Y-101824882D01*
X134008747Y-101937134D01*
X133880960Y-102079056D01*
X133785473Y-102244444D01*
X133726458Y-102426072D01*
X133706496Y-102616000D01*
X128408327Y-102616000D01*
X128397671Y-102486383D01*
X128389773Y-102390318D01*
X128389772Y-102390312D01*
X128389349Y-102385167D01*
X128354002Y-102244444D01*
X128334184Y-102165544D01*
X128334183Y-102165540D01*
X128332925Y-102160533D01*
X128240570Y-101948131D01*
X128114764Y-101753665D01*
X128107639Y-101745834D01*
X128033643Y-101664514D01*
X127958887Y-101582358D01*
X127954836Y-101579159D01*
X127954832Y-101579155D01*
X127781177Y-101442011D01*
X127781172Y-101442008D01*
X127777123Y-101438810D01*
X127772607Y-101436317D01*
X127772604Y-101436315D01*
X127578879Y-101329373D01*
X127578875Y-101329371D01*
X127574355Y-101326876D01*
X127569486Y-101325152D01*
X127569482Y-101325150D01*
X127360903Y-101251288D01*
X127360899Y-101251287D01*
X127356028Y-101249562D01*
X127350935Y-101248655D01*
X127350932Y-101248654D01*
X127133095Y-101209851D01*
X127133089Y-101209850D01*
X127128006Y-101208945D01*
X127050644Y-101208000D01*
X126901581Y-101206179D01*
X126901579Y-101206179D01*
X126896411Y-101206116D01*
X126667464Y-101241150D01*
X126447314Y-101313106D01*
X126442726Y-101315494D01*
X126442722Y-101315496D01*
X126246461Y-101417663D01*
X126241872Y-101420052D01*
X126237739Y-101423155D01*
X126237736Y-101423157D01*
X126060790Y-101556012D01*
X126056655Y-101559117D01*
X126053083Y-101562855D01*
X126038787Y-101577815D01*
X125977263Y-101613245D01*
X125906351Y-101609788D01*
X125848564Y-101568543D01*
X125829711Y-101534994D01*
X125808324Y-101477946D01*
X125799786Y-101462351D01*
X125723285Y-101360276D01*
X125710724Y-101347715D01*
X125608649Y-101271214D01*
X125593054Y-101262676D01*
X125472606Y-101217522D01*
X125457351Y-101213895D01*
X125406486Y-101208369D01*
X125399672Y-101208000D01*
X124727115Y-101208000D01*
X124711876Y-101212475D01*
X124710671Y-101213865D01*
X124709000Y-101221548D01*
X124709000Y-104005884D01*
X124201000Y-104005884D01*
X124201000Y-102888115D01*
X124196525Y-102872876D01*
X124195135Y-102871671D01*
X124187452Y-102870000D01*
X123065116Y-102870000D01*
X123049877Y-102874475D01*
X123048672Y-102875865D01*
X123047001Y-102883548D01*
X123047001Y-103560669D01*
X122275600Y-103560669D01*
X122275600Y-102343885D01*
X123047000Y-102343885D01*
X123051475Y-102359124D01*
X123052865Y-102360329D01*
X123060548Y-102362000D01*
X124182885Y-102362000D01*
X124198124Y-102357525D01*
X124199329Y-102356135D01*
X124201000Y-102348452D01*
X124201000Y-101226116D01*
X124196525Y-101210877D01*
X124195135Y-101209672D01*
X124187452Y-101208001D01*
X123510331Y-101208001D01*
X123503510Y-101208371D01*
X123452648Y-101213895D01*
X123437396Y-101217521D01*
X123316946Y-101262676D01*
X123301351Y-101271214D01*
X123199276Y-101347715D01*
X123186715Y-101360276D01*
X123110214Y-101462351D01*
X123101676Y-101477946D01*
X123056522Y-101598394D01*
X123052895Y-101613649D01*
X123047369Y-101664514D01*
X123047000Y-101671328D01*
X123047000Y-102343885D01*
X122275600Y-102343885D01*
X122275600Y-84836000D01*
X149562502Y-84836000D01*
X149582457Y-85064087D01*
X149641716Y-85285243D01*
X149644039Y-85290224D01*
X149644039Y-85290225D01*
X149736151Y-85487762D01*
X149736154Y-85487767D01*
X149738477Y-85492749D01*
X149869802Y-85680300D01*
X150031700Y-85842198D01*
X150036208Y-85845355D01*
X150036211Y-85845357D01*
X150114389Y-85900098D01*
X150219251Y-85973523D01*
X150224233Y-85975846D01*
X150224238Y-85975849D01*
X150421775Y-86067961D01*
X150426757Y-86070284D01*
X150432065Y-86071706D01*
X150432067Y-86071707D01*
X150642598Y-86128119D01*
X150642600Y-86128119D01*
X150647913Y-86129543D01*
X150876000Y-86149498D01*
X151104087Y-86129543D01*
X151109400Y-86128119D01*
X151109402Y-86128119D01*
X151319933Y-86071707D01*
X151319935Y-86071706D01*
X151325243Y-86070284D01*
X151330225Y-86067961D01*
X151527762Y-85975849D01*
X151527767Y-85975846D01*
X151532749Y-85973523D01*
X151637611Y-85900098D01*
X151715789Y-85845357D01*
X151715792Y-85845355D01*
X151720300Y-85842198D01*
X151882198Y-85680300D01*
X152013523Y-85492749D01*
X152015846Y-85487767D01*
X152015849Y-85487762D01*
X152031805Y-85453543D01*
X152078722Y-85400258D01*
X152146999Y-85380797D01*
X152214959Y-85401339D01*
X152260195Y-85453543D01*
X152276151Y-85487762D01*
X152276154Y-85487767D01*
X152278477Y-85492749D01*
X152409802Y-85680300D01*
X152571700Y-85842198D01*
X152576208Y-85845355D01*
X152576211Y-85845357D01*
X152654389Y-85900098D01*
X152759251Y-85973523D01*
X152764233Y-85975846D01*
X152764238Y-85975849D01*
X152961775Y-86067961D01*
X152966757Y-86070284D01*
X152972065Y-86071706D01*
X152972067Y-86071707D01*
X153182598Y-86128119D01*
X153182600Y-86128119D01*
X153187913Y-86129543D01*
X153416000Y-86149498D01*
X153644087Y-86129543D01*
X153649400Y-86128119D01*
X153649402Y-86128119D01*
X153859933Y-86071707D01*
X153859935Y-86071706D01*
X153865243Y-86070284D01*
X153870225Y-86067961D01*
X154067762Y-85975849D01*
X154067767Y-85975846D01*
X154072749Y-85973523D01*
X154177611Y-85900098D01*
X154255789Y-85845357D01*
X154255792Y-85845355D01*
X154260300Y-85842198D01*
X154422198Y-85680300D01*
X154553523Y-85492749D01*
X154555846Y-85487767D01*
X154555849Y-85487762D01*
X154571805Y-85453543D01*
X154618722Y-85400258D01*
X154686999Y-85380797D01*
X154754959Y-85401339D01*
X154800195Y-85453543D01*
X154816151Y-85487762D01*
X154816154Y-85487767D01*
X154818477Y-85492749D01*
X154949802Y-85680300D01*
X155111700Y-85842198D01*
X155116208Y-85845355D01*
X155116211Y-85845357D01*
X155194389Y-85900098D01*
X155299251Y-85973523D01*
X155304233Y-85975846D01*
X155304238Y-85975849D01*
X155501775Y-86067961D01*
X155506757Y-86070284D01*
X155512065Y-86071706D01*
X155512067Y-86071707D01*
X155722598Y-86128119D01*
X155722600Y-86128119D01*
X155727913Y-86129543D01*
X155956000Y-86149498D01*
X156184087Y-86129543D01*
X156189400Y-86128119D01*
X156189402Y-86128119D01*
X156399933Y-86071707D01*
X156399935Y-86071706D01*
X156405243Y-86070284D01*
X156410225Y-86067961D01*
X156607762Y-85975849D01*
X156607767Y-85975846D01*
X156612749Y-85973523D01*
X156717611Y-85900098D01*
X156795789Y-85845357D01*
X156795792Y-85845355D01*
X156800300Y-85842198D01*
X156962198Y-85680300D01*
X157093523Y-85492749D01*
X157095846Y-85487767D01*
X157095849Y-85487762D01*
X157111805Y-85453543D01*
X157158722Y-85400258D01*
X157226999Y-85380797D01*
X157294959Y-85401339D01*
X157340195Y-85453543D01*
X157356151Y-85487762D01*
X157356154Y-85487767D01*
X157358477Y-85492749D01*
X157489802Y-85680300D01*
X157651700Y-85842198D01*
X157656208Y-85845355D01*
X157656211Y-85845357D01*
X157734389Y-85900098D01*
X157839251Y-85973523D01*
X157844233Y-85975846D01*
X157844238Y-85975849D01*
X158041775Y-86067961D01*
X158046757Y-86070284D01*
X158052065Y-86071706D01*
X158052067Y-86071707D01*
X158262598Y-86128119D01*
X158262600Y-86128119D01*
X158267913Y-86129543D01*
X158496000Y-86149498D01*
X158724087Y-86129543D01*
X158729400Y-86128119D01*
X158729402Y-86128119D01*
X158939933Y-86071707D01*
X158939935Y-86071706D01*
X158945243Y-86070284D01*
X158950225Y-86067961D01*
X159147762Y-85975849D01*
X159147767Y-85975846D01*
X159152749Y-85973523D01*
X159257611Y-85900098D01*
X159335789Y-85845357D01*
X159335792Y-85845355D01*
X159340300Y-85842198D01*
X159502198Y-85680300D01*
X159633523Y-85492749D01*
X159635846Y-85487767D01*
X159635849Y-85487762D01*
X159727961Y-85290225D01*
X159727961Y-85290224D01*
X159730284Y-85285243D01*
X159789543Y-85064087D01*
X159809498Y-84836000D01*
X159789543Y-84607913D01*
X159730284Y-84386757D01*
X159651805Y-84218457D01*
X159635849Y-84184238D01*
X159635846Y-84184233D01*
X159633523Y-84179251D01*
X159502198Y-83991700D01*
X159340300Y-83829802D01*
X159335792Y-83826645D01*
X159335789Y-83826643D01*
X159257611Y-83771902D01*
X159152749Y-83698477D01*
X159147767Y-83696154D01*
X159147762Y-83696151D01*
X158950225Y-83604039D01*
X158950224Y-83604039D01*
X158945243Y-83601716D01*
X158939935Y-83600294D01*
X158939933Y-83600293D01*
X158729402Y-83543881D01*
X158729400Y-83543881D01*
X158724087Y-83542457D01*
X158496000Y-83522502D01*
X158267913Y-83542457D01*
X158262600Y-83543881D01*
X158262598Y-83543881D01*
X158052067Y-83600293D01*
X158052065Y-83600294D01*
X158046757Y-83601716D01*
X158041776Y-83604039D01*
X158041775Y-83604039D01*
X157844238Y-83696151D01*
X157844233Y-83696154D01*
X157839251Y-83698477D01*
X157734389Y-83771902D01*
X157656211Y-83826643D01*
X157656208Y-83826645D01*
X157651700Y-83829802D01*
X157489802Y-83991700D01*
X157358477Y-84179251D01*
X157356154Y-84184233D01*
X157356151Y-84184238D01*
X157340195Y-84218457D01*
X157293278Y-84271742D01*
X157225001Y-84291203D01*
X157157041Y-84270661D01*
X157111805Y-84218457D01*
X157095849Y-84184238D01*
X157095846Y-84184233D01*
X157093523Y-84179251D01*
X156962198Y-83991700D01*
X156800300Y-83829802D01*
X156795792Y-83826645D01*
X156795789Y-83826643D01*
X156717611Y-83771902D01*
X156612749Y-83698477D01*
X156607767Y-83696154D01*
X156607762Y-83696151D01*
X156410225Y-83604039D01*
X156410224Y-83604039D01*
X156405243Y-83601716D01*
X156399935Y-83600294D01*
X156399933Y-83600293D01*
X156189402Y-83543881D01*
X156189400Y-83543881D01*
X156184087Y-83542457D01*
X155956000Y-83522502D01*
X155727913Y-83542457D01*
X155722600Y-83543881D01*
X155722598Y-83543881D01*
X155512067Y-83600293D01*
X155512065Y-83600294D01*
X155506757Y-83601716D01*
X155501776Y-83604039D01*
X155501775Y-83604039D01*
X155304238Y-83696151D01*
X155304233Y-83696154D01*
X155299251Y-83698477D01*
X155194389Y-83771902D01*
X155116211Y-83826643D01*
X155116208Y-83826645D01*
X155111700Y-83829802D01*
X154949802Y-83991700D01*
X154818477Y-84179251D01*
X154816154Y-84184233D01*
X154816151Y-84184238D01*
X154800195Y-84218457D01*
X154753278Y-84271742D01*
X154685001Y-84291203D01*
X154617041Y-84270661D01*
X154571805Y-84218457D01*
X154555849Y-84184238D01*
X154555846Y-84184233D01*
X154553523Y-84179251D01*
X154422198Y-83991700D01*
X154260300Y-83829802D01*
X154255792Y-83826645D01*
X154255789Y-83826643D01*
X154177611Y-83771902D01*
X154072749Y-83698477D01*
X154067767Y-83696154D01*
X154067762Y-83696151D01*
X153870225Y-83604039D01*
X153870224Y-83604039D01*
X153865243Y-83601716D01*
X153859935Y-83600294D01*
X153859933Y-83600293D01*
X153649402Y-83543881D01*
X153649400Y-83543881D01*
X153644087Y-83542457D01*
X153416000Y-83522502D01*
X153187913Y-83542457D01*
X153182600Y-83543881D01*
X153182598Y-83543881D01*
X152972067Y-83600293D01*
X152972065Y-83600294D01*
X152966757Y-83601716D01*
X152961776Y-83604039D01*
X152961775Y-83604039D01*
X152764238Y-83696151D01*
X152764233Y-83696154D01*
X152759251Y-83698477D01*
X152654389Y-83771902D01*
X152576211Y-83826643D01*
X152576208Y-83826645D01*
X152571700Y-83829802D01*
X152409802Y-83991700D01*
X152278477Y-84179251D01*
X152276154Y-84184233D01*
X152276151Y-84184238D01*
X152260195Y-84218457D01*
X152213278Y-84271742D01*
X152145001Y-84291203D01*
X152077041Y-84270661D01*
X152031805Y-84218457D01*
X152015849Y-84184238D01*
X152015846Y-84184233D01*
X152013523Y-84179251D01*
X151882198Y-83991700D01*
X151720300Y-83829802D01*
X151715792Y-83826645D01*
X151715789Y-83826643D01*
X151637611Y-83771902D01*
X151532749Y-83698477D01*
X151527767Y-83696154D01*
X151527762Y-83696151D01*
X151330225Y-83604039D01*
X151330224Y-83604039D01*
X151325243Y-83601716D01*
X151319935Y-83600294D01*
X151319933Y-83600293D01*
X151109402Y-83543881D01*
X151109400Y-83543881D01*
X151104087Y-83542457D01*
X150876000Y-83522502D01*
X150647913Y-83542457D01*
X150642600Y-83543881D01*
X150642598Y-83543881D01*
X150432067Y-83600293D01*
X150432065Y-83600294D01*
X150426757Y-83601716D01*
X150421776Y-83604039D01*
X150421775Y-83604039D01*
X150224238Y-83696151D01*
X150224233Y-83696154D01*
X150219251Y-83698477D01*
X150114389Y-83771902D01*
X150036211Y-83826643D01*
X150036208Y-83826645D01*
X150031700Y-83829802D01*
X149869802Y-83991700D01*
X149738477Y-84179251D01*
X149736154Y-84184233D01*
X149736151Y-84184238D01*
X149720195Y-84218457D01*
X149641716Y-84386757D01*
X149582457Y-84607913D01*
X149562502Y-84836000D01*
X122275600Y-84836000D01*
X122275600Y-77482522D01*
X149593273Y-77482522D01*
X149640764Y-77659761D01*
X149644510Y-77670053D01*
X149736586Y-77867511D01*
X149742069Y-77877007D01*
X149867028Y-78055467D01*
X149874084Y-78063875D01*
X150028125Y-78217916D01*
X150036533Y-78224972D01*
X150214993Y-78349931D01*
X150224489Y-78355414D01*
X150421947Y-78447490D01*
X150432239Y-78451236D01*
X150604503Y-78497394D01*
X150618599Y-78497058D01*
X150622000Y-78489116D01*
X150622000Y-78483967D01*
X151130000Y-78483967D01*
X151133973Y-78497498D01*
X151142522Y-78498727D01*
X151319761Y-78451236D01*
X151330053Y-78447490D01*
X151527511Y-78355414D01*
X151537007Y-78349931D01*
X151715467Y-78224972D01*
X151723875Y-78217916D01*
X151877916Y-78063875D01*
X151884972Y-78055467D01*
X152009931Y-77877007D01*
X152015414Y-77867511D01*
X152031805Y-77832359D01*
X152078722Y-77779074D01*
X152146999Y-77759613D01*
X152214959Y-77780155D01*
X152260195Y-77832359D01*
X152276586Y-77867511D01*
X152282069Y-77877007D01*
X152407028Y-78055467D01*
X152414084Y-78063875D01*
X152568125Y-78217916D01*
X152576533Y-78224972D01*
X152754993Y-78349931D01*
X152764489Y-78355414D01*
X152961947Y-78447490D01*
X152972239Y-78451236D01*
X153144503Y-78497394D01*
X153158599Y-78497058D01*
X153162000Y-78489116D01*
X153162000Y-78483967D01*
X153670000Y-78483967D01*
X153673973Y-78497498D01*
X153682522Y-78498727D01*
X153859761Y-78451236D01*
X153870053Y-78447490D01*
X154067511Y-78355414D01*
X154077007Y-78349931D01*
X154255467Y-78224972D01*
X154263875Y-78217916D01*
X154417916Y-78063875D01*
X154424972Y-78055467D01*
X154549931Y-77877007D01*
X154555414Y-77867511D01*
X154571805Y-77832359D01*
X154618722Y-77779074D01*
X154686999Y-77759613D01*
X154754959Y-77780155D01*
X154800195Y-77832359D01*
X154816586Y-77867511D01*
X154822069Y-77877007D01*
X154947028Y-78055467D01*
X154954084Y-78063875D01*
X155108125Y-78217916D01*
X155116533Y-78224972D01*
X155294993Y-78349931D01*
X155304489Y-78355414D01*
X155501947Y-78447490D01*
X155512239Y-78451236D01*
X155684503Y-78497394D01*
X155698599Y-78497058D01*
X155702000Y-78489116D01*
X155702000Y-78483967D01*
X156210000Y-78483967D01*
X156213973Y-78497498D01*
X156222522Y-78498727D01*
X156399761Y-78451236D01*
X156410053Y-78447490D01*
X156607511Y-78355414D01*
X156617007Y-78349931D01*
X156795467Y-78224972D01*
X156803875Y-78217916D01*
X156957916Y-78063875D01*
X156968507Y-78051254D01*
X156969357Y-78051968D01*
X157020422Y-78011152D01*
X157091041Y-78003844D01*
X157154401Y-78035877D01*
X157190385Y-78097079D01*
X157193438Y-78114145D01*
X157193895Y-78118353D01*
X157197521Y-78133604D01*
X157242676Y-78254054D01*
X157251214Y-78269649D01*
X157327715Y-78371724D01*
X157340276Y-78384285D01*
X157442351Y-78460786D01*
X157457946Y-78469324D01*
X157578394Y-78514478D01*
X157593649Y-78518105D01*
X157644514Y-78523631D01*
X157651328Y-78524000D01*
X158223885Y-78524000D01*
X158239124Y-78519525D01*
X158240329Y-78518135D01*
X158242000Y-78510452D01*
X158242000Y-78505884D01*
X158750000Y-78505884D01*
X158754475Y-78521123D01*
X158755865Y-78522328D01*
X158763548Y-78523999D01*
X159340669Y-78523999D01*
X159347490Y-78523629D01*
X159398352Y-78518105D01*
X159413604Y-78514479D01*
X159534054Y-78469324D01*
X159549649Y-78460786D01*
X159651724Y-78384285D01*
X159664285Y-78371724D01*
X159740786Y-78269649D01*
X159749324Y-78254054D01*
X159794478Y-78133606D01*
X159798105Y-78118351D01*
X159803631Y-78067486D01*
X159804000Y-78060672D01*
X159804000Y-77488115D01*
X159799525Y-77472876D01*
X159798135Y-77471671D01*
X159790452Y-77470000D01*
X158768115Y-77470000D01*
X158752876Y-77474475D01*
X158751671Y-77475865D01*
X158750000Y-77483548D01*
X158750000Y-78505884D01*
X158242000Y-78505884D01*
X158242000Y-77488115D01*
X158237525Y-77472876D01*
X158236135Y-77471671D01*
X158228452Y-77470000D01*
X156228115Y-77470000D01*
X156212876Y-77474475D01*
X156211671Y-77475865D01*
X156210000Y-77483548D01*
X156210000Y-78483967D01*
X155702000Y-78483967D01*
X155702000Y-77488115D01*
X155697525Y-77472876D01*
X155696135Y-77471671D01*
X155688452Y-77470000D01*
X153688115Y-77470000D01*
X153672876Y-77474475D01*
X153671671Y-77475865D01*
X153670000Y-77483548D01*
X153670000Y-78483967D01*
X153162000Y-78483967D01*
X153162000Y-77488115D01*
X153157525Y-77472876D01*
X153156135Y-77471671D01*
X153148452Y-77470000D01*
X151148115Y-77470000D01*
X151132876Y-77474475D01*
X151131671Y-77475865D01*
X151130000Y-77483548D01*
X151130000Y-78483967D01*
X150622000Y-78483967D01*
X150622000Y-77488115D01*
X150617525Y-77472876D01*
X150616135Y-77471671D01*
X150608452Y-77470000D01*
X149608033Y-77470000D01*
X149594502Y-77473973D01*
X149593273Y-77482522D01*
X122275600Y-77482522D01*
X122275600Y-76944503D01*
X149594606Y-76944503D01*
X149594942Y-76958599D01*
X149602884Y-76962000D01*
X150603885Y-76962000D01*
X150619124Y-76957525D01*
X150620329Y-76956135D01*
X150622000Y-76948452D01*
X150622000Y-76943885D01*
X151130000Y-76943885D01*
X151134475Y-76959124D01*
X151135865Y-76960329D01*
X151143548Y-76962000D01*
X153143885Y-76962000D01*
X153159124Y-76957525D01*
X153160329Y-76956135D01*
X153162000Y-76948452D01*
X153162000Y-76943885D01*
X153670000Y-76943885D01*
X153674475Y-76959124D01*
X153675865Y-76960329D01*
X153683548Y-76962000D01*
X155683885Y-76962000D01*
X155699124Y-76957525D01*
X155700329Y-76956135D01*
X155702000Y-76948452D01*
X155702000Y-76943885D01*
X156210000Y-76943885D01*
X156214475Y-76959124D01*
X156215865Y-76960329D01*
X156223548Y-76962000D01*
X158223885Y-76962000D01*
X158239124Y-76957525D01*
X158240329Y-76956135D01*
X158242000Y-76948452D01*
X158242000Y-76943885D01*
X158750000Y-76943885D01*
X158754475Y-76959124D01*
X158755865Y-76960329D01*
X158763548Y-76962000D01*
X159785884Y-76962000D01*
X159801123Y-76957525D01*
X159802328Y-76956135D01*
X159803999Y-76948452D01*
X159803999Y-76371331D01*
X159803629Y-76364510D01*
X159798105Y-76313648D01*
X159794479Y-76298396D01*
X159749324Y-76177946D01*
X159740786Y-76162351D01*
X159664285Y-76060276D01*
X159651724Y-76047715D01*
X159549649Y-75971214D01*
X159534054Y-75962676D01*
X159413606Y-75917522D01*
X159398351Y-75913895D01*
X159347486Y-75908369D01*
X159340672Y-75908000D01*
X158768115Y-75908000D01*
X158752876Y-75912475D01*
X158751671Y-75913865D01*
X158750000Y-75921548D01*
X158750000Y-76943885D01*
X158242000Y-76943885D01*
X158242000Y-75926116D01*
X158237525Y-75910877D01*
X158236135Y-75909672D01*
X158228452Y-75908001D01*
X157651331Y-75908001D01*
X157644510Y-75908371D01*
X157593648Y-75913895D01*
X157578396Y-75917521D01*
X157457946Y-75962676D01*
X157442351Y-75971214D01*
X157340276Y-76047715D01*
X157327715Y-76060276D01*
X157251214Y-76162351D01*
X157242676Y-76177946D01*
X157197522Y-76298394D01*
X157193896Y-76313643D01*
X157193439Y-76317851D01*
X157192168Y-76320910D01*
X157192068Y-76321331D01*
X157192000Y-76321315D01*
X157166199Y-76383414D01*
X157107837Y-76423843D01*
X157036883Y-76426301D01*
X156975864Y-76390008D01*
X156965028Y-76376600D01*
X156957916Y-76368125D01*
X156803875Y-76214084D01*
X156795467Y-76207028D01*
X156617007Y-76082069D01*
X156607511Y-76076586D01*
X156410053Y-75984510D01*
X156399761Y-75980764D01*
X156227497Y-75934606D01*
X156213401Y-75934942D01*
X156210000Y-75942884D01*
X156210000Y-76943885D01*
X155702000Y-76943885D01*
X155702000Y-75948033D01*
X155698027Y-75934502D01*
X155689478Y-75933273D01*
X155512239Y-75980764D01*
X155501947Y-75984510D01*
X155304489Y-76076586D01*
X155294993Y-76082069D01*
X155116533Y-76207028D01*
X155108125Y-76214084D01*
X154954084Y-76368125D01*
X154947028Y-76376533D01*
X154822069Y-76554993D01*
X154816586Y-76564489D01*
X154800195Y-76599641D01*
X154753278Y-76652926D01*
X154685001Y-76672387D01*
X154617041Y-76651845D01*
X154571805Y-76599641D01*
X154555414Y-76564489D01*
X154549931Y-76554993D01*
X154424972Y-76376533D01*
X154417916Y-76368125D01*
X154263875Y-76214084D01*
X154255467Y-76207028D01*
X154077007Y-76082069D01*
X154067511Y-76076586D01*
X153870053Y-75984510D01*
X153859761Y-75980764D01*
X153687497Y-75934606D01*
X153673401Y-75934942D01*
X153670000Y-75942884D01*
X153670000Y-76943885D01*
X153162000Y-76943885D01*
X153162000Y-75948033D01*
X153158027Y-75934502D01*
X153149478Y-75933273D01*
X152972239Y-75980764D01*
X152961947Y-75984510D01*
X152764489Y-76076586D01*
X152754993Y-76082069D01*
X152576533Y-76207028D01*
X152568125Y-76214084D01*
X152414084Y-76368125D01*
X152407028Y-76376533D01*
X152282069Y-76554993D01*
X152276586Y-76564489D01*
X152260195Y-76599641D01*
X152213278Y-76652926D01*
X152145001Y-76672387D01*
X152077041Y-76651845D01*
X152031805Y-76599641D01*
X152015414Y-76564489D01*
X152009931Y-76554993D01*
X151884972Y-76376533D01*
X151877916Y-76368125D01*
X151723875Y-76214084D01*
X151715467Y-76207028D01*
X151537007Y-76082069D01*
X151527511Y-76076586D01*
X151330053Y-75984510D01*
X151319761Y-75980764D01*
X151147497Y-75934606D01*
X151133401Y-75934942D01*
X151130000Y-75942884D01*
X151130000Y-76943885D01*
X150622000Y-76943885D01*
X150622000Y-75948033D01*
X150618027Y-75934502D01*
X150609478Y-75933273D01*
X150432239Y-75980764D01*
X150421947Y-75984510D01*
X150224489Y-76076586D01*
X150214993Y-76082069D01*
X150036533Y-76207028D01*
X150028125Y-76214084D01*
X149874084Y-76368125D01*
X149867028Y-76376533D01*
X149742069Y-76554993D01*
X149736586Y-76564489D01*
X149644510Y-76761947D01*
X149640764Y-76772239D01*
X149594606Y-76944503D01*
X122275600Y-76944503D01*
X122275600Y-62508400D01*
X122295602Y-62440279D01*
X122349258Y-62393786D01*
X122401600Y-62382400D01*
X161138600Y-62382400D01*
X161206721Y-62402402D01*
G37*
%TD.AperFunction*%
%TD*%
M02*
