M48
; DRILL file {KiCad (6.0.0)} date Fri Oct 14 23:46:21 2022
; FORMAT={-:-/ absolute / inch / decimal}
; #@! TF.CreationDate,2022-10-14T23:46:21+01:00
; #@! TF.GenerationSoftware,Kicad,Pcbnew,(6.0.0)
; #@! TF.FileFunction,Plated,1,2,PTH
FMAT,2
INCH
; #@! TA.AperFunction,Plated,PTH,ViaDrill
T1C0.0157
; #@! TA.AperFunction,Plated,PTH,ComponentDrill
T2C0.0315
; #@! TA.AperFunction,Plated,PTH,ComponentDrill
T3C0.0354
; #@! TA.AperFunction,Plated,PTH,ComponentDrill
T4C0.0394
; #@! TA.AperFunction,Plated,PTH,ComponentDrill
T5C0.0433
%
G90
G05
T1
X4.9Y-2.54
X4.9Y-2.74
X4.9Y-2.94
X4.9Y-3.14
X4.9Y-3.34
X4.9Y-3.64
X4.9Y-3.84
X4.9Y-4.24
X4.9Y-4.64
X4.9Y-4.84
X4.9Y-5.04
X5.0Y-2.64
X5.0Y-2.84
X5.0Y-3.54
X5.0Y-3.74
X5.0Y-4.14
X5.0Y-4.54
X5.0Y-4.74
X5.0Y-4.94
X5.0Y-5.14
X5.1Y-3.84
X5.1Y-4.24
X5.1Y-4.64
X5.1Y-4.84
X5.1Y-5.04
X5.2Y-3.94
X5.2Y-4.14
X5.2Y-4.34
X5.2Y-4.54
X5.3Y-3.84
X5.3Y-4.04
X5.3Y-4.24
X5.3Y-4.44
X5.3Y-4.74
X5.3Y-4.94
X5.36Y-4.75
X5.4Y-2.84
X5.4Y-3.44
X5.4Y-3.74
X5.4Y-3.94
X5.4Y-4.415
X5.4Y-4.54
X5.4Y-4.84
X5.5Y-2.74
X5.5Y-2.94
X5.5Y-3.34
X5.5Y-3.84
X5.5Y-4.29
X5.5Y-4.94
X5.5Y-5.14
X5.6Y-3.74
X5.6Y-4.64
X5.6Y-4.84
X5.6Y-5.04
X5.7Y-4.14
X5.7Y-4.34
X5.7Y-4.74
X5.7Y-4.94
X5.7Y-5.14
X5.72Y-4.79
X5.8Y-2.94
X5.8Y-3.24
X5.8Y-4.04
X5.8Y-4.24
X5.8Y-4.44
X5.81Y-3.715
X5.85Y-3.62
X5.9Y-3.14
X5.98Y-3.62
X6.0Y-2.74
X6.0Y-3.24
X6.0Y-5.04
X6.1Y-3.14
X6.1Y-3.94
X6.1Y-4.14
X6.1Y-4.34
X6.1Y-4.74
X6.1Y-4.94
X6.1Y-5.14
X6.11Y-3.62
X6.1918Y-4.6482
X6.2Y-2.74
X6.2Y-3.24
X6.2Y-3.84
X6.2Y-4.24
X6.2Y-4.84
X6.2Y-5.04
X6.225Y-3.715
X6.24Y-3.62
X6.3Y-2.64
X6.3Y-2.84
X6.3Y-3.14
X6.3Y-3.74
X6.3Y-3.94
X6.3Y-4.14
X6.3Y-4.34
X6.3Y-4.94
X6.3Y-5.14
T2
X5.94Y-3.04
X5.94Y-3.34
X6.04Y-3.04
X6.04Y-3.34
X6.14Y-3.04
X6.14Y-3.34
X6.24Y-3.04
X6.24Y-3.34
T3
X4.8998Y-4.04
X4.9998Y-4.04
T4
X5.2272Y-4.9752
X5.2272Y-5.0752
X5.23Y-4.605
X5.23Y-4.705
X5.23Y-4.805
X5.5958Y-3.6229
X5.6958Y-3.6229
X5.9076Y-4.1773
X5.9076Y-4.2773
X5.9076Y-4.3773
X5.9274Y-4.9892
X5.9274Y-5.0892
T5
X6.1084Y-4.581
X6.1084Y-4.837
X6.2856Y-4.581
X6.2856Y-4.837
T0
M30
